%TF.GenerationSoftware,KiCad,Pcbnew,8.0.6*%
%TF.CreationDate,2025-06-11T07:28:05-05:00*%
%TF.ProjectId,CortexPC,436f7274-6578-4504-932e-6b696361645f,V0.5*%
%TF.SameCoordinates,Original*%
%TF.FileFunction,Drillmap*%
%TF.FilePolarity,Positive*%
%FSLAX45Y45*%
G04 Gerber Fmt 4.5, Leading zero omitted, Abs format (unit mm)*
G04 Created by KiCad (PCBNEW 8.0.6) date 2025-06-11 07:28:05*
%MOMM*%
%LPD*%
G01*
G04 APERTURE LIST*
%ADD10C,0.200000*%
%ADD11C,0.010000*%
G04 APERTURE END LIST*
D10*
X3275840Y-1965200D02*
X27675840Y-1965200D01*
X27675840Y-26365200D01*
X3275840Y-26365200D01*
X3275840Y-1965200D01*
D11*
X26236280Y-2111640D02*
X26236280Y-2281640D01*
X26236280Y-2281640D02*
X26416280Y-2281640D01*
X26416280Y-2111640D02*
X26236280Y-2111640D01*
X26416280Y-2281640D02*
X26416280Y-2111640D01*
X27086280Y-2111640D02*
X27086280Y-2281640D01*
X27086280Y-2281640D02*
X27266280Y-2281640D01*
X27266280Y-2111640D02*
X27086280Y-2111640D01*
X27266280Y-2281640D02*
X27266280Y-2111640D01*
X17404700Y-2123440D02*
X17404700Y-2293440D01*
X17404700Y-2293440D02*
X17584700Y-2293440D01*
X17584700Y-2123440D02*
X17404700Y-2123440D01*
X17584700Y-2293440D02*
X17584700Y-2123440D01*
X18254700Y-2123440D02*
X18254700Y-2293440D01*
X18254700Y-2293440D02*
X18434700Y-2293440D01*
X18434700Y-2123440D02*
X18254700Y-2123440D01*
X18434700Y-2293440D02*
X18434700Y-2123440D01*
D10*
X3526617Y-26686684D02*
X3526617Y-26486684D01*
X3526617Y-26486684D02*
X3574236Y-26486684D01*
X3574236Y-26486684D02*
X3602807Y-26496208D01*
X3602807Y-26496208D02*
X3621855Y-26515255D01*
X3621855Y-26515255D02*
X3631379Y-26534303D01*
X3631379Y-26534303D02*
X3640902Y-26572398D01*
X3640902Y-26572398D02*
X3640902Y-26600969D01*
X3640902Y-26600969D02*
X3631379Y-26639065D01*
X3631379Y-26639065D02*
X3621855Y-26658112D01*
X3621855Y-26658112D02*
X3602807Y-26677160D01*
X3602807Y-26677160D02*
X3574236Y-26686684D01*
X3574236Y-26686684D02*
X3526617Y-26686684D01*
X3726617Y-26686684D02*
X3726617Y-26553350D01*
X3726617Y-26591446D02*
X3736141Y-26572398D01*
X3736141Y-26572398D02*
X3745664Y-26562874D01*
X3745664Y-26562874D02*
X3764712Y-26553350D01*
X3764712Y-26553350D02*
X3783760Y-26553350D01*
X3850426Y-26686684D02*
X3850426Y-26553350D01*
X3850426Y-26486684D02*
X3840902Y-26496208D01*
X3840902Y-26496208D02*
X3850426Y-26505731D01*
X3850426Y-26505731D02*
X3859950Y-26496208D01*
X3859950Y-26496208D02*
X3850426Y-26486684D01*
X3850426Y-26486684D02*
X3850426Y-26505731D01*
X3974236Y-26686684D02*
X3955188Y-26677160D01*
X3955188Y-26677160D02*
X3945664Y-26658112D01*
X3945664Y-26658112D02*
X3945664Y-26486684D01*
X4078998Y-26686684D02*
X4059950Y-26677160D01*
X4059950Y-26677160D02*
X4050426Y-26658112D01*
X4050426Y-26658112D02*
X4050426Y-26486684D01*
X4307569Y-26686684D02*
X4307569Y-26486684D01*
X4307569Y-26486684D02*
X4374236Y-26629541D01*
X4374236Y-26629541D02*
X4440903Y-26486684D01*
X4440903Y-26486684D02*
X4440903Y-26686684D01*
X4621855Y-26686684D02*
X4621855Y-26581922D01*
X4621855Y-26581922D02*
X4612331Y-26562874D01*
X4612331Y-26562874D02*
X4593284Y-26553350D01*
X4593284Y-26553350D02*
X4555188Y-26553350D01*
X4555188Y-26553350D02*
X4536141Y-26562874D01*
X4621855Y-26677160D02*
X4602807Y-26686684D01*
X4602807Y-26686684D02*
X4555188Y-26686684D01*
X4555188Y-26686684D02*
X4536141Y-26677160D01*
X4536141Y-26677160D02*
X4526617Y-26658112D01*
X4526617Y-26658112D02*
X4526617Y-26639065D01*
X4526617Y-26639065D02*
X4536141Y-26620017D01*
X4536141Y-26620017D02*
X4555188Y-26610493D01*
X4555188Y-26610493D02*
X4602807Y-26610493D01*
X4602807Y-26610493D02*
X4621855Y-26600969D01*
X4717093Y-26553350D02*
X4717093Y-26753350D01*
X4717093Y-26562874D02*
X4736141Y-26553350D01*
X4736141Y-26553350D02*
X4774236Y-26553350D01*
X4774236Y-26553350D02*
X4793284Y-26562874D01*
X4793284Y-26562874D02*
X4802807Y-26572398D01*
X4802807Y-26572398D02*
X4812331Y-26591446D01*
X4812331Y-26591446D02*
X4812331Y-26648588D01*
X4812331Y-26648588D02*
X4802807Y-26667636D01*
X4802807Y-26667636D02*
X4793284Y-26677160D01*
X4793284Y-26677160D02*
X4774236Y-26686684D01*
X4774236Y-26686684D02*
X4736141Y-26686684D01*
X4736141Y-26686684D02*
X4717093Y-26677160D01*
X4898045Y-26667636D02*
X4907569Y-26677160D01*
X4907569Y-26677160D02*
X4898045Y-26686684D01*
X4898045Y-26686684D02*
X4888522Y-26677160D01*
X4888522Y-26677160D02*
X4898045Y-26667636D01*
X4898045Y-26667636D02*
X4898045Y-26686684D01*
X4898045Y-26562874D02*
X4907569Y-26572398D01*
X4907569Y-26572398D02*
X4898045Y-26581922D01*
X4898045Y-26581922D02*
X4888522Y-26572398D01*
X4888522Y-26572398D02*
X4898045Y-26562874D01*
X4898045Y-26562874D02*
X4898045Y-26581922D01*
M02*
