M48
; DRILL file {KiCad 8.0.6} date 2025-07-20T17:08:44-0500
; FORMAT={-:-/ absolute / inch / decimal}
; #@! TF.CreationDate,2025-07-20T17:08:44-05:00
; #@! TF.GenerationSoftware,Kicad,Pcbnew,8.0.6
; #@! TF.FileFunction,Plated,1,2,PTH
FMAT,2
INCH
; #@! TA.AperFunction,Plated,PTH,ViaDrill
T1C0.0157
; #@! TA.AperFunction,Plated,PTH,ComponentDrill
T2C0.0295
; #@! TA.AperFunction,Plated,PTH,ComponentDrill
T3C0.0315
; #@! TA.AperFunction,Plated,PTH,ComponentDrill
T4C0.0354
; #@! TA.AperFunction,Plated,PTH,ComponentDrill
T5C0.0354
; #@! TA.AperFunction,Plated,PTH,ComponentDrill
T6C0.0394
; #@! TA.AperFunction,Plated,PTH,ComponentDrill
T7C0.0400
; #@! TA.AperFunction,Plated,PTH,ComponentDrill
T8C0.0433
; #@! TA.AperFunction,Plated,PTH,ComponentDrill
T9C0.0512
; #@! TA.AperFunction,Plated,PTH,ComponentDrill
T10C0.0669
; #@! TA.AperFunction,Plated,PTH,ComponentDrill
T11C0.0905
; #@! TA.AperFunction,Plated,PTH,ComponentDrill
T12C0.1260
%
G90
G05
T1
X1.3309Y-2.3978
X1.4299Y-1.556
X1.4966Y-2.4372
X1.9267Y-5.4436
X1.9602Y-1.8067
X1.9836Y-1.9743
X1.9836Y-4.0829
X2.0122Y-4.2769
X2.0388Y-4.8238
X2.1663Y-2.3895
X2.1836Y-2.9768
X2.2824Y-4.9329
X2.3117Y-8.2507
X2.3213Y-6.9088
X2.3297Y-1.7079
X2.3366Y-4.9238
X2.3611Y-3.9142
X2.3966Y-3.1551
X2.4975Y-2.8625
X2.5064Y-2.4633
X2.5147Y-5.301
X2.6039Y-1.4674
X2.6039Y-2.1892
X2.6039Y-5.3441
X2.6602Y-7.7689
X2.7041Y-2.2976
X2.9134Y-2.9841
X2.9363Y-7.3648
X2.9386Y-3.4236
X2.9629Y-7.4091
X3.1166Y-5.6835
X3.1702Y-2.4633
X3.1964Y-6.6273
X3.2183Y-8.1641
X3.2501Y-4.927
X3.2611Y-5.603
X3.27Y-7.49
X3.3218Y-5.5043
X3.3734Y-2.583
X3.3737Y-4.933
X3.3792Y-8.4645
X3.3792Y-10.0956
X3.3845Y-3.9762
X3.4312Y-8.4372
X3.4374Y-6.5814
X3.4509Y-2.3434
X3.4695Y-1.6989
X3.575Y-7.6627
X3.591Y-5.454
X3.5956Y-6.2468
X3.6004Y-7.1401
X3.6057Y-7.568
X3.6493Y-4.756
X3.6507Y-6.3797
X3.7878Y-3.0608
X3.7899Y-3.4236
X3.8326Y-6.2538
X3.8408Y-5.3146
X3.844Y-5.0944
X3.8444Y-1.4674
X3.8444Y-8.9108
X3.8839Y-6.2156
X3.8954Y-4.0825
X3.896Y-1.784
X3.9132Y-7.53
X3.9495Y-4.3367
X3.9717Y-4.2738
X3.9748Y-7.4447
X3.9753Y-7.8277
X3.9779Y-4.9097
X3.9879Y-1.8634
X4.0135Y-6.7544
X4.0151Y-5.7609
X4.0319Y-4.8819
X4.0952Y-5.6543
X4.1182Y-7.8522
X4.1413Y-6.3307
X4.1546Y-2.6887
X4.1706Y-5.1669
X4.2439Y-7.1312
X4.2465Y-2.4632
X4.2496Y-7.4287
X4.261Y-8.4963
X4.261Y-8.6006
X4.2649Y-8.2833
X4.3096Y-1.4674
X4.3096Y-4.0821
X4.3096Y-9.8412
X4.3117Y-6.9887
X4.3297Y-5.4661
X4.3595Y-6.9659
X4.4731Y-6.902
X4.4876Y-1.7626
X4.5255Y-3.1896
X4.5641Y-3.057
X4.5753Y-7.1785
X4.5755Y-3.296
X4.5755Y-3.7015
X4.5755Y-4.2836
X4.5784Y-5.0077
X4.5789Y-1.978
X4.5975Y-5.2097
X4.6928Y-1.6923
X4.7189Y-7.2049
X4.7201Y-4.3865
X4.723Y-6.6226
X4.7627Y-2.3897
X4.7627Y-2.6888
X4.7805Y-5.3873
X4.7961Y-5.0722
X4.8915Y-6.9492
X4.8933Y-2.0301
X4.9235Y-3.1781
X4.9241Y-6.6449
X4.9294Y-4.5662
X4.9323Y-2.6897
X4.9742Y-4.4532
X4.9869Y-4.1541
X5.0512Y-6.656
X5.0868Y-5.9542
X5.109Y-7.4223
X5.1112Y-5.8093
X5.1175Y-7.6583
X5.2013Y-5.0144
X5.202Y-6.0004
X5.2029Y-6.6185
X5.2401Y-1.6224
X5.2401Y-2.4062
X5.2401Y-2.5892
X5.2472Y-7.7069
X5.3286Y-4.1015
X5.3495Y-5.3963
X5.3579Y-5.9643
X5.3582Y-7.7069
X5.3672Y-5.4992
X5.3974Y-4.5541
X5.429Y-5.7377
X5.4449Y-6.4113
X5.4874Y-5.041
X5.49Y-7.03
X5.5038Y-3.6007
X5.51Y-4.3825
X5.5159Y-4.4592
X5.5381Y-4.9226
X5.5409Y-4.6936
X5.5511Y-1.7806
X5.6013Y-2.7326
X5.6099Y-6.5998
X5.6099Y-7.1532
X5.6562Y-5.2951
X5.7122Y-4.169
X5.72Y-4.2155
X5.7377Y-4.5896
X5.7475Y-7.2045
X5.7683Y-5.0551
X5.7685Y-3.5854
X5.7752Y-3.6441
X5.8154Y-7.4662
X5.8257Y-6.8701
X5.8294Y-9.0349
X5.8414Y-9.2868
X5.8421Y-7.617
X5.847Y-5.0473
X5.8627Y-8.3485
X5.8678Y-4.161
X5.88Y-5.1237
X5.8837Y-4.9655
X5.8898Y-6.4531
X5.9043Y-6.7108
X5.9059Y-6.2673
X5.9168Y-5.1669
X5.9326Y-4.2028
X5.9578Y-6.2799
X5.9602Y-4.1253
X5.9875Y-4.9641
X6.017Y-8.019
X6.0428Y-6.2414
X6.0605Y-6.2946
X6.062Y-3.1371
X6.0711Y-3.0119
X6.074Y-4.1968
X6.0947Y-7.4467
X6.1076Y-8.4169
X6.1119Y-8.1528
X6.1368Y-6.7279
X6.1573Y-3.3264
X6.1612Y-4.3258
X6.1678Y-3.0181
X6.221Y-6.4011
X6.2239Y-5.7251
X6.2824Y-1.4242
X6.3031Y-7.5698
X6.3205Y-6.5915
X6.3256Y-1.4674
X6.3385Y-7.3897
X6.3408Y-7.3387
X6.4073Y-3.2836
X6.4305Y-3.7572
X6.4801Y-7.5685
X6.4874Y-2.2531
X6.5246Y-3.0509
X6.5454Y-7.8056
X6.588Y-6.0467
X6.6044Y-7.0326
X6.6057Y-2.6421
X6.611Y-8.7996
X6.612Y-4.1609
X6.6655Y-6.6896
X6.6878Y-9.2475
X6.7314Y-6.7028
X6.7439Y-4.6769
X6.7536Y-1.5086
X6.7545Y-5.0563
X6.772Y-5.6108
X6.7803Y-7.0789
X6.7842Y-7.1577
X6.7866Y-6.0001
X6.7869Y-6.5611
X6.8162Y-3.2397
X6.8314Y-1.363
X6.8341Y-6.7079
X6.836Y-1.6224
X6.8371Y-3.0522
X6.8389Y-4.7734
X6.8434Y-5.5085
X6.8531Y-7.4773
X6.8538Y-2.3978
X6.8558Y-3.328
X6.8595Y-3.8093
X6.8759Y-4.6929
X6.8818Y-3.5087
X6.8849Y-9.6256
X6.8877Y-6.0001
X6.9026Y-5.9355
X6.9026Y-8.0246
X6.9033Y-4.8343
X6.9039Y-4.4982
X6.9116Y-1.4261
X6.9235Y-5.8026
X6.965Y-8.6256
X6.967Y-9.2189
X6.9818Y-8.5867
X6.9887Y-5.9177
X6.9925Y-7.5576
X6.9971Y-4.843
X6.9977Y-8.0246
X7.0093Y-7.5151
X7.0147Y-6.4181
X7.0378Y-4.6129
X7.047Y-9.1617
X7.0507Y-3.369
X7.0898Y-8.5587
X7.1128Y-4.6749
X7.1338Y-4.9357
X7.2187Y-7.0836
X7.2552Y-3.014
X7.2657Y-3.3552
X7.2832Y-7.0471
X7.3052Y-9.2113
X7.3189Y-8.6061
X7.3286Y-3.6014
X7.3635Y-7.1838
X7.3683Y-6.3255
X7.4491Y-3.8825
X7.5298Y-5.7608
X7.5728Y-4.6726
X7.575Y-3.5255
X7.5793Y-5.08
X7.5828Y-5.9102
X7.5882Y-5.9849
X7.5894Y-4.4137
X7.6024Y-6.0777
X7.6624Y-7.3221
X7.677Y-3.4582
X7.6824Y-9.0501
X7.6908Y-4.7607
X7.712Y-5.1748
X7.7134Y-6.5278
X7.7181Y-8.8594
X7.7844Y-7.0348
X7.7893Y-5.1519
X7.8144Y-8.7517
X7.8305Y-5.1048
X7.8722Y-8.4918
X7.9206Y-3.574
X7.958Y-6.0199
X7.9674Y-6.3415
X7.9878Y-4.55
X8.0019Y-4.0388
X8.0111Y-7.258
X8.0289Y-6.9001
X8.0304Y-8.2514
X8.0313Y-8.3228
X8.0531Y-5.0426
X8.0552Y-6.6934
X8.0702Y-7.1518
X8.1009Y-6.1126
X8.1067Y-4.9181
X8.1636Y-5.7469
X8.1703Y-8.1259
X8.1976Y-7.5827
X8.3083Y-6.4758
X8.3161Y-8.5426
X8.3263Y-7.8412
X8.3424Y-7.104
X8.3453Y-6.7505
X8.3598Y-7.3634
X8.3734Y-5.902
X8.381Y-6.5796
X8.3987Y-6.0603
X8.4099Y-5.209
X8.4195Y-4.6699
X8.4378Y-6.2156
X8.4518Y-6.0478
X8.4649Y-9.1095
X8.4848Y-5.4467
X8.4928Y-5.7371
X8.5485Y-7.8068
X8.5533Y-2.6178
X8.5661Y-2.4754
X8.5995Y-9.2216
X8.6073Y-2.6811
X8.6898Y-8.6174
X8.6994Y-4.8289
X8.7189Y-7.6499
X8.7344Y-9.0809
X8.7448Y-6.4237
X8.746Y-4.9652
X8.7647Y-9.012
X8.7672Y-5.0373
X8.7757Y-6.1393
X8.7803Y-9.4774
X8.7818Y-8.1918
X8.7869Y-2.8414
X8.7896Y-5.9797
X8.7961Y-9.1289
X8.8291Y-3.1731
X8.9359Y-3.53
X8.9618Y-2.8934
X8.9754Y-7.9581
X9.0043Y-9.4844
X9.0146Y-4.3572
X9.0195Y-6.2307
X9.0336Y-5.4992
X9.049Y-4.6712
X9.0898Y-5.1641
X9.1134Y-9.7018
X9.1149Y-5.1996
X9.1356Y-7.8391
X9.1398Y-1.818
X9.1544Y-6.5761
X9.1608Y-8.9088
X9.1841Y-7.205
X9.2011Y-8.7349
X9.2066Y-8.1143
X9.2219Y-1.0749
X9.2574Y-7.7143
X9.2851Y-6.2114
X9.2884Y-3.9334
X9.2917Y-1.3772
X9.3038Y-8.2901
X9.3852Y-8.3162
X9.3857Y-5.3473
X9.4148Y-5.647
X9.4434Y-2.3291
X9.4693Y-7.2138
X9.4834Y-3.4799
X9.5099Y-7.1583
X9.5433Y-1.5189
X9.5768Y-6.9303
X9.5821Y-9.0844
X9.5871Y-3.4783
X9.647Y-8.4521
X9.6595Y-4.171
X9.7199Y-5.5548
X9.8441Y-7.0781
X9.8567Y-5.4759
X9.8623Y-2.0876
X9.8806Y-6.4296
X9.9215Y-4.8721
X9.9391Y-5.6543
X10.0046Y-2.6652
X10.0305Y-7.3596
X10.0745Y-5.2014
X10.077Y-8.3335
X10.089Y-7.3493
X10.1115Y-5.1339
X10.1877Y-3.6237
X10.1946Y-2.39
X10.3169Y-4.7643
X10.3208Y-8.952
X10.3781Y-7.0943
X10.4248Y-8.9108
X10.5121Y-5.2356
T2
X9.492Y-9.653
X9.542Y-9.603
X9.592Y-9.653
T3
X1.5714Y-6.4928
X1.5714Y-6.5928
X1.5714Y-6.6928
X1.5714Y-6.7928
X1.586Y-5.497
X1.586Y-5.597
X1.586Y-5.697
X1.586Y-5.797
X1.586Y-5.897
X1.586Y-5.997
X1.586Y-6.097
X1.613Y-7.5737
X1.6281Y-5.229
X1.825Y-5.229
X1.8714Y-6.4928
X1.8714Y-6.5928
X1.8714Y-6.6928
X1.8714Y-6.7928
X1.8797Y-3.1827
X1.886Y-5.497
X1.886Y-5.597
X1.886Y-5.697
X1.886Y-5.797
X1.886Y-5.897
X1.886Y-5.997
X1.886Y-6.097
X1.913Y-7.5737
X1.929Y-2.506
X1.929Y-2.806
X1.9782Y-3.1827
X2.1551Y-8.345
X2.1641Y-7.0478
X2.1641Y-7.3072
X2.1641Y-7.5667
X2.1641Y-7.8261
X2.1641Y-8.0856
X2.197Y-6.494
X2.197Y-6.594
X2.197Y-6.694
X2.197Y-6.794
X2.352Y-8.345
X2.361Y-7.0478
X2.361Y-7.3072
X2.361Y-7.5667
X2.361Y-7.8261
X2.361Y-8.0856
X2.497Y-6.494
X2.497Y-6.594
X2.497Y-6.694
X2.497Y-6.794
X2.543Y-8.096
X2.64Y-5.527
X2.64Y-5.627
X2.64Y-5.727
X2.64Y-5.827
X2.64Y-5.927
X2.64Y-6.027
X2.64Y-6.127
X2.6586Y-3.183
X2.757Y-3.183
X2.843Y-8.096
X2.94Y-5.527
X2.94Y-5.627
X2.94Y-5.727
X2.94Y-5.827
X2.94Y-5.927
X2.94Y-6.027
X2.94Y-6.127
X3.1051Y-8.345
X3.11Y-8.0976
X3.184Y-5.528
X3.184Y-5.628
X3.184Y-5.728
X3.184Y-5.828
X3.184Y-5.928
X3.184Y-6.028
X3.184Y-6.128
X3.184Y-6.228
X3.184Y-6.328
X3.184Y-6.428
X3.191Y-6.765
X3.191Y-6.865
X3.191Y-6.965
X3.191Y-7.065
X3.191Y-7.165
X3.191Y-7.265
X3.191Y-7.365
X3.191Y-7.465
X3.191Y-7.565
X3.191Y-7.665
X3.302Y-8.345
X3.3069Y-8.0976
X3.4647Y-3.1827
X3.484Y-5.528
X3.484Y-5.628
X3.484Y-5.728
X3.484Y-5.828
X3.484Y-5.928
X3.484Y-6.028
X3.484Y-6.128
X3.484Y-6.228
X3.484Y-6.328
X3.484Y-6.428
X3.491Y-6.765
X3.491Y-6.865
X3.491Y-6.965
X3.491Y-7.065
X3.491Y-7.165
X3.491Y-7.265
X3.491Y-7.365
X3.491Y-7.465
X3.491Y-7.565
X3.491Y-7.665
X3.5632Y-3.1827
X3.739Y-5.542
X3.739Y-5.642
X3.739Y-5.742
X3.739Y-5.842
X3.739Y-5.942
X3.739Y-6.042
X3.739Y-6.142
X3.739Y-6.242
X3.739Y-6.342
X3.739Y-6.442
X3.739Y-6.542
X3.739Y-6.642
X3.739Y-6.742
X3.739Y-6.842
X3.788Y-7.273
X3.788Y-7.473
X3.789Y-7.782
X3.789Y-7.982
X3.988Y-7.373
X3.989Y-7.882
X3.993Y-5.24
X4.0914Y-5.24
X4.2806Y-3.192
X4.327Y-5.24
X4.339Y-5.542
X4.339Y-5.642
X4.339Y-5.742
X4.339Y-5.842
X4.339Y-5.942
X4.339Y-6.042
X4.339Y-6.142
X4.339Y-6.242
X4.339Y-6.342
X4.339Y-6.442
X4.339Y-6.542
X4.339Y-6.642
X4.339Y-6.742
X4.339Y-6.842
X4.379Y-3.192
X4.4186Y-7.668
X4.4186Y-8.0361
X4.4236Y-8.401
X4.4254Y-5.24
X4.517Y-7.668
X4.517Y-8.0361
X4.522Y-8.401
X4.6448Y-8.9029
X4.65Y-5.81
X4.6513Y-6.0709
X4.652Y-9.186
X4.652Y-9.431
X4.652Y-9.683
X4.66Y-5.56
X4.67Y-6.995
X4.6986Y-7.663
X4.7186Y-8.034
X4.7201Y-5.291
X4.7684Y-6.995
X4.797Y-7.663
X4.817Y-8.034
X4.8417Y-8.9029
X4.917Y-5.291
X4.95Y-5.81
X4.9513Y-6.0709
X4.952Y-9.186
X4.952Y-9.431
X4.952Y-9.683
X4.96Y-5.56
X5.001Y-7.15
X5.001Y-7.25
X5.001Y-7.35
X5.001Y-7.45
X5.001Y-7.55
X5.001Y-7.65
X5.001Y-7.75
X5.0511Y-6.865
X5.0766Y-3.166
X5.175Y-3.166
X5.248Y-6.865
X5.301Y-7.15
X5.301Y-7.25
X5.301Y-7.35
X5.301Y-7.45
X5.301Y-7.55
X5.301Y-7.65
X5.301Y-7.75
X5.629Y-5.502
X5.629Y-5.602
X5.629Y-5.702
X5.629Y-5.802
X5.629Y-5.902
X5.629Y-6.002
X5.629Y-6.102
X5.629Y-6.202
X5.657Y-8.124
X5.657Y-8.224
X5.657Y-8.324
X5.657Y-8.424
X5.657Y-8.524
X5.657Y-8.624
X5.657Y-8.724
X5.657Y-8.824
X5.657Y-8.924
X5.657Y-9.024
X5.665Y-6.802
X5.665Y-6.902
X5.665Y-7.002
X5.665Y-7.102
X5.665Y-7.202
X5.665Y-7.302
X5.665Y-7.402
X5.665Y-7.502
X5.665Y-7.602
X5.665Y-7.702
X5.6831Y-5.217
X5.7117Y-9.5207
X5.8102Y-9.5207
X5.88Y-5.217
X5.929Y-5.502
X5.929Y-5.602
X5.929Y-5.702
X5.929Y-5.802
X5.929Y-5.902
X5.929Y-6.002
X5.929Y-6.102
X5.929Y-6.202
X5.957Y-8.124
X5.957Y-8.224
X5.957Y-8.324
X5.957Y-8.424
X5.957Y-8.524
X5.957Y-8.624
X5.957Y-8.724
X5.957Y-8.824
X5.957Y-8.924
X5.957Y-9.024
X5.965Y-6.802
X5.965Y-6.902
X5.965Y-7.002
X5.965Y-7.102
X5.965Y-7.202
X5.965Y-7.302
X5.965Y-7.402
X5.965Y-7.502
X5.965Y-7.602
X5.965Y-7.702
X6.0331Y-6.477
X6.0816Y-9.546
X6.18Y-9.546
X6.203Y-8.1071
X6.203Y-8.304
X6.204Y-6.781
X6.204Y-6.9779
X6.23Y-6.477
X6.298Y-1.928
X6.298Y-2.028
X6.298Y-2.128
X6.298Y-2.228
X6.298Y-2.328
X6.298Y-2.428
X6.298Y-2.528
X6.3391Y-1.631
X6.34Y-2.957
X6.34Y-3.057
X6.34Y-3.157
X6.34Y-3.257
X6.34Y-3.357
X6.34Y-3.457
X6.34Y-3.557
X6.34Y-3.657
X6.357Y-6.477
X6.379Y-5.499
X6.379Y-5.599
X6.379Y-5.699
X6.379Y-5.799
X6.379Y-5.899
X6.379Y-5.999
X6.379Y-6.099
X6.38Y-4.11
X6.38Y-4.21
X6.38Y-4.31
X6.38Y-4.41
X6.38Y-4.51
X6.38Y-4.61
X6.38Y-4.71
X6.38Y-4.81
X6.38Y-4.91
X6.417Y-6.822
X6.417Y-6.922
X6.417Y-7.022
X6.417Y-7.122
X6.417Y-7.222
X6.417Y-7.322
X6.417Y-7.422
X6.417Y-7.522
X6.417Y-7.622
X6.417Y-7.722
X6.4411Y-5.223
X6.4547Y-9.5477
X6.507Y-8.311
X6.507Y-8.411
X6.507Y-8.511
X6.507Y-8.611
X6.507Y-8.711
X6.507Y-8.811
X6.507Y-8.911
X6.507Y-9.011
X6.536Y-1.631
X6.5532Y-9.5477
X6.5651Y-8.032
X6.598Y-1.928
X6.598Y-2.028
X6.598Y-2.128
X6.598Y-2.228
X6.598Y-2.328
X6.598Y-2.428
X6.598Y-2.528
X6.638Y-5.223
X6.64Y-2.957
X6.64Y-3.057
X6.64Y-3.157
X6.64Y-3.257
X6.64Y-3.357
X6.64Y-3.457
X6.64Y-3.557
X6.64Y-3.657
X6.657Y-6.477
X6.679Y-5.499
X6.679Y-5.599
X6.679Y-5.699
X6.679Y-5.799
X6.679Y-5.899
X6.679Y-5.999
X6.679Y-6.099
X6.68Y-4.11
X6.68Y-4.21
X6.68Y-4.31
X6.68Y-4.41
X6.68Y-4.51
X6.68Y-4.61
X6.68Y-4.71
X6.68Y-4.81
X6.68Y-4.91
X6.717Y-6.822
X6.717Y-6.922
X6.717Y-7.022
X6.717Y-7.122
X6.717Y-7.222
X6.717Y-7.322
X6.717Y-7.422
X6.717Y-7.522
X6.717Y-7.622
X6.717Y-7.722
X6.7441Y-2.753
X6.762Y-8.032
X6.807Y-8.311
X6.807Y-8.411
X6.807Y-8.511
X6.807Y-8.611
X6.807Y-8.711
X6.807Y-8.811
X6.807Y-8.911
X6.807Y-9.011
X6.897Y-6.8141
X6.897Y-7.011
X6.941Y-2.753
X7.16Y-1.591
X7.165Y-7.707
X7.165Y-7.807
X7.165Y-7.907
X7.165Y-8.007
X7.165Y-8.107
X7.165Y-8.207
X7.165Y-8.307
X7.165Y-8.407
X7.165Y-8.507
X7.165Y-8.607
X7.165Y-8.707
X7.165Y-8.807
X7.165Y-8.907
X7.165Y-9.007
X7.168Y-1.899
X7.168Y-1.999
X7.168Y-2.099
X7.168Y-2.199
X7.168Y-2.299
X7.168Y-2.399
X7.168Y-2.499
X7.168Y-2.869
X7.168Y-2.969
X7.168Y-3.069
X7.168Y-3.169
X7.168Y-3.269
X7.168Y-3.369
X7.168Y-3.469
X7.168Y-5.088
X7.168Y-5.188
X7.168Y-5.288
X7.168Y-5.388
X7.168Y-5.488
X7.168Y-5.588
X7.168Y-5.688
X7.168Y-6.094
X7.168Y-6.194
X7.168Y-6.294
X7.168Y-6.394
X7.168Y-6.494
X7.168Y-6.594
X7.168Y-6.694
X7.168Y-6.794
X7.168Y-6.894
X7.168Y-6.994
X7.17Y-4.12
X7.17Y-4.22
X7.17Y-4.32
X7.17Y-4.42
X7.17Y-4.52
X7.17Y-4.62
X7.17Y-4.72
X7.1931Y-3.79
X7.39Y-3.79
X7.46Y-1.591
X7.468Y-1.899
X7.468Y-1.999
X7.468Y-2.099
X7.468Y-2.199
X7.468Y-2.299
X7.468Y-2.399
X7.468Y-2.499
X7.468Y-2.869
X7.468Y-2.969
X7.468Y-3.069
X7.468Y-3.169
X7.468Y-3.269
X7.468Y-3.369
X7.468Y-3.469
X7.468Y-5.088
X7.468Y-5.188
X7.468Y-5.288
X7.468Y-5.388
X7.468Y-5.488
X7.468Y-5.588
X7.468Y-5.688
X7.468Y-6.094
X7.468Y-6.194
X7.468Y-6.294
X7.468Y-6.394
X7.468Y-6.494
X7.468Y-6.594
X7.468Y-6.694
X7.468Y-6.794
X7.468Y-6.894
X7.468Y-6.994
X7.47Y-4.12
X7.47Y-4.22
X7.47Y-4.32
X7.47Y-4.42
X7.47Y-4.52
X7.47Y-4.62
X7.47Y-4.72
X7.5151Y-5.893
X7.5671Y-1.722
X7.712Y-5.893
X7.764Y-1.722
X7.765Y-7.707
X7.765Y-7.807
X7.765Y-7.907
X7.765Y-8.007
X7.765Y-8.107
X7.765Y-8.207
X7.765Y-8.307
X7.765Y-8.407
X7.765Y-8.507
X7.765Y-8.607
X7.765Y-8.707
X7.765Y-8.807
X7.765Y-8.907
X7.765Y-9.007
X7.82Y-2.21
X7.82Y-2.31
X7.82Y-2.41
X7.82Y-2.51
X7.891Y-4.443
X7.891Y-4.543
X7.891Y-4.643
X7.891Y-4.743
X7.891Y-4.843
X7.891Y-4.943
X7.891Y-5.043
X7.891Y-5.143
X7.891Y-5.243
X7.891Y-5.343
X7.891Y-5.885
X7.891Y-5.985
X7.891Y-6.085
X7.891Y-6.185
X7.891Y-6.285
X7.891Y-6.385
X7.891Y-6.485
X7.891Y-6.585
X7.891Y-6.685
X7.891Y-6.785
X7.891Y-6.885
X7.891Y-6.985
X7.9218Y-4.1409
X7.9451Y-5.63
X8.059Y-7.506
X8.059Y-7.7029
X8.1187Y-4.1409
X8.12Y-2.21
X8.12Y-2.31
X8.12Y-2.41
X8.12Y-2.51
X8.142Y-5.63
X8.191Y-4.443
X8.191Y-4.543
X8.191Y-4.643
X8.191Y-4.743
X8.191Y-4.843
X8.191Y-4.943
X8.191Y-5.043
X8.191Y-5.143
X8.191Y-5.243
X8.191Y-5.343
X8.191Y-5.885
X8.191Y-5.985
X8.191Y-6.085
X8.191Y-6.185
X8.191Y-6.285
X8.191Y-6.385
X8.191Y-6.485
X8.191Y-6.585
X8.191Y-6.685
X8.191Y-6.785
X8.191Y-6.885
X8.191Y-6.985
X8.1921Y-1.715
X8.38Y-2.53
X8.38Y-2.78
X8.389Y-1.715
X8.3941Y-7.273
X8.425Y-7.512
X8.425Y-7.612
X8.425Y-7.712
X8.425Y-7.812
X8.425Y-7.912
X8.425Y-8.012
X8.425Y-8.112
X8.425Y-8.212
X8.425Y-8.312
X8.425Y-8.412
X8.425Y-8.512
X8.425Y-8.612
X8.425Y-8.712
X8.425Y-8.812
X8.425Y-8.912
X8.425Y-9.012
X8.5768Y-4.7072
X8.5768Y-4.8072
X8.5768Y-4.9072
X8.5768Y-5.0072
X8.5768Y-5.1072
X8.5768Y-5.2072
X8.5768Y-5.3072
X8.5768Y-5.4072
X8.5768Y-5.8942
X8.5768Y-5.9942
X8.5768Y-6.0942
X8.5768Y-6.1942
X8.5768Y-6.2942
X8.5768Y-6.3942
X8.5768Y-6.4942
X8.5768Y-6.5942
X8.5768Y-6.6942
X8.5768Y-6.7942
X8.5768Y-6.8942
X8.5768Y-6.9942
X8.591Y-7.273
X8.629Y-1.4613
X8.629Y-1.7613
X8.656Y-4.398
X8.68Y-2.53
X8.68Y-2.78
X8.8529Y-4.398
X8.8768Y-4.7072
X8.8768Y-4.8072
X8.8768Y-4.9072
X8.8768Y-5.0072
X8.8768Y-5.1072
X8.8768Y-5.2072
X8.8768Y-5.3072
X8.8768Y-5.4072
X8.8768Y-5.8942
X8.8768Y-5.9942
X8.8768Y-6.0942
X8.8768Y-6.1942
X8.8768Y-6.2942
X8.8768Y-6.3942
X8.8768Y-6.4942
X8.8768Y-6.5942
X8.8768Y-6.6942
X8.8768Y-6.7942
X8.8768Y-6.8942
X8.8768Y-6.9942
X8.9308Y-1.4613
X8.9308Y-1.7613
X9.025Y-7.512
X9.025Y-7.612
X9.025Y-7.712
X9.025Y-7.812
X9.025Y-7.912
X9.025Y-8.012
X9.025Y-8.112
X9.025Y-8.212
X9.025Y-8.312
X9.025Y-8.412
X9.025Y-8.512
X9.025Y-8.612
X9.025Y-8.712
X9.025Y-8.812
X9.025Y-8.912
X9.025Y-9.012
X9.126Y-5.8921
X9.126Y-6.089
X9.151Y-2.195
X9.151Y-2.295
X9.151Y-2.395
X9.151Y-2.495
X9.151Y-2.595
X9.151Y-2.695
X9.151Y-2.795
X9.151Y-2.895
X9.151Y-2.995
X9.151Y-3.095
X9.151Y-3.195
X9.151Y-3.295
X9.151Y-3.395
X9.151Y-3.495
X9.151Y-3.595
X9.151Y-3.695
X9.151Y-3.795
X9.151Y-3.895
X9.151Y-3.995
X9.151Y-4.095
X9.1546Y-4.769
X9.1841Y-7.617
X9.2011Y-6.882
X9.2021Y-7.894
X9.2326Y-1.4613
X9.2326Y-1.7613
X9.253Y-4.769
X9.287Y-7.152
X9.287Y-7.3441
X9.299Y-8.086
X9.299Y-8.386
X9.302Y-8.521
X9.302Y-8.821
X9.3129Y-8.9787
X9.3129Y-9.2787
X9.381Y-7.617
X9.398Y-6.882
X9.399Y-7.894
X9.5344Y-1.4613
X9.5344Y-1.7613
X9.57Y-7.094
X9.57Y-7.194
X9.57Y-7.294
X9.57Y-7.394
X9.57Y-7.494
X9.57Y-7.594
X9.57Y-7.694
X9.57Y-7.794
X9.57Y-7.894
X9.57Y-7.994
X9.57Y-8.094
X9.57Y-8.194
X9.57Y-8.294
X9.57Y-8.394
X9.57Y-8.494
X9.57Y-8.594
X9.57Y-8.694
X9.57Y-8.794
X9.57Y-8.894
X9.57Y-8.994
X9.582Y-4.678
X9.582Y-4.778
X9.582Y-4.878
X9.582Y-4.978
X9.582Y-5.078
X9.582Y-5.178
X9.582Y-5.278
X9.582Y-5.378
X9.582Y-5.478
X9.582Y-5.578
X9.582Y-5.678
X9.582Y-5.778
X9.582Y-5.878
X9.582Y-5.978
X9.582Y-6.078
X9.582Y-6.178
X9.582Y-6.278
X9.582Y-6.378
X9.582Y-6.478
X9.582Y-6.578
X9.751Y-2.195
X9.751Y-2.295
X9.751Y-2.395
X9.751Y-2.495
X9.751Y-2.595
X9.751Y-2.695
X9.751Y-2.795
X9.751Y-2.895
X9.751Y-2.995
X9.751Y-3.095
X9.751Y-3.195
X9.751Y-3.295
X9.751Y-3.395
X9.751Y-3.495
X9.751Y-3.595
X9.751Y-3.695
X9.751Y-3.795
X9.751Y-3.895
X9.751Y-3.995
X9.751Y-4.095
X9.8362Y-1.4613
X9.8362Y-1.7613
X9.8423Y-9.3029
X10.138Y-1.4613
X10.138Y-1.7613
X10.1423Y-9.3029
X10.17Y-7.094
X10.17Y-7.194
X10.17Y-7.294
X10.17Y-7.394
X10.17Y-7.494
X10.17Y-7.594
X10.17Y-7.694
X10.17Y-7.794
X10.17Y-7.894
X10.17Y-7.994
X10.17Y-8.094
X10.17Y-8.194
X10.17Y-8.294
X10.17Y-8.394
X10.17Y-8.494
X10.17Y-8.594
X10.17Y-8.694
X10.17Y-8.794
X10.17Y-8.894
X10.17Y-8.994
X10.182Y-4.678
X10.182Y-4.778
X10.182Y-4.878
X10.182Y-4.978
X10.182Y-5.078
X10.182Y-5.178
X10.182Y-5.278
X10.182Y-5.378
X10.182Y-5.478
X10.182Y-5.578
X10.182Y-5.678
X10.182Y-5.778
X10.182Y-5.878
X10.182Y-5.978
X10.182Y-6.078
X10.182Y-6.178
X10.182Y-6.278
X10.182Y-6.378
X10.182Y-6.478
X10.182Y-6.578
X10.395Y-7.893
X10.395Y-8.0899
X10.442Y-4.6611
X10.442Y-4.858
T4
X7.65Y-1.0236
X7.65Y-1.12
X7.7327Y-1.0236
X7.8349Y-1.0236
X7.9176Y-1.0236
X7.9176Y-1.122
T5
X8.519Y-1.253
X8.619Y-1.253
X8.824Y-1.253
X8.924Y-1.253
X9.129Y-1.253
X9.229Y-1.253
X9.434Y-1.253
X9.534Y-1.253
X9.739Y-1.253
X9.839Y-1.253
X10.044Y-1.253
X10.144Y-1.253
T6
X1.889Y-4.358
X1.889Y-4.458
X1.889Y-4.558
X1.889Y-4.658
X1.889Y-4.758
X1.889Y-4.858
X1.989Y-4.358
X1.989Y-4.458
X1.989Y-4.558
X1.989Y-4.658
X1.989Y-4.758
X1.989Y-4.858
X2.247Y-5.536
X2.247Y-5.636
X2.249Y-5.878
X2.249Y-5.978
X2.6787Y-4.358
X2.6787Y-4.458
X2.6787Y-4.558
X2.6787Y-4.658
X2.6787Y-4.758
X2.6787Y-4.858
X2.7787Y-4.358
X2.7787Y-4.458
X2.7787Y-4.558
X2.7787Y-4.658
X2.7787Y-4.758
X2.7787Y-4.858
X3.25Y-5.32
X3.35Y-5.32
X3.45Y-5.32
X3.492Y-4.358
X3.492Y-4.458
X3.492Y-4.558
X3.492Y-4.658
X3.492Y-4.758
X3.492Y-4.858
X3.592Y-4.358
X3.592Y-4.458
X3.592Y-4.558
X3.592Y-4.658
X3.592Y-4.758
X3.592Y-4.858
X4.299Y-4.358
X4.299Y-4.458
X4.299Y-4.558
X4.299Y-4.658
X4.299Y-4.758
X4.299Y-4.858
X4.399Y-4.358
X4.399Y-4.458
X4.399Y-4.558
X4.399Y-4.658
X4.399Y-4.758
X4.399Y-4.858
X4.676Y-6.457
X4.676Y-6.557
X5.0171Y-8.7258
X5.0171Y-8.903
X5.083Y-4.358
X5.083Y-4.458
X5.083Y-4.558
X5.083Y-4.658
X5.083Y-4.758
X5.083Y-4.858
X5.126Y-6.463
X5.126Y-6.563
X5.183Y-4.358
X5.183Y-4.458
X5.183Y-4.558
X5.183Y-4.658
X5.183Y-4.758
X5.183Y-4.858
X5.273Y-8.7258
X5.273Y-8.903
X5.283Y-9.467
X5.283Y-9.567
X5.889Y-4.358
X5.889Y-4.458
X5.889Y-4.558
X5.889Y-4.658
X5.889Y-4.758
X5.889Y-4.858
X5.989Y-4.358
X5.989Y-4.458
X5.989Y-4.558
X5.989Y-4.658
X5.989Y-4.758
X5.989Y-4.858
X6.952Y-9.583
X6.952Y-9.683
X7.052Y-9.583
X7.052Y-9.683
X7.152Y-9.583
X7.152Y-9.683
X7.252Y-9.583
X7.252Y-9.683
X7.352Y-9.583
X7.352Y-9.683
X7.452Y-9.583
X7.452Y-9.683
X7.552Y-9.583
X7.552Y-9.683
X7.652Y-9.583
X7.652Y-9.683
X7.752Y-9.583
X7.752Y-9.683
X7.852Y-9.583
X7.852Y-9.683
X7.952Y-9.583
X7.952Y-9.683
X8.052Y-9.583
X8.052Y-9.683
X8.152Y-9.583
X8.152Y-9.683
X8.215Y-1.203
X8.215Y-1.303
X8.252Y-9.583
X8.252Y-9.683
X8.352Y-9.583
X8.352Y-9.683
X8.452Y-9.583
X8.452Y-9.683
X8.51Y-2.157
X8.51Y-2.257
X8.5291Y-3.0887
X8.5291Y-3.1887
X8.552Y-9.583
X8.552Y-9.683
X8.652Y-9.583
X8.652Y-9.683
X8.752Y-9.583
X8.752Y-9.683
X8.767Y-0.899
X8.852Y-9.583
X8.852Y-9.683
X8.867Y-0.899
X8.967Y-0.899
X9.067Y-0.899
X9.167Y-0.899
X9.221Y-9.535
X9.221Y-9.635
X9.221Y-9.735
X9.267Y-0.899
X9.549Y-0.9
X9.649Y-0.9
X9.749Y-0.9
X9.849Y-0.9
X9.8561Y-9.5438
X9.8561Y-9.721
X9.949Y-0.9
X10.049Y-0.9
X10.112Y-9.5438
X10.112Y-9.721
X10.149Y-0.9
X10.4Y-9.5838
X10.4Y-9.6838
X10.413Y-9.1398
X10.413Y-9.2398
X10.548Y-3.184
X10.548Y-3.284
X10.548Y-3.384
X10.548Y-3.484
X10.548Y-3.584
X10.548Y-3.684
X10.548Y-3.784
X10.548Y-3.884
X10.548Y-3.984
X10.548Y-4.084
X10.648Y-3.184
X10.648Y-3.284
X10.648Y-3.384
X10.648Y-3.484
X10.648Y-3.584
X10.648Y-3.684
X10.648Y-3.784
X10.648Y-3.884
X10.648Y-3.984
X10.648Y-4.084
T7
X1.4387Y-1.7892
X1.4387Y-1.8892
X1.4387Y-1.9892
X1.4387Y-2.0892
X1.4387Y-2.1892
X1.4387Y-2.2892
X1.4387Y-2.3892
X1.4387Y-2.4892
X1.4387Y-2.5892
X1.4387Y-2.6892
X1.4387Y-2.7892
X1.4387Y-2.8892
X1.4387Y-2.9892
X1.4387Y-3.0892
X1.4387Y-3.1892
X1.4387Y-3.2892
X1.4387Y-3.3892
X1.4387Y-3.4892
X1.4387Y-3.5892
X1.4387Y-3.6892
X1.4387Y-3.7892
X1.4387Y-3.8892
X1.4387Y-3.9892
X1.4387Y-4.0892
X1.4387Y-4.1892
X1.4387Y-4.2892
X1.4387Y-4.3892
X1.4387Y-4.4892
X1.4387Y-4.5892
X1.4387Y-4.6892
X1.4387Y-4.7892
X1.6387Y-1.7892
X1.6387Y-1.8892
X1.6387Y-1.9892
X1.6387Y-2.0892
X1.6387Y-2.1892
X1.6387Y-2.2892
X1.6387Y-2.3892
X1.6387Y-2.4892
X1.6387Y-2.5892
X1.6387Y-2.6892
X1.6387Y-2.7892
X1.6387Y-2.8892
X1.6387Y-2.9892
X1.6387Y-3.0892
X1.6387Y-3.1892
X1.6387Y-3.2892
X1.6387Y-3.3892
X1.6387Y-3.4892
X1.6387Y-3.5892
X1.6387Y-3.6892
X1.6387Y-3.7892
X1.6387Y-3.8892
X1.6387Y-3.9892
X1.6387Y-4.0892
X1.6387Y-4.1892
X1.6387Y-4.2892
X1.6387Y-4.3892
X1.6387Y-4.4892
X1.6387Y-4.5892
X1.6387Y-4.6892
X1.6387Y-4.7892
X2.2387Y-1.7892
X2.2387Y-1.8892
X2.2387Y-1.9892
X2.2387Y-2.0892
X2.2387Y-2.1892
X2.2387Y-2.2892
X2.2387Y-2.3892
X2.2387Y-2.4892
X2.2387Y-2.5892
X2.2387Y-2.6892
X2.2387Y-2.7892
X2.2387Y-2.8892
X2.2387Y-2.9892
X2.2387Y-3.0892
X2.2387Y-3.1892
X2.2387Y-3.2892
X2.2387Y-3.3892
X2.2387Y-3.4892
X2.2387Y-3.5892
X2.2387Y-3.6892
X2.2387Y-3.7892
X2.2387Y-3.8892
X2.2387Y-3.9892
X2.2387Y-4.0892
X2.2387Y-4.1892
X2.2387Y-4.2892
X2.2387Y-4.3892
X2.2387Y-4.4892
X2.2387Y-4.5892
X2.2387Y-4.6892
X2.2387Y-4.7892
X2.4387Y-1.7892
X2.4387Y-1.8892
X2.4387Y-1.9892
X2.4387Y-2.0892
X2.4387Y-2.1892
X2.4387Y-2.2892
X2.4387Y-2.3892
X2.4387Y-2.4892
X2.4387Y-2.5892
X2.4387Y-2.6892
X2.4387Y-2.7892
X2.4387Y-2.8892
X2.4387Y-2.9892
X2.4387Y-3.0892
X2.4387Y-3.1892
X2.4387Y-3.2892
X2.4387Y-3.3892
X2.4387Y-3.4892
X2.4387Y-3.5892
X2.4387Y-3.6892
X2.4387Y-3.7892
X2.4387Y-3.8892
X2.4387Y-3.9892
X2.4387Y-4.0892
X2.4387Y-4.1892
X2.4387Y-4.2892
X2.4387Y-4.3892
X2.4387Y-4.4892
X2.4387Y-4.5892
X2.4387Y-4.6892
X2.4387Y-4.7892
X3.0387Y-1.7892
X3.0387Y-1.8892
X3.0387Y-1.9892
X3.0387Y-2.0892
X3.0387Y-2.1892
X3.0387Y-2.2892
X3.0387Y-2.3892
X3.0387Y-2.4892
X3.0387Y-2.5892
X3.0387Y-2.6892
X3.0387Y-2.7892
X3.0387Y-2.8892
X3.0387Y-2.9892
X3.0387Y-3.0892
X3.0387Y-3.1892
X3.0387Y-3.2892
X3.0387Y-3.3892
X3.0387Y-3.4892
X3.0387Y-3.5892
X3.0387Y-3.6892
X3.0387Y-3.7892
X3.0387Y-3.8892
X3.0387Y-3.9892
X3.0387Y-4.0892
X3.0387Y-4.1892
X3.0387Y-4.2892
X3.0387Y-4.3892
X3.0387Y-4.4892
X3.0387Y-4.5892
X3.0387Y-4.6892
X3.0387Y-4.7892
X3.2387Y-1.7892
X3.2387Y-1.8892
X3.2387Y-1.9892
X3.2387Y-2.0892
X3.2387Y-2.1892
X3.2387Y-2.2892
X3.2387Y-2.3892
X3.2387Y-2.4892
X3.2387Y-2.5892
X3.2387Y-2.6892
X3.2387Y-2.7892
X3.2387Y-2.8892
X3.2387Y-2.9892
X3.2387Y-3.0892
X3.2387Y-3.1892
X3.2387Y-3.2892
X3.2387Y-3.3892
X3.2387Y-3.4892
X3.2387Y-3.5892
X3.2387Y-3.6892
X3.2387Y-3.7892
X3.2387Y-3.8892
X3.2387Y-3.9892
X3.2387Y-4.0892
X3.2387Y-4.1892
X3.2387Y-4.2892
X3.2387Y-4.3892
X3.2387Y-4.4892
X3.2387Y-4.5892
X3.2387Y-4.6892
X3.2387Y-4.7892
X3.8387Y-1.7892
X3.8387Y-1.8892
X3.8387Y-1.9892
X3.8387Y-2.0892
X3.8387Y-2.1892
X3.8387Y-2.2892
X3.8387Y-2.3892
X3.8387Y-2.4892
X3.8387Y-2.5892
X3.8387Y-2.6892
X3.8387Y-2.7892
X3.8387Y-2.8892
X3.8387Y-2.9892
X3.8387Y-3.0892
X3.8387Y-3.1892
X3.8387Y-3.2892
X3.8387Y-3.3892
X3.8387Y-3.4892
X3.8387Y-3.5892
X3.8387Y-3.6892
X3.8387Y-3.7892
X3.8387Y-3.8892
X3.8387Y-3.9892
X3.8387Y-4.0892
X3.8387Y-4.1892
X3.8387Y-4.2892
X3.8387Y-4.3892
X3.8387Y-4.4892
X3.8387Y-4.5892
X3.8387Y-4.6892
X3.8387Y-4.7892
X4.0387Y-1.7892
X4.0387Y-1.8892
X4.0387Y-1.9892
X4.0387Y-2.0892
X4.0387Y-2.1892
X4.0387Y-2.2892
X4.0387Y-2.3892
X4.0387Y-2.4892
X4.0387Y-2.5892
X4.0387Y-2.6892
X4.0387Y-2.7892
X4.0387Y-2.8892
X4.0387Y-2.9892
X4.0387Y-3.0892
X4.0387Y-3.1892
X4.0387Y-3.2892
X4.0387Y-3.3892
X4.0387Y-3.4892
X4.0387Y-3.5892
X4.0387Y-3.6892
X4.0387Y-3.7892
X4.0387Y-3.8892
X4.0387Y-3.9892
X4.0387Y-4.0892
X4.0387Y-4.1892
X4.0387Y-4.2892
X4.0387Y-4.3892
X4.0387Y-4.4892
X4.0387Y-4.5892
X4.0387Y-4.6892
X4.0387Y-4.7892
X4.6387Y-1.7892
X4.6387Y-1.8892
X4.6387Y-1.9892
X4.6387Y-2.0892
X4.6387Y-2.1892
X4.6387Y-2.2892
X4.6387Y-2.3892
X4.6387Y-2.4892
X4.6387Y-2.5892
X4.6387Y-2.6892
X4.6387Y-2.7892
X4.6387Y-2.8892
X4.6387Y-2.9892
X4.6387Y-3.0892
X4.6387Y-3.1892
X4.6387Y-3.2892
X4.6387Y-3.3892
X4.6387Y-3.4892
X4.6387Y-3.5892
X4.6387Y-3.6892
X4.6387Y-3.7892
X4.6387Y-3.8892
X4.6387Y-3.9892
X4.6387Y-4.0892
X4.6387Y-4.1892
X4.6387Y-4.2892
X4.6387Y-4.3892
X4.6387Y-4.4892
X4.6387Y-4.5892
X4.6387Y-4.6892
X4.6387Y-4.7892
X4.8387Y-1.7892
X4.8387Y-1.8892
X4.8387Y-1.9892
X4.8387Y-2.0892
X4.8387Y-2.1892
X4.8387Y-2.2892
X4.8387Y-2.3892
X4.8387Y-2.4892
X4.8387Y-2.5892
X4.8387Y-2.6892
X4.8387Y-2.7892
X4.8387Y-2.8892
X4.8387Y-2.9892
X4.8387Y-3.0892
X4.8387Y-3.1892
X4.8387Y-3.2892
X4.8387Y-3.3892
X4.8387Y-3.4892
X4.8387Y-3.5892
X4.8387Y-3.6892
X4.8387Y-3.7892
X4.8387Y-3.8892
X4.8387Y-3.9892
X4.8387Y-4.0892
X4.8387Y-4.1892
X4.8387Y-4.2892
X4.8387Y-4.3892
X4.8387Y-4.4892
X4.8387Y-4.5892
X4.8387Y-4.6892
X4.8387Y-4.7892
X5.4387Y-1.7892
X5.4387Y-1.8892
X5.4387Y-1.9892
X5.4387Y-2.0892
X5.4387Y-2.1892
X5.4387Y-2.2892
X5.4387Y-2.3892
X5.4387Y-2.4892
X5.4387Y-2.5892
X5.4387Y-2.6892
X5.4387Y-2.7892
X5.4387Y-2.8892
X5.4387Y-2.9892
X5.4387Y-3.0892
X5.4387Y-3.1892
X5.4387Y-3.2892
X5.4387Y-3.3892
X5.4387Y-3.4892
X5.4387Y-3.5892
X5.4387Y-3.6892
X5.4387Y-3.7892
X5.4387Y-3.8892
X5.4387Y-3.9892
X5.4387Y-4.0892
X5.4387Y-4.1892
X5.4387Y-4.2892
X5.4387Y-4.3892
X5.4387Y-4.4892
X5.4387Y-4.5892
X5.4387Y-4.6892
X5.4387Y-4.7892
X5.6387Y-1.7892
X5.6387Y-1.8892
X5.6387Y-1.9892
X5.6387Y-2.0892
X5.6387Y-2.1892
X5.6387Y-2.2892
X5.6387Y-2.3892
X5.6387Y-2.4892
X5.6387Y-2.5892
X5.6387Y-2.6892
X5.6387Y-2.7892
X5.6387Y-2.8892
X5.6387Y-2.9892
X5.6387Y-3.0892
X5.6387Y-3.1892
X5.6387Y-3.2892
X5.6387Y-3.3892
X5.6387Y-3.4892
X5.6387Y-3.5892
X5.6387Y-3.6892
X5.6387Y-3.7892
X5.6387Y-3.8892
X5.6387Y-3.9892
X5.6387Y-4.0892
X5.6387Y-4.1892
X5.6387Y-4.2892
X5.6387Y-4.3892
X5.6387Y-4.4892
X5.6387Y-4.5892
X5.6387Y-4.6892
X5.6387Y-4.7892
T8
X4.027Y-9.444
X4.032Y-9.701
X4.427Y-9.444
X4.432Y-9.701
X10.653Y-2.421
X10.653Y-2.821
T10
X5.0962Y-9.9684
X5.0962Y-10.185
X5.2616Y-9.9684
X5.2616Y-10.185
X5.4269Y-9.9684
X5.4269Y-10.185
X5.5923Y-9.9684
X5.5923Y-10.185
X5.7576Y-9.9684
X5.7576Y-10.185
X5.923Y-9.9684
X5.923Y-10.185
X6.0883Y-9.9684
X6.0883Y-10.185
X6.2537Y-9.9684
X6.2537Y-10.185
X6.419Y-9.9684
X6.419Y-10.185
X6.5844Y-9.9684
X6.5844Y-10.185
T11
X7.5181Y-0.9055
X7.7838Y-0.8741
X8.0515Y-0.9055
T12
X1.8377Y-1.1871
X1.8377Y-7.2871
X1.8377Y-10.1371
X2.6377Y-1.1871
X2.6377Y-7.2871
X2.6377Y-10.1371
X4.4377Y-1.1871
X4.4377Y-7.2871
X4.4377Y-10.1371
X10.6377Y-2.0871
X10.6377Y-7.2871
X10.6377Y-10.1371
T6
G00X7.055Y-1.1962
M15
G01X7.055Y-1.1451
M16
G05
G00X10.532Y-1.1916
M15
G01X10.532Y-1.1404
M16
G05
T9
G00X7.0137Y-0.9935
M15
G01X7.0963Y-0.9935
M16
G05
G00X10.4907Y-0.9888
M15
G01X10.5733Y-0.9888
M16
G05
M30
