%TF.GenerationSoftware,KiCad,Pcbnew,8.0.6*%
%TF.CreationDate,2025-05-26T10:20:57-05:00*%
%TF.ProjectId,CortexPC,436f7274-6578-4504-932e-6b696361645f,V0.5*%
%TF.SameCoordinates,Original*%
%TF.FileFunction,Soldermask,Bot*%
%TF.FilePolarity,Negative*%
%FSLAX46Y46*%
G04 Gerber Fmt 4.6, Leading zero omitted, Abs format (unit mm)*
G04 Created by KiCad (PCBNEW 8.0.6) date 2025-05-26 10:20:57*
%MOMM*%
%LPD*%
G01*
G04 APERTURE LIST*
G04 Aperture macros list*
%AMRoundRect*
0 Rectangle with rounded corners*
0 $1 Rounding radius*
0 $2 $3 $4 $5 $6 $7 $8 $9 X,Y pos of 4 corners*
0 Add a 4 corners polygon primitive as box body*
4,1,4,$2,$3,$4,$5,$6,$7,$8,$9,$2,$3,0*
0 Add four circle primitives for the rounded corners*
1,1,$1+$1,$2,$3*
1,1,$1+$1,$4,$5*
1,1,$1+$1,$6,$7*
1,1,$1+$1,$8,$9*
0 Add four rect primitives between the rounded corners*
20,1,$1+$1,$2,$3,$4,$5,0*
20,1,$1+$1,$4,$5,$6,$7,0*
20,1,$1+$1,$6,$7,$8,$9,0*
20,1,$1+$1,$8,$9,$2,$3,0*%
G04 Aperture macros list end*
%ADD10C,3.600000*%
%ADD11C,6.400000*%
%ADD12C,1.600000*%
%ADD13O,1.600000X1.600000*%
%ADD14R,2.125980X2.125980*%
%ADD15R,2.400000X1.600000*%
%ADD16O,2.400000X1.600000*%
%ADD17R,1.600000X1.600000*%
%ADD18R,1.700000X1.700000*%
%ADD19O,1.700000X1.700000*%
%ADD20C,1.700000*%
%ADD21R,1.800000X1.800000*%
%ADD22C,1.800000*%
%ADD23C,1.524000*%
%ADD24O,5.004000X2.604000*%
%ADD25O,1.904000X3.604000*%
%ADD26R,2.200000X2.200000*%
%ADD27O,2.200000X2.200000*%
%ADD28R,1.100000X1.800000*%
%ADD29RoundRect,0.275000X-0.275000X-0.625000X0.275000X-0.625000X0.275000X0.625000X-0.275000X0.625000X0*%
%ADD30C,1.500000*%
G04 APERTURE END LIST*
D10*
%TO.C,P18*%
X112718400Y-30152000D03*
D11*
X112718400Y-30152000D03*
%TD*%
D12*
%TO.C,R1*%
X242173800Y-37118000D03*
D13*
X242173800Y-44738000D03*
%TD*%
D14*
%TO.C,P5*%
X129443500Y-253197380D03*
X129443500Y-258699020D03*
X133644660Y-253197380D03*
X133644660Y-258699020D03*
X137843280Y-253197380D03*
X137843280Y-258699020D03*
X142044440Y-253197380D03*
X142044440Y-258699020D03*
X146243060Y-253197380D03*
X146243060Y-258699020D03*
X150444220Y-253197380D03*
X150444220Y-258699020D03*
X154642840Y-253197380D03*
X154642840Y-258699020D03*
X158844000Y-253197380D03*
X158844000Y-258699020D03*
X163042620Y-253197380D03*
X163042620Y-258699020D03*
X167243780Y-253197380D03*
X167243780Y-258699020D03*
%TD*%
D12*
%TO.C,C11*%
X202010000Y-79146400D03*
X207010000Y-79146400D03*
%TD*%
D15*
%TO.C,U7*%
X142976600Y-139750800D03*
D16*
X142976600Y-142290800D03*
X142976600Y-144830800D03*
X142976600Y-147370800D03*
X142976600Y-149910800D03*
X142976600Y-152450800D03*
X142976600Y-154990800D03*
X142976600Y-157530800D03*
X150596600Y-157530800D03*
X150596600Y-154990800D03*
X150596600Y-152450800D03*
X150596600Y-149910800D03*
X150596600Y-147370800D03*
X150596600Y-144830800D03*
X150596600Y-142290800D03*
X150596600Y-139750800D03*
%TD*%
D12*
%TO.C,R7*%
X234508000Y-37118000D03*
D13*
X234508000Y-44738000D03*
%TD*%
D15*
%TO.C,U12*%
X182067200Y-72872600D03*
D16*
X182067200Y-75412600D03*
X182067200Y-77952600D03*
X182067200Y-80492600D03*
X182067200Y-83032600D03*
X182067200Y-85572600D03*
X182067200Y-88112600D03*
X189687200Y-88112600D03*
X189687200Y-85572600D03*
X189687200Y-83032600D03*
X189687200Y-80492600D03*
X189687200Y-77952600D03*
X189687200Y-75412600D03*
X189687200Y-72872600D03*
%TD*%
D17*
%TO.C,C26*%
X232526200Y-121132600D03*
D12*
X235026200Y-121132600D03*
%TD*%
D18*
%TO.C,J17*%
X149580600Y-110693200D03*
D19*
X152120600Y-110693200D03*
X149580600Y-113233200D03*
X152120600Y-113233200D03*
X149580600Y-115773200D03*
X152120600Y-115773200D03*
X149580600Y-118313200D03*
X152120600Y-118313200D03*
X149580600Y-120853200D03*
X152120600Y-120853200D03*
X149580600Y-123393200D03*
X152120600Y-123393200D03*
%TD*%
D12*
%TO.C,C2*%
X208080600Y-43561000D03*
X213080600Y-43561000D03*
%TD*%
%TO.C,C6*%
X190884800Y-149682200D03*
X195884800Y-149682200D03*
%TD*%
%TO.C,C5*%
X233734600Y-200507600D03*
X238734600Y-200507600D03*
%TD*%
D10*
%TO.C,P16*%
X112718400Y-185092000D03*
D11*
X112718400Y-185092000D03*
%TD*%
D12*
%TO.C,R16*%
X118160800Y-239547400D03*
D13*
X125780800Y-239547400D03*
%TD*%
D12*
%TO.C,R6*%
X249839500Y-37118000D03*
D13*
X249839500Y-44738000D03*
%TD*%
D18*
%TO.C,J11*%
X68040000Y-110693200D03*
D19*
X70580000Y-110693200D03*
X68040000Y-113233200D03*
X70580000Y-113233200D03*
X68040000Y-115773200D03*
X70580000Y-115773200D03*
X68040000Y-118313200D03*
X70580000Y-118313200D03*
X68040000Y-120853200D03*
X70580000Y-120853200D03*
X68040000Y-123393200D03*
X70580000Y-123393200D03*
%TD*%
D12*
%TO.C,C27*%
X163605200Y-132664200D03*
X168605200Y-132664200D03*
%TD*%
D15*
%TO.C,U1*%
X118719600Y-141274800D03*
D16*
X118719600Y-143814800D03*
X118719600Y-146354800D03*
X118719600Y-148894800D03*
X118719600Y-151434800D03*
X118719600Y-153974800D03*
X118719600Y-156514800D03*
X126339600Y-156514800D03*
X126339600Y-153974800D03*
X126339600Y-151434800D03*
X126339600Y-148894800D03*
X126339600Y-146354800D03*
X126339600Y-143814800D03*
X126339600Y-141274800D03*
%TD*%
D15*
%TO.C,U23*%
X243382800Y-118821200D03*
D16*
X243382800Y-121361200D03*
X243382800Y-123901200D03*
X243382800Y-126441200D03*
X243382800Y-128981200D03*
X243382800Y-131521200D03*
X243382800Y-134061200D03*
X243382800Y-136601200D03*
X243382800Y-139141200D03*
X243382800Y-141681200D03*
X243382800Y-144221200D03*
X243382800Y-146761200D03*
X243382800Y-149301200D03*
X243382800Y-151841200D03*
X243382800Y-154381200D03*
X243382800Y-156921200D03*
X243382800Y-159461200D03*
X243382800Y-162001200D03*
X243382800Y-164541200D03*
X243382800Y-167081200D03*
X258622800Y-167081200D03*
X258622800Y-164541200D03*
X258622800Y-162001200D03*
X258622800Y-159461200D03*
X258622800Y-156921200D03*
X258622800Y-154381200D03*
X258622800Y-151841200D03*
X258622800Y-149301200D03*
X258622800Y-146761200D03*
X258622800Y-144221200D03*
X258622800Y-141681200D03*
X258622800Y-139141200D03*
X258622800Y-136601200D03*
X258622800Y-134061200D03*
X258622800Y-131521200D03*
X258622800Y-128981200D03*
X258622800Y-126441200D03*
X258622800Y-123901200D03*
X258622800Y-121361200D03*
X258622800Y-118821200D03*
%TD*%
D15*
%TO.C,U22*%
X161036000Y-75107800D03*
D16*
X161036000Y-77647800D03*
X161036000Y-80187800D03*
X161036000Y-82727800D03*
X161036000Y-85267800D03*
X161036000Y-87807800D03*
X161036000Y-90347800D03*
X161036000Y-92887800D03*
X168656000Y-92887800D03*
X168656000Y-90347800D03*
X168656000Y-87807800D03*
X168656000Y-85267800D03*
X168656000Y-82727800D03*
X168656000Y-80187800D03*
X168656000Y-77647800D03*
X168656000Y-75107800D03*
%TD*%
D10*
%TO.C,P13*%
X46678400Y-257482000D03*
D11*
X46678400Y-257482000D03*
%TD*%
D12*
%TO.C,R5*%
X48996600Y-63652400D03*
D13*
X48996600Y-71272400D03*
%TD*%
D12*
%TO.C,C17*%
X166754800Y-204012800D03*
X171754800Y-204012800D03*
%TD*%
D18*
%TO.C,J7*%
X242544600Y-22860000D03*
D19*
X245084600Y-22860000D03*
X247624600Y-22860000D03*
X250164600Y-22860000D03*
X252704600Y-22860000D03*
X255244600Y-22860000D03*
X257784600Y-22860000D03*
%TD*%
D18*
%TO.C,P6*%
X134188200Y-240461800D03*
D19*
X134188200Y-243001800D03*
%TD*%
D12*
%TO.C,C33*%
X117978200Y-226134800D03*
X122978200Y-226134800D03*
%TD*%
D15*
%TO.C,U30*%
X217849800Y-149713200D03*
D16*
X217849800Y-152253200D03*
X217849800Y-154793200D03*
X217849800Y-157333200D03*
X217849800Y-159873200D03*
X217849800Y-162413200D03*
X217849800Y-164953200D03*
X217849800Y-167493200D03*
X217849800Y-170033200D03*
X217849800Y-172573200D03*
X217849800Y-175113200D03*
X217849800Y-177653200D03*
X225469800Y-177653200D03*
X225469800Y-175113200D03*
X225469800Y-172573200D03*
X225469800Y-170033200D03*
X225469800Y-167493200D03*
X225469800Y-164953200D03*
X225469800Y-162413200D03*
X225469800Y-159873200D03*
X225469800Y-157333200D03*
X225469800Y-154793200D03*
X225469800Y-152253200D03*
X225469800Y-149713200D03*
%TD*%
D18*
%TO.C,SW1*%
X250344800Y-242413400D03*
D20*
X256844800Y-242413400D03*
X250344800Y-246913400D03*
X256844800Y-246913400D03*
%TD*%
D12*
%TO.C,C25*%
X157581600Y-172237400D03*
X157581600Y-177237400D03*
%TD*%
%TO.C,C23*%
X175183800Y-173079400D03*
X175183800Y-178079400D03*
%TD*%
D15*
%TO.C,U15*%
X165277800Y-211099400D03*
D16*
X165277800Y-213639400D03*
X165277800Y-216179400D03*
X165277800Y-218719400D03*
X165277800Y-221259400D03*
X165277800Y-223799400D03*
X165277800Y-226339400D03*
X165277800Y-228879400D03*
X172897800Y-228879400D03*
X172897800Y-226339400D03*
X172897800Y-223799400D03*
X172897800Y-221259400D03*
X172897800Y-218719400D03*
X172897800Y-216179400D03*
X172897800Y-213639400D03*
X172897800Y-211099400D03*
%TD*%
D12*
%TO.C,C3*%
X192205600Y-43738800D03*
X197205600Y-43738800D03*
%TD*%
D10*
%TO.C,P2*%
X66998400Y-30152000D03*
D11*
X66998400Y-30152000D03*
%TD*%
D21*
%TO.C,D8*%
X247370600Y-31826200D03*
D22*
X249910600Y-31826200D03*
%TD*%
D12*
%TO.C,R8*%
X236270800Y-224053400D03*
D13*
X236270800Y-216433400D03*
%TD*%
D15*
%TO.C,U5*%
X182067200Y-48234600D03*
D16*
X182067200Y-50774600D03*
X182067200Y-53314600D03*
X182067200Y-55854600D03*
X182067200Y-58394600D03*
X182067200Y-60934600D03*
X182067200Y-63474600D03*
X189687200Y-63474600D03*
X189687200Y-60934600D03*
X189687200Y-58394600D03*
X189687200Y-55854600D03*
X189687200Y-53314600D03*
X189687200Y-50774600D03*
X189687200Y-48234600D03*
%TD*%
D12*
%TO.C,R17*%
X118160800Y-245948200D03*
D13*
X125780800Y-245948200D03*
%TD*%
D18*
%TO.C,J15*%
X109194600Y-110693200D03*
D19*
X111734600Y-110693200D03*
X109194600Y-113233200D03*
X111734600Y-113233200D03*
X109194600Y-115773200D03*
X111734600Y-115773200D03*
X109194600Y-118313200D03*
X111734600Y-118313200D03*
X109194600Y-120853200D03*
X111734600Y-120853200D03*
X109194600Y-123393200D03*
X111734600Y-123393200D03*
%TD*%
D15*
%TO.C,U13*%
X200431400Y-87198200D03*
D16*
X200431400Y-89738200D03*
X200431400Y-92278200D03*
X200431400Y-94818200D03*
X200431400Y-97358200D03*
X200431400Y-99898200D03*
X200431400Y-102438200D03*
X208051400Y-102438200D03*
X208051400Y-99898200D03*
X208051400Y-97358200D03*
X208051400Y-94818200D03*
X208051400Y-92278200D03*
X208051400Y-89738200D03*
X208051400Y-87198200D03*
%TD*%
D21*
%TO.C,D1*%
X239623600Y-31826200D03*
D22*
X242163600Y-31826200D03*
%TD*%
D15*
%TO.C,P1*%
X40284400Y-139623800D03*
D16*
X40284400Y-142163800D03*
X40284400Y-144703800D03*
X40284400Y-147243800D03*
X40284400Y-149783800D03*
X40284400Y-152323800D03*
X40284400Y-154863800D03*
X47904400Y-154863800D03*
X47904400Y-152323800D03*
X47904400Y-149783800D03*
X47904400Y-147243800D03*
X47904400Y-144703800D03*
X47904400Y-142163800D03*
X47904400Y-139623800D03*
%TD*%
D12*
%TO.C,C15*%
X264033000Y-205482200D03*
X264033000Y-200482200D03*
%TD*%
%TO.C,R12*%
X226842300Y-37118000D03*
D13*
X226842300Y-44738000D03*
%TD*%
D15*
%TO.C,U25*%
X143891000Y-172770800D03*
D16*
X143891000Y-175310800D03*
X143891000Y-177850800D03*
X143891000Y-180390800D03*
X143891000Y-182930800D03*
X143891000Y-185470800D03*
X143891000Y-188010800D03*
X143891000Y-190550800D03*
X143891000Y-193090800D03*
X143891000Y-195630800D03*
X151511000Y-195630800D03*
X151511000Y-193090800D03*
X151511000Y-190550800D03*
X151511000Y-188010800D03*
X151511000Y-185470800D03*
X151511000Y-182930800D03*
X151511000Y-180390800D03*
X151511000Y-177850800D03*
X151511000Y-175310800D03*
X151511000Y-172770800D03*
%TD*%
D17*
%TO.C,C28*%
X163950200Y-242512200D03*
D12*
X166450200Y-242512200D03*
%TD*%
D15*
%TO.C,U11*%
X200431400Y-149479000D03*
D16*
X200431400Y-152019000D03*
X200431400Y-154559000D03*
X200431400Y-157099000D03*
X200431400Y-159639000D03*
X200431400Y-162179000D03*
X200431400Y-164719000D03*
X200431400Y-167259000D03*
X200431400Y-169799000D03*
X200431400Y-172339000D03*
X200431400Y-174879000D03*
X200431400Y-177419000D03*
X208051400Y-177419000D03*
X208051400Y-174879000D03*
X208051400Y-172339000D03*
X208051400Y-169799000D03*
X208051400Y-167259000D03*
X208051400Y-164719000D03*
X208051400Y-162179000D03*
X208051400Y-159639000D03*
X208051400Y-157099000D03*
X208051400Y-154559000D03*
X208051400Y-152019000D03*
X208051400Y-149479000D03*
%TD*%
D21*
%TO.C,D6*%
X224129600Y-31826200D03*
D22*
X226669600Y-31826200D03*
%TD*%
D12*
%TO.C,R13*%
X249995400Y-236294800D03*
D13*
X257615400Y-236294800D03*
%TD*%
D18*
%TO.C,J4*%
X216154000Y-54787800D03*
D19*
X216154000Y-57327800D03*
%TD*%
D23*
%TO.C,J18*%
X138143800Y-45446000D03*
X138143800Y-47986000D03*
X138143800Y-50526000D03*
X138143800Y-53066000D03*
X138143800Y-55606000D03*
X138143800Y-58146000D03*
X138143800Y-60686000D03*
X138143800Y-63226000D03*
X138143800Y-65766000D03*
X138143800Y-68306000D03*
X138143800Y-70846000D03*
X138143800Y-73386000D03*
X138143800Y-75926000D03*
X138143800Y-78466000D03*
X138143800Y-81006000D03*
X138143800Y-83546000D03*
X138143800Y-86086000D03*
X138143800Y-88626000D03*
X138143800Y-91166000D03*
X138143800Y-93706000D03*
X138143800Y-96246000D03*
X138143800Y-98786000D03*
X138143800Y-101326000D03*
X138143800Y-103866000D03*
X138143800Y-106406000D03*
X138143800Y-108946000D03*
X138143800Y-111486000D03*
X138143800Y-114026000D03*
X138143800Y-116566000D03*
X138143800Y-119106000D03*
X138143800Y-121646000D03*
X143223800Y-45446000D03*
X143223800Y-47986000D03*
X143223800Y-50526000D03*
X143223800Y-53066000D03*
X143223800Y-55606000D03*
X143223800Y-58146000D03*
X143223800Y-60686000D03*
X143223800Y-63226000D03*
X143223800Y-65766000D03*
X143223800Y-68306000D03*
X143223800Y-70846000D03*
X143223800Y-73386000D03*
X143223800Y-75926000D03*
X143223800Y-78466000D03*
X143223800Y-81006000D03*
X143223800Y-83546000D03*
X143223800Y-86086000D03*
X143223800Y-88626000D03*
X143223800Y-91166000D03*
X143223800Y-93706000D03*
X143223800Y-96246000D03*
X143223800Y-98786000D03*
X143223800Y-101326000D03*
X143223800Y-103866000D03*
X143223800Y-106406000D03*
X143223800Y-108946000D03*
X143223800Y-111486000D03*
X143223800Y-114026000D03*
X143223800Y-116566000D03*
X143223800Y-119106000D03*
X143223800Y-121646000D03*
%TD*%
D12*
%TO.C,R4*%
X236194600Y-205384400D03*
D13*
X236194600Y-213004400D03*
%TD*%
D10*
%TO.C,P14*%
X46678400Y-185092000D03*
D11*
X46678400Y-185092000D03*
%TD*%
D17*
%TO.C,C31*%
X128945000Y-80416400D03*
D12*
X131445000Y-80416400D03*
%TD*%
D17*
%TO.C,C34*%
X145078000Y-241826400D03*
D12*
X147578000Y-241826400D03*
%TD*%
D24*
%TO.C,J9*%
X267512800Y-25116400D03*
D25*
X267512800Y-29616400D03*
%TD*%
D12*
%TO.C,R9*%
X161467800Y-164515800D03*
D13*
X169087800Y-164515800D03*
%TD*%
D15*
%TO.C,U17*%
X182067200Y-154787600D03*
D16*
X182067200Y-157327600D03*
X182067200Y-159867600D03*
X182067200Y-162407600D03*
X182067200Y-164947600D03*
X182067200Y-167487600D03*
X182067200Y-170027600D03*
X182067200Y-172567600D03*
X182067200Y-175107600D03*
X182067200Y-177647600D03*
X189687200Y-177647600D03*
X189687200Y-175107600D03*
X189687200Y-172567600D03*
X189687200Y-170027600D03*
X189687200Y-167487600D03*
X189687200Y-164947600D03*
X189687200Y-162407600D03*
X189687200Y-159867600D03*
X189687200Y-157327600D03*
X189687200Y-154787600D03*
%TD*%
D17*
%TO.C,C30*%
X154472000Y-242468400D03*
D12*
X156972000Y-242468400D03*
%TD*%
D10*
%TO.C,P15*%
X66998400Y-185092000D03*
D11*
X66998400Y-185092000D03*
%TD*%
D18*
%TO.C,JP5*%
X234213400Y-242189000D03*
D19*
X234213400Y-244729000D03*
X234213400Y-247269000D03*
%TD*%
D10*
%TO.C,P12*%
X66998400Y-257482000D03*
D11*
X66998400Y-257482000D03*
%TD*%
D10*
%TO.C,P9*%
X270198400Y-185092000D03*
D11*
X270198400Y-185092000D03*
%TD*%
D18*
%TO.C,J1*%
X267919200Y-80873600D03*
D19*
X270459200Y-80873600D03*
X267919200Y-83413600D03*
X270459200Y-83413600D03*
X267919200Y-85953600D03*
X270459200Y-85953600D03*
X267919200Y-88493600D03*
X270459200Y-88493600D03*
X267919200Y-91033600D03*
X270459200Y-91033600D03*
X267919200Y-93573600D03*
X270459200Y-93573600D03*
X267919200Y-96113600D03*
X270459200Y-96113600D03*
X267919200Y-98653600D03*
X270459200Y-98653600D03*
X267919200Y-101193600D03*
X270459200Y-101193600D03*
X267919200Y-103733600D03*
X270459200Y-103733600D03*
%TD*%
D12*
%TO.C,C4*%
X190834000Y-93268800D03*
X195834000Y-93268800D03*
%TD*%
D17*
%TO.C,C22*%
X88004200Y-80841200D03*
D12*
X90504200Y-80841200D03*
%TD*%
D15*
%TO.C,U9*%
X213995000Y-190804800D03*
D16*
X213995000Y-193344800D03*
X213995000Y-195884800D03*
X213995000Y-198424800D03*
X213995000Y-200964800D03*
X213995000Y-203504800D03*
X213995000Y-206044800D03*
X213995000Y-208584800D03*
X213995000Y-211124800D03*
X213995000Y-213664800D03*
X213995000Y-216204800D03*
X213995000Y-218744800D03*
X213995000Y-221284800D03*
X213995000Y-223824800D03*
X213995000Y-226364800D03*
X213995000Y-228904800D03*
X229235000Y-228904800D03*
X229235000Y-226364800D03*
X229235000Y-223824800D03*
X229235000Y-221284800D03*
X229235000Y-218744800D03*
X229235000Y-216204800D03*
X229235000Y-213664800D03*
X229235000Y-211124800D03*
X229235000Y-208584800D03*
X229235000Y-206044800D03*
X229235000Y-203504800D03*
X229235000Y-200964800D03*
X229235000Y-198424800D03*
X229235000Y-195884800D03*
X229235000Y-193344800D03*
X229235000Y-190804800D03*
%TD*%
D18*
%TO.C,J6*%
X208661000Y-30556200D03*
D19*
X208661000Y-33096200D03*
%TD*%
D12*
%TO.C,C1*%
X119891800Y-134391400D03*
X124891800Y-134391400D03*
%TD*%
D15*
%TO.C,U4*%
X162026600Y-139674600D03*
D16*
X162026600Y-142214600D03*
X162026600Y-144754600D03*
X162026600Y-147294600D03*
X162026600Y-149834600D03*
X162026600Y-152374600D03*
X162026600Y-154914600D03*
X169646600Y-154914600D03*
X169646600Y-152374600D03*
X169646600Y-149834600D03*
X169646600Y-147294600D03*
X169646600Y-144754600D03*
X169646600Y-142214600D03*
X169646600Y-139674600D03*
%TD*%
D12*
%TO.C,C19*%
X204698600Y-195652400D03*
X204698600Y-190652400D03*
%TD*%
D18*
%TO.C,J5*%
X222681800Y-22834600D03*
D19*
X225221800Y-22834600D03*
X227761800Y-22834600D03*
X230301800Y-22834600D03*
X232841800Y-22834600D03*
X235381800Y-22834600D03*
%TD*%
D15*
%TO.C,U29*%
X162991800Y-173278800D03*
D16*
X162991800Y-175818800D03*
X162991800Y-178358800D03*
X162991800Y-180898800D03*
X162991800Y-183438800D03*
X162991800Y-185978800D03*
X162991800Y-188518800D03*
X162991800Y-191058800D03*
X162991800Y-193598800D03*
X162991800Y-196138800D03*
X170611800Y-196138800D03*
X170611800Y-193598800D03*
X170611800Y-191058800D03*
X170611800Y-188518800D03*
X170611800Y-185978800D03*
X170611800Y-183438800D03*
X170611800Y-180898800D03*
X170611800Y-178358800D03*
X170611800Y-175818800D03*
X170611800Y-173278800D03*
%TD*%
D10*
%TO.C,P10*%
X270198400Y-257482000D03*
D11*
X270198400Y-257482000D03*
%TD*%
D12*
%TO.C,R2*%
X181864000Y-40411400D03*
D13*
X189484000Y-40411400D03*
%TD*%
D12*
%TO.C,C14*%
X265226800Y-118393200D03*
X265226800Y-123393200D03*
%TD*%
D18*
%TO.C,SW2*%
X127434200Y-221636200D03*
D20*
X133934200Y-221636200D03*
X127434200Y-226136200D03*
X133934200Y-226136200D03*
%TD*%
D26*
%TO.C,D10*%
X102412800Y-246405400D03*
D27*
X112572800Y-246405400D03*
%TD*%
D12*
%TO.C,R3*%
X219176600Y-44738000D03*
D13*
X219176600Y-37118000D03*
%TD*%
D15*
%TO.C,U3*%
X243078000Y-180187600D03*
D16*
X243078000Y-182727600D03*
X243078000Y-185267600D03*
X243078000Y-187807600D03*
X243078000Y-190347600D03*
X243078000Y-192887600D03*
X243078000Y-195427600D03*
X243078000Y-197967600D03*
X243078000Y-200507600D03*
X243078000Y-203047600D03*
X243078000Y-205587600D03*
X243078000Y-208127600D03*
X243078000Y-210667600D03*
X243078000Y-213207600D03*
X243078000Y-215747600D03*
X243078000Y-218287600D03*
X243078000Y-220827600D03*
X243078000Y-223367600D03*
X243078000Y-225907600D03*
X243078000Y-228447600D03*
X258318000Y-228447600D03*
X258318000Y-225907600D03*
X258318000Y-223367600D03*
X258318000Y-220827600D03*
X258318000Y-218287600D03*
X258318000Y-215747600D03*
X258318000Y-213207600D03*
X258318000Y-210667600D03*
X258318000Y-208127600D03*
X258318000Y-205587600D03*
X258318000Y-203047600D03*
X258318000Y-200507600D03*
X258318000Y-197967600D03*
X258318000Y-195427600D03*
X258318000Y-192887600D03*
X258318000Y-190347600D03*
X258318000Y-187807600D03*
X258318000Y-185267600D03*
X258318000Y-182727600D03*
X258318000Y-180187600D03*
%TD*%
D12*
%TO.C,C21*%
X157556200Y-205921600D03*
X157556200Y-210921600D03*
%TD*%
D23*
%TO.C,J14*%
X77183800Y-45446000D03*
X77183800Y-47986000D03*
X77183800Y-50526000D03*
X77183800Y-53066000D03*
X77183800Y-55606000D03*
X77183800Y-58146000D03*
X77183800Y-60686000D03*
X77183800Y-63226000D03*
X77183800Y-65766000D03*
X77183800Y-68306000D03*
X77183800Y-70846000D03*
X77183800Y-73386000D03*
X77183800Y-75926000D03*
X77183800Y-78466000D03*
X77183800Y-81006000D03*
X77183800Y-83546000D03*
X77183800Y-86086000D03*
X77183800Y-88626000D03*
X77183800Y-91166000D03*
X77183800Y-93706000D03*
X77183800Y-96246000D03*
X77183800Y-98786000D03*
X77183800Y-101326000D03*
X77183800Y-103866000D03*
X77183800Y-106406000D03*
X77183800Y-108946000D03*
X77183800Y-111486000D03*
X77183800Y-114026000D03*
X77183800Y-116566000D03*
X77183800Y-119106000D03*
X77183800Y-121646000D03*
X82263800Y-45446000D03*
X82263800Y-47986000D03*
X82263800Y-50526000D03*
X82263800Y-53066000D03*
X82263800Y-55606000D03*
X82263800Y-58146000D03*
X82263800Y-60686000D03*
X82263800Y-63226000D03*
X82263800Y-65766000D03*
X82263800Y-68306000D03*
X82263800Y-70846000D03*
X82263800Y-73386000D03*
X82263800Y-75926000D03*
X82263800Y-78466000D03*
X82263800Y-81006000D03*
X82263800Y-83546000D03*
X82263800Y-86086000D03*
X82263800Y-88626000D03*
X82263800Y-91166000D03*
X82263800Y-93706000D03*
X82263800Y-96246000D03*
X82263800Y-98786000D03*
X82263800Y-101326000D03*
X82263800Y-103866000D03*
X82263800Y-106406000D03*
X82263800Y-108946000D03*
X82263800Y-111486000D03*
X82263800Y-114026000D03*
X82263800Y-116566000D03*
X82263800Y-119106000D03*
X82263800Y-121646000D03*
%TD*%
D28*
%TO.C,U8*%
X241096800Y-245586200D03*
D29*
X242366800Y-243516200D03*
X243636800Y-245586200D03*
%TD*%
D12*
%TO.C,R14*%
X236548800Y-235678000D03*
D13*
X236548800Y-228058000D03*
%TD*%
D21*
%TO.C,D3*%
X231876600Y-31826200D03*
D22*
X234416600Y-31826200D03*
%TD*%
D17*
%TO.C,C20*%
X67527800Y-80848200D03*
D12*
X70027800Y-80848200D03*
%TD*%
D18*
%TO.C,J8*%
X129108200Y-110693200D03*
D19*
X131648200Y-110693200D03*
X129108200Y-113233200D03*
X131648200Y-113233200D03*
X129108200Y-115773200D03*
X131648200Y-115773200D03*
X129108200Y-118313200D03*
X131648200Y-118313200D03*
X129108200Y-120853200D03*
X131648200Y-120853200D03*
X129108200Y-123393200D03*
X131648200Y-123393200D03*
%TD*%
D12*
%TO.C,C32*%
X41355000Y-132816600D03*
X46355000Y-132816600D03*
%TD*%
D15*
%TO.C,U6*%
X217849800Y-119563400D03*
D16*
X217849800Y-122103400D03*
X217849800Y-124643400D03*
X217849800Y-127183400D03*
X217849800Y-129723400D03*
X217849800Y-132263400D03*
X217849800Y-134803400D03*
X217849800Y-137343400D03*
X225469800Y-137343400D03*
X225469800Y-134803400D03*
X225469800Y-132263400D03*
X225469800Y-129723400D03*
X225469800Y-127183400D03*
X225469800Y-124643400D03*
X225469800Y-122103400D03*
X225469800Y-119563400D03*
%TD*%
D10*
%TO.C,P17*%
X270198400Y-53012000D03*
D11*
X270198400Y-53012000D03*
%TD*%
D12*
%TO.C,C9*%
X231800400Y-149660600D03*
X231800400Y-154660600D03*
%TD*%
D18*
%TO.C,JP4*%
X264490200Y-232151000D03*
D19*
X264490200Y-234691000D03*
%TD*%
D26*
%TO.C,D11*%
X102285800Y-239877600D03*
D27*
X112445800Y-239877600D03*
%TD*%
D15*
%TO.C,U18*%
X181991000Y-195757800D03*
D16*
X181991000Y-198297800D03*
X181991000Y-200837800D03*
X181991000Y-203377800D03*
X181991000Y-205917800D03*
X181991000Y-208457800D03*
X181991000Y-210997800D03*
X181991000Y-213537800D03*
X181991000Y-216077800D03*
X181991000Y-218617800D03*
X181991000Y-221157800D03*
X181991000Y-223697800D03*
X181991000Y-226237800D03*
X181991000Y-228777800D03*
X197231000Y-228777800D03*
X197231000Y-226237800D03*
X197231000Y-223697800D03*
X197231000Y-221157800D03*
X197231000Y-218617800D03*
X197231000Y-216077800D03*
X197231000Y-213537800D03*
X197231000Y-210997800D03*
X197231000Y-208457800D03*
X197231000Y-205917800D03*
X197231000Y-203377800D03*
X197231000Y-200837800D03*
X197231000Y-198297800D03*
X197231000Y-195757800D03*
%TD*%
D15*
%TO.C,U28*%
X200431400Y-112852200D03*
D16*
X200431400Y-115392200D03*
X200431400Y-117932200D03*
X200431400Y-120472200D03*
X200431400Y-123012200D03*
X200431400Y-125552200D03*
X200431400Y-128092200D03*
X200431400Y-130632200D03*
X200431400Y-133172200D03*
X200431400Y-135712200D03*
X208051400Y-135712200D03*
X208051400Y-133172200D03*
X208051400Y-130632200D03*
X208051400Y-128092200D03*
X208051400Y-125552200D03*
X208051400Y-123012200D03*
X208051400Y-120472200D03*
X208051400Y-117932200D03*
X208051400Y-115392200D03*
X208051400Y-112852200D03*
%TD*%
D18*
%TO.C,JP1*%
X264160000Y-243428600D03*
D19*
X264160000Y-245968600D03*
%TD*%
D15*
%TO.C,U26*%
X127025400Y-181610000D03*
D16*
X127025400Y-184150000D03*
X127025400Y-186690000D03*
X127025400Y-189230000D03*
X127025400Y-191770000D03*
X127025400Y-194310000D03*
X127025400Y-196850000D03*
X134645400Y-196850000D03*
X134645400Y-194310000D03*
X134645400Y-191770000D03*
X134645400Y-189230000D03*
X134645400Y-186690000D03*
X134645400Y-184150000D03*
X134645400Y-181610000D03*
%TD*%
D12*
%TO.C,C7*%
X224862400Y-111709200D03*
X219862400Y-111709200D03*
%TD*%
%TO.C,C40*%
X233709200Y-174802800D03*
X238709200Y-174802800D03*
%TD*%
D10*
%TO.C,P7*%
X46678400Y-30152000D03*
D11*
X46678400Y-30152000D03*
%TD*%
D23*
%TO.C,J3*%
X36543800Y-45446000D03*
X36543800Y-47986000D03*
X36543800Y-50526000D03*
X36543800Y-53066000D03*
X36543800Y-55606000D03*
X36543800Y-58146000D03*
X36543800Y-60686000D03*
X36543800Y-63226000D03*
X36543800Y-65766000D03*
X36543800Y-68306000D03*
X36543800Y-70846000D03*
X36543800Y-73386000D03*
X36543800Y-75926000D03*
X36543800Y-78466000D03*
X36543800Y-81006000D03*
X36543800Y-83546000D03*
X36543800Y-86086000D03*
X36543800Y-88626000D03*
X36543800Y-91166000D03*
X36543800Y-93706000D03*
X36543800Y-96246000D03*
X36543800Y-98786000D03*
X36543800Y-101326000D03*
X36543800Y-103866000D03*
X36543800Y-106406000D03*
X36543800Y-108946000D03*
X36543800Y-111486000D03*
X36543800Y-114026000D03*
X36543800Y-116566000D03*
X36543800Y-119106000D03*
X36543800Y-121646000D03*
X41623800Y-45446000D03*
X41623800Y-47986000D03*
X41623800Y-50526000D03*
X41623800Y-53066000D03*
X41623800Y-55606000D03*
X41623800Y-58146000D03*
X41623800Y-60686000D03*
X41623800Y-63226000D03*
X41623800Y-65766000D03*
X41623800Y-68306000D03*
X41623800Y-70846000D03*
X41623800Y-73386000D03*
X41623800Y-75926000D03*
X41623800Y-78466000D03*
X41623800Y-81006000D03*
X41623800Y-83546000D03*
X41623800Y-86086000D03*
X41623800Y-88626000D03*
X41623800Y-91166000D03*
X41623800Y-93706000D03*
X41623800Y-96246000D03*
X41623800Y-98786000D03*
X41623800Y-101326000D03*
X41623800Y-103866000D03*
X41623800Y-106406000D03*
X41623800Y-108946000D03*
X41623800Y-111486000D03*
X41623800Y-114026000D03*
X41623800Y-116566000D03*
X41623800Y-119106000D03*
X41623800Y-121646000D03*
%TD*%
%TO.C,J10*%
X117823800Y-45446000D03*
X117823800Y-47986000D03*
X117823800Y-50526000D03*
X117823800Y-53066000D03*
X117823800Y-55606000D03*
X117823800Y-58146000D03*
X117823800Y-60686000D03*
X117823800Y-63226000D03*
X117823800Y-65766000D03*
X117823800Y-68306000D03*
X117823800Y-70846000D03*
X117823800Y-73386000D03*
X117823800Y-75926000D03*
X117823800Y-78466000D03*
X117823800Y-81006000D03*
X117823800Y-83546000D03*
X117823800Y-86086000D03*
X117823800Y-88626000D03*
X117823800Y-91166000D03*
X117823800Y-93706000D03*
X117823800Y-96246000D03*
X117823800Y-98786000D03*
X117823800Y-101326000D03*
X117823800Y-103866000D03*
X117823800Y-106406000D03*
X117823800Y-108946000D03*
X117823800Y-111486000D03*
X117823800Y-114026000D03*
X117823800Y-116566000D03*
X117823800Y-119106000D03*
X117823800Y-121646000D03*
X122903800Y-45446000D03*
X122903800Y-47986000D03*
X122903800Y-50526000D03*
X122903800Y-53066000D03*
X122903800Y-55606000D03*
X122903800Y-58146000D03*
X122903800Y-60686000D03*
X122903800Y-63226000D03*
X122903800Y-65766000D03*
X122903800Y-68306000D03*
X122903800Y-70846000D03*
X122903800Y-73386000D03*
X122903800Y-75926000D03*
X122903800Y-78466000D03*
X122903800Y-81006000D03*
X122903800Y-83546000D03*
X122903800Y-86086000D03*
X122903800Y-88626000D03*
X122903800Y-91166000D03*
X122903800Y-93706000D03*
X122903800Y-96246000D03*
X122903800Y-98786000D03*
X122903800Y-101326000D03*
X122903800Y-103866000D03*
X122903800Y-106406000D03*
X122903800Y-108946000D03*
X122903800Y-111486000D03*
X122903800Y-114026000D03*
X122903800Y-116566000D03*
X122903800Y-119106000D03*
X122903800Y-121646000D03*
%TD*%
D21*
%TO.C,D9*%
X255117600Y-31826200D03*
D22*
X257657600Y-31826200D03*
%TD*%
D12*
%TO.C,C41*%
X233277400Y-193471800D03*
X238277400Y-193471800D03*
%TD*%
%TO.C,R11*%
X257505200Y-37118000D03*
D13*
X257505200Y-44738000D03*
%TD*%
D12*
%TO.C,C35*%
X153242000Y-164515800D03*
X158242000Y-164515800D03*
%TD*%
%TO.C,C13*%
X161014400Y-41427400D03*
X166014400Y-41427400D03*
%TD*%
%TO.C,R10*%
X142214600Y-164515800D03*
D13*
X149834600Y-164515800D03*
%TD*%
D12*
%TO.C,C29*%
X128299200Y-174371000D03*
X133299200Y-174371000D03*
%TD*%
D18*
%TO.C,J13*%
X88696800Y-110693200D03*
D19*
X91236800Y-110693200D03*
X88696800Y-113233200D03*
X91236800Y-113233200D03*
X88696800Y-115773200D03*
X91236800Y-115773200D03*
X88696800Y-118313200D03*
X91236800Y-118313200D03*
X88696800Y-120853200D03*
X91236800Y-120853200D03*
X88696800Y-123393200D03*
X91236800Y-123393200D03*
%TD*%
D15*
%TO.C,U21*%
X182067200Y-98679000D03*
D16*
X182067200Y-101219000D03*
X182067200Y-103759000D03*
X182067200Y-106299000D03*
X182067200Y-108839000D03*
X182067200Y-111379000D03*
X182067200Y-113919000D03*
X182067200Y-116459000D03*
X182067200Y-118999000D03*
X189687200Y-118999000D03*
X189687200Y-116459000D03*
X189687200Y-113919000D03*
X189687200Y-111379000D03*
X189687200Y-108839000D03*
X189687200Y-106299000D03*
X189687200Y-103759000D03*
X189687200Y-101219000D03*
X189687200Y-98679000D03*
%TD*%
D15*
%TO.C,U31*%
X143687800Y-206349600D03*
D16*
X143687800Y-208889600D03*
X143687800Y-211429600D03*
X143687800Y-213969600D03*
X143687800Y-216509600D03*
X143687800Y-219049600D03*
X143687800Y-221589600D03*
X143687800Y-224129600D03*
X143687800Y-226669600D03*
X143687800Y-229209600D03*
X151307800Y-229209600D03*
X151307800Y-226669600D03*
X151307800Y-224129600D03*
X151307800Y-221589600D03*
X151307800Y-219049600D03*
X151307800Y-216509600D03*
X151307800Y-213969600D03*
X151307800Y-211429600D03*
X151307800Y-208889600D03*
X151307800Y-206349600D03*
%TD*%
D15*
%TO.C,U10*%
X232435400Y-55753000D03*
D16*
X232435400Y-58293000D03*
X232435400Y-60833000D03*
X232435400Y-63373000D03*
X232435400Y-65913000D03*
X232435400Y-68453000D03*
X232435400Y-70993000D03*
X232435400Y-73533000D03*
X232435400Y-76073000D03*
X232435400Y-78613000D03*
X232435400Y-81153000D03*
X232435400Y-83693000D03*
X232435400Y-86233000D03*
X232435400Y-88773000D03*
X232435400Y-91313000D03*
X232435400Y-93853000D03*
X232435400Y-96393000D03*
X232435400Y-98933000D03*
X232435400Y-101473000D03*
X232435400Y-104013000D03*
X247675400Y-104013000D03*
X247675400Y-101473000D03*
X247675400Y-98933000D03*
X247675400Y-96393000D03*
X247675400Y-93853000D03*
X247675400Y-91313000D03*
X247675400Y-88773000D03*
X247675400Y-86233000D03*
X247675400Y-83693000D03*
X247675400Y-81153000D03*
X247675400Y-78613000D03*
X247675400Y-76073000D03*
X247675400Y-73533000D03*
X247675400Y-70993000D03*
X247675400Y-68453000D03*
X247675400Y-65913000D03*
X247675400Y-63373000D03*
X247675400Y-60833000D03*
X247675400Y-58293000D03*
X247675400Y-55753000D03*
%TD*%
D12*
%TO.C,C8*%
X144352000Y-132511800D03*
X149352000Y-132511800D03*
%TD*%
D17*
%TO.C,C18*%
X47745200Y-80841200D03*
D12*
X50245200Y-80841200D03*
%TD*%
D15*
%TO.C,U2*%
X159969200Y-48971200D03*
D16*
X159969200Y-51511200D03*
X159969200Y-54051200D03*
X159969200Y-56591200D03*
X159969200Y-59131200D03*
X159969200Y-61671200D03*
X159969200Y-64211200D03*
X167589200Y-64211200D03*
X167589200Y-61671200D03*
X167589200Y-59131200D03*
X167589200Y-56591200D03*
X167589200Y-54051200D03*
X167589200Y-51511200D03*
X167589200Y-48971200D03*
%TD*%
D18*
%TO.C,J2*%
X47980600Y-110693200D03*
D19*
X50520600Y-110693200D03*
X47980600Y-113233200D03*
X50520600Y-113233200D03*
X47980600Y-115773200D03*
X50520600Y-115773200D03*
X47980600Y-118313200D03*
X50520600Y-118313200D03*
X47980600Y-120853200D03*
X50520600Y-120853200D03*
X47980600Y-123393200D03*
X50520600Y-123393200D03*
%TD*%
D12*
%TO.C,C16*%
X213211400Y-184734200D03*
X218211400Y-184734200D03*
%TD*%
%TO.C,C12*%
X171301400Y-69926200D03*
X176301400Y-69926200D03*
%TD*%
D23*
%TO.C,J16*%
X97503800Y-45446000D03*
X97503800Y-47986000D03*
X97503800Y-50526000D03*
X97503800Y-53066000D03*
X97503800Y-55606000D03*
X97503800Y-58146000D03*
X97503800Y-60686000D03*
X97503800Y-63226000D03*
X97503800Y-65766000D03*
X97503800Y-68306000D03*
X97503800Y-70846000D03*
X97503800Y-73386000D03*
X97503800Y-75926000D03*
X97503800Y-78466000D03*
X97503800Y-81006000D03*
X97503800Y-83546000D03*
X97503800Y-86086000D03*
X97503800Y-88626000D03*
X97503800Y-91166000D03*
X97503800Y-93706000D03*
X97503800Y-96246000D03*
X97503800Y-98786000D03*
X97503800Y-101326000D03*
X97503800Y-103866000D03*
X97503800Y-106406000D03*
X97503800Y-108946000D03*
X97503800Y-111486000D03*
X97503800Y-114026000D03*
X97503800Y-116566000D03*
X97503800Y-119106000D03*
X97503800Y-121646000D03*
X102583800Y-45446000D03*
X102583800Y-47986000D03*
X102583800Y-50526000D03*
X102583800Y-53066000D03*
X102583800Y-55606000D03*
X102583800Y-58146000D03*
X102583800Y-60686000D03*
X102583800Y-63226000D03*
X102583800Y-65766000D03*
X102583800Y-68306000D03*
X102583800Y-70846000D03*
X102583800Y-73386000D03*
X102583800Y-75926000D03*
X102583800Y-78466000D03*
X102583800Y-81006000D03*
X102583800Y-83546000D03*
X102583800Y-86086000D03*
X102583800Y-88626000D03*
X102583800Y-91166000D03*
X102583800Y-93706000D03*
X102583800Y-96246000D03*
X102583800Y-98786000D03*
X102583800Y-101326000D03*
X102583800Y-103866000D03*
X102583800Y-106406000D03*
X102583800Y-108946000D03*
X102583800Y-111486000D03*
X102583800Y-114026000D03*
X102583800Y-116566000D03*
X102583800Y-119106000D03*
X102583800Y-121646000D03*
%TD*%
D12*
%TO.C,C10*%
X201806800Y-143002000D03*
X206806800Y-143002000D03*
%TD*%
D15*
%TO.C,U14*%
X200431400Y-48539400D03*
D16*
X200431400Y-51079400D03*
X200431400Y-53619400D03*
X200431400Y-56159400D03*
X200431400Y-58699400D03*
X200431400Y-61239400D03*
X200431400Y-63779400D03*
X200431400Y-66319400D03*
X200431400Y-68859400D03*
X200431400Y-71399400D03*
X208051400Y-71399400D03*
X208051400Y-68859400D03*
X208051400Y-66319400D03*
X208051400Y-63779400D03*
X208051400Y-61239400D03*
X208051400Y-58699400D03*
X208051400Y-56159400D03*
X208051400Y-53619400D03*
X208051400Y-51079400D03*
X208051400Y-48539400D03*
%TD*%
D30*
%TO.C,Y1*%
X235889800Y-186540800D03*
X235889800Y-181660800D03*
%TD*%
D15*
%TO.C,U27*%
X182067200Y-129235200D03*
D16*
X182067200Y-131775200D03*
X182067200Y-134315200D03*
X182067200Y-136855200D03*
X182067200Y-139395200D03*
X182067200Y-141935200D03*
X182067200Y-144475200D03*
X189687200Y-144475200D03*
X189687200Y-141935200D03*
X189687200Y-139395200D03*
X189687200Y-136855200D03*
X189687200Y-134315200D03*
X189687200Y-131775200D03*
X189687200Y-129235200D03*
%TD*%
D18*
%TO.C,P4*%
X176580800Y-245948200D03*
D19*
X176580800Y-243408200D03*
X179120800Y-245948200D03*
X179120800Y-243408200D03*
X181660800Y-245948200D03*
X181660800Y-243408200D03*
X184200800Y-245948200D03*
X184200800Y-243408200D03*
X186740800Y-245948200D03*
X186740800Y-243408200D03*
X189280800Y-245948200D03*
X189280800Y-243408200D03*
X191820800Y-245948200D03*
X191820800Y-243408200D03*
X194360800Y-245948200D03*
X194360800Y-243408200D03*
X196900800Y-245948200D03*
X196900800Y-243408200D03*
X199440800Y-245948200D03*
X199440800Y-243408200D03*
X201980800Y-245948200D03*
X201980800Y-243408200D03*
X204520800Y-245948200D03*
X204520800Y-243408200D03*
X207060800Y-245948200D03*
X207060800Y-243408200D03*
X209600800Y-245948200D03*
X209600800Y-243408200D03*
X212140800Y-245948200D03*
X212140800Y-243408200D03*
X214680800Y-245948200D03*
X214680800Y-243408200D03*
X217220800Y-245948200D03*
X217220800Y-243408200D03*
X219760800Y-245948200D03*
X219760800Y-243408200D03*
X222300800Y-245948200D03*
X222300800Y-243408200D03*
X224840800Y-245948200D03*
X224840800Y-243408200D03*
%TD*%
D21*
%TO.C,D2*%
X216382600Y-31826200D03*
D22*
X218922600Y-31826200D03*
%TD*%
D12*
%TO.C,R18*%
X118160800Y-233324400D03*
D13*
X125780800Y-233324400D03*
%TD*%
D17*
%TO.C,C24*%
X108726600Y-81076800D03*
D12*
X111226600Y-81076800D03*
%TD*%
D23*
%TO.C,J12*%
X56863800Y-45446000D03*
X56863800Y-47986000D03*
X56863800Y-50526000D03*
X56863800Y-53066000D03*
X56863800Y-55606000D03*
X56863800Y-58146000D03*
X56863800Y-60686000D03*
X56863800Y-63226000D03*
X56863800Y-65766000D03*
X56863800Y-68306000D03*
X56863800Y-70846000D03*
X56863800Y-73386000D03*
X56863800Y-75926000D03*
X56863800Y-78466000D03*
X56863800Y-81006000D03*
X56863800Y-83546000D03*
X56863800Y-86086000D03*
X56863800Y-88626000D03*
X56863800Y-91166000D03*
X56863800Y-93706000D03*
X56863800Y-96246000D03*
X56863800Y-98786000D03*
X56863800Y-101326000D03*
X56863800Y-103866000D03*
X56863800Y-106406000D03*
X56863800Y-108946000D03*
X56863800Y-111486000D03*
X56863800Y-114026000D03*
X56863800Y-116566000D03*
X56863800Y-119106000D03*
X56863800Y-121646000D03*
X61943800Y-45446000D03*
X61943800Y-47986000D03*
X61943800Y-50526000D03*
X61943800Y-53066000D03*
X61943800Y-55606000D03*
X61943800Y-58146000D03*
X61943800Y-60686000D03*
X61943800Y-63226000D03*
X61943800Y-65766000D03*
X61943800Y-68306000D03*
X61943800Y-70846000D03*
X61943800Y-73386000D03*
X61943800Y-75926000D03*
X61943800Y-78466000D03*
X61943800Y-81006000D03*
X61943800Y-83546000D03*
X61943800Y-86086000D03*
X61943800Y-88626000D03*
X61943800Y-91166000D03*
X61943800Y-93706000D03*
X61943800Y-96246000D03*
X61943800Y-98786000D03*
X61943800Y-101326000D03*
X61943800Y-103866000D03*
X61943800Y-106406000D03*
X61943800Y-108946000D03*
X61943800Y-111486000D03*
X61943800Y-114026000D03*
X61943800Y-116566000D03*
X61943800Y-119106000D03*
X61943800Y-121646000D03*
%TD*%
D18*
%TO.C,J19*%
X189839600Y-22860000D03*
D19*
X192379600Y-22860000D03*
X194919600Y-22860000D03*
X197459600Y-22860000D03*
X199999600Y-22860000D03*
X202539600Y-22860000D03*
X205079600Y-22860000D03*
X207619600Y-22860000D03*
X210159600Y-22860000D03*
X212699600Y-22860000D03*
X215239600Y-22860000D03*
%TD*%
D26*
%TO.C,D5*%
X270586200Y-71653400D03*
D27*
X270586200Y-61493400D03*
%TD*%
D10*
%TO.C,P11*%
X112718400Y-257482000D03*
D11*
X112718400Y-257482000D03*
%TD*%
M02*
