M48
; DRILL file {KiCad 8.0.6} date 2025-06-15T09:28:34-0500
; FORMAT={-:-/ absolute / inch / decimal}
; #@! TF.CreationDate,2025-06-15T09:28:34-05:00
; #@! TF.GenerationSoftware,Kicad,Pcbnew,8.0.6
; #@! TF.FileFunction,Plated,1,2,PTH
FMAT,2
INCH
; #@! TA.AperFunction,Plated,PTH,ViaDrill
T1C0.0157
; #@! TA.AperFunction,Plated,PTH,ComponentDrill
T2C0.0295
; #@! TA.AperFunction,Plated,PTH,ComponentDrill
T3C0.0315
; #@! TA.AperFunction,Plated,PTH,ComponentDrill
T4C0.0354
; #@! TA.AperFunction,Plated,PTH,ComponentDrill
T5C0.0354
; #@! TA.AperFunction,Plated,PTH,ComponentDrill
T6C0.0394
; #@! TA.AperFunction,Plated,PTH,ComponentDrill
T7C0.0400
; #@! TA.AperFunction,Plated,PTH,ComponentDrill
T8C0.0433
; #@! TA.AperFunction,Plated,PTH,ComponentDrill
T9C0.0512
; #@! TA.AperFunction,Plated,PTH,ComponentDrill
T10C0.0669
; #@! TA.AperFunction,Plated,PTH,ComponentDrill
T11C0.0905
; #@! TA.AperFunction,Plated,PTH,ComponentDrill
T12C0.1260
%
G90
G05
T1
X1.5418Y-4.0772
X1.6489Y-1.6194
X1.7118Y-1.706
X1.7815Y-1.4733
X1.8919Y-4.0645
X1.9889Y-2.3892
X2.1334Y-2.5892
X2.3227Y-4.9097
X2.3469Y-1.5766
X2.4612Y-1.6753
X2.5689Y-4.3757
X2.7915Y-7.2284
X2.7949Y-2.3601
X2.8526Y-5.4415
X2.8556Y-4.848
X2.8579Y-5.1492
X3.069Y-4.8678
X3.0863Y-5.4415
X3.1586Y-4.9434
X3.1637Y-3.8892
X3.1687Y-2.5892
X3.325Y-1.8099
X3.3725Y-1.7486
X3.3792Y-1.651
X3.3949Y-2.5909
X3.4154Y-7.1105
X3.5313Y-6.6305
X3.5658Y-7.3655
X3.5856Y-6.093
X3.6373Y-6.4525
X3.6572Y-3.9788
X3.6957Y-7.979
X3.8381Y-6.1019
X3.8871Y-7.7893
X3.8981Y-1.768
X3.9251Y-8.0629
X3.9472Y-1.7244
X3.9499Y-7.5616
X3.9653Y-7.0035
X3.9715Y-7.0942
X3.9973Y-8.4732
X4.0156Y-7.0084
X4.0596Y-6.2097
X4.0851Y-8.4234
X4.1098Y-2.3549
X4.1567Y-6.9993
X4.1994Y-6.9862
X4.2164Y-4.6747
X4.2444Y-8.5108
X4.2665Y-5.992
X4.3189Y-1.7456
X4.3361Y-8.5783
X4.3669Y-1.874
X4.4165Y-1.9239
X4.5652Y-4.661
X4.5797Y-8.5925
X4.6436Y-7.7278
X4.7608Y-4.9403
X4.9116Y-8.455
X4.9215Y-3.166
X4.9687Y-1.6734
X4.969Y-4.2343
X4.982Y-2.4629
X5.2554Y-6.7814
X5.2811Y-1.8764
X5.2819Y-6.3021
X5.2933Y-5.6188
X5.34Y-6.952
X5.3833Y-5.3891
X5.4215Y-5.0156
X5.5015Y-4.2343
X5.5314Y-3.9062
X5.5362Y-1.7983
X5.5736Y-7.4191
X5.6448Y-4.9958
X5.7137Y-6.4724
X5.7143Y-5.062
X5.8144Y-7.0499
X5.88Y-5.3279
X5.9244Y-6.6823
X5.9703Y-3.8563
X5.9825Y-5.4107
X6.0106Y-3.8602
X6.1341Y-7.9876
X6.1419Y-10.302
X6.1521Y-8.0275
X6.1588Y-7.2155
X6.1625Y-5.7591
X6.1691Y-3.6605
X6.1691Y-3.3169
X6.1866Y-3.1656
X6.2117Y-6.7182
X6.2269Y-3.7604
X6.2565Y-8.4054
X6.2746Y-8.0844
X6.2812Y-8.4391
X6.3089Y-5.1368
X6.3204Y-3.7663
X6.3226Y-7.109
X6.3528Y-3.8216
X6.3537Y-3.8867
X6.4408Y-6.1379
X6.4585Y-6.1773
X6.5372Y-7.4004
X6.5436Y-7.5767
X6.5888Y-4.1393
X6.6547Y-6.2697
X6.6987Y-7.7989
X6.755Y-4.7721
X6.7695Y-6.3441
X6.786Y-5.6136
X6.786Y-6.0734
X6.8495Y-5.2851
X6.8881Y-5.2218
X6.8896Y-8.7666
X6.9524Y-8.8079
X6.9818Y-9.1909
X7.0054Y-7.105
X7.0062Y-8.7109
X7.0354Y-7.3798
X7.0369Y-7.833
X7.0404Y-7.7801
X7.0472Y-4.7626
X7.0659Y-8.5918
X7.0784Y-8.6835
X7.0843Y-8.3658
X7.0885Y-2.8743
X7.0928Y-5.996
X7.1032Y-7.8524
X7.2147Y-5.8633
X7.2269Y-5.9837
X7.228Y-4.1445
X7.2537Y-7.3382
X7.2822Y-9.5089
X7.2861Y-2.2025
X7.2864Y-6.6845
X7.2964Y-8.6901
X7.2986Y-1.3506
X7.3014Y-5.1824
X7.3022Y-7.6919
X7.3058Y-5.9048
X7.3117Y-6.8253
X7.3331Y-5.7427
X7.3712Y-6.6306
X7.3961Y-4.3671
X7.5075Y-7.6952
X7.5432Y-4.6181
X7.5962Y-4.8876
X7.6122Y-4.7052
X7.6141Y-4.756
X7.6147Y-4.9812
X7.6846Y-8.9579
X7.6898Y-6.6032
X7.694Y-1.2902
X7.7642Y-3.604
X7.7724Y-5.9113
X7.8245Y-2.1394
X7.8282Y-6.1281
X7.9011Y-2.2151
X7.9318Y-2.699
X7.9756Y-7.6634
X8.0273Y-8.7171
X8.0412Y-6.7775
X8.0667Y-8.4825
X8.0832Y-5.0323
X8.1224Y-4.0037
X8.1739Y-7.34
X8.1979Y-5.6523
X8.2001Y-7.3947
X8.2305Y-7.7547
X8.238Y-5.6331
X8.2437Y-3.6804
X8.2533Y-7.3166
X8.312Y-8.7646
X8.3163Y-6.7511
X8.364Y-6.9185
X8.3654Y-5.0566
X8.3815Y-6.6973
X8.3884Y-7.0214
X8.395Y-6.0414
X8.4444Y-4.3673
X8.4454Y-6.2164
X8.446Y-6.9883
X8.4509Y-6.8843
X8.4713Y-4.2712
X8.5167Y-7.1096
X8.523Y-5.6148
X8.539Y-8.7979
X8.5675Y-8.712
X8.6285Y-7.465
X8.6514Y-5.7719
X8.6554Y-7.3875
X8.6999Y-8.4083
X8.7064Y-5.9397
X8.7199Y-8.9854
X8.8147Y-6.3355
X8.8882Y-9.4813
X8.9046Y-7.6038
X8.9204Y-5.6406
X8.9405Y-7.8718
X8.9564Y-4.9607
X8.9583Y-8.4693
X8.9596Y-7.9578
X8.9663Y-7.0804
X8.9975Y-1.818
X9.0096Y-6.9916
X9.0597Y-7.4161
X9.0728Y-4.2522
X9.0728Y-4.8924
X9.1333Y-8.7151
X9.1377Y-1.0107
X9.189Y-8.3095
X9.2716Y-6.261
X9.3758Y-4.0559
X9.3839Y-7.7071
X9.4404Y-7.1879
X9.4733Y-5.6356
X9.4787Y-4.5212
X9.4815Y-4.7059
X9.4987Y-8.6296
X9.5017Y-7.8635
X9.6837Y-5.7524
X9.6899Y-8.451
X9.7271Y-8.9014
X9.7286Y-7.3989
X9.7331Y-8.1543
X9.7584Y-8.2572
X9.787Y-8.7283
X9.7936Y-7.5735
X9.7951Y-7.6259
X9.8595Y-7.6859
X10.0445Y-5.5153
X10.0473Y-3.2507
X10.0853Y-4.5216
X10.11Y-7.0585
X10.2463Y-5.7325
X10.3983Y-6.1877
X10.4556Y-7.7685
X10.5671Y-5.0886
X10.6353Y-4.9287
T2
X9.492Y-9.653
X9.542Y-9.603
X9.592Y-9.653
T3
X1.5714Y-6.4928
X1.5714Y-6.5928
X1.5714Y-6.6928
X1.5714Y-6.7928
X1.586Y-5.497
X1.586Y-5.597
X1.586Y-5.697
X1.586Y-5.797
X1.586Y-5.897
X1.586Y-5.997
X1.586Y-6.097
X1.603Y-7.838
X1.603Y-8.087
X1.603Y-8.336
X1.613Y-7.5737
X1.6281Y-5.229
X1.825Y-5.229
X1.8714Y-6.4928
X1.8714Y-6.5928
X1.8714Y-6.6928
X1.8714Y-6.7928
X1.8797Y-3.1827
X1.886Y-5.497
X1.886Y-5.597
X1.886Y-5.697
X1.886Y-5.797
X1.886Y-5.897
X1.886Y-5.997
X1.886Y-6.097
X1.903Y-7.838
X1.903Y-8.087
X1.903Y-8.336
X1.913Y-7.5737
X1.929Y-2.506
X1.929Y-2.806
X1.9782Y-3.1827
X2.1551Y-8.345
X2.1641Y-7.0478
X2.1641Y-7.3072
X2.1641Y-7.5667
X2.1641Y-7.8261
X2.1641Y-8.0856
X2.197Y-6.494
X2.197Y-6.594
X2.197Y-6.694
X2.197Y-6.794
X2.352Y-8.345
X2.361Y-7.0478
X2.361Y-7.3072
X2.361Y-7.5667
X2.361Y-7.8261
X2.361Y-8.0856
X2.497Y-6.494
X2.497Y-6.594
X2.497Y-6.694
X2.497Y-6.794
X2.543Y-8.096
X2.548Y-8.35
X2.553Y-7.817
X2.558Y-7.562
X2.64Y-5.527
X2.64Y-5.627
X2.64Y-5.727
X2.64Y-5.827
X2.64Y-5.927
X2.64Y-6.027
X2.64Y-6.127
X2.6586Y-3.183
X2.757Y-3.183
X2.843Y-8.096
X2.848Y-8.35
X2.853Y-7.817
X2.858Y-7.562
X2.94Y-5.527
X2.94Y-5.627
X2.94Y-5.727
X2.94Y-5.827
X2.94Y-5.927
X2.94Y-6.027
X2.94Y-6.127
X3.1051Y-8.345
X3.11Y-8.0976
X3.184Y-5.528
X3.184Y-5.628
X3.184Y-5.728
X3.184Y-5.828
X3.184Y-5.928
X3.184Y-6.028
X3.184Y-6.128
X3.184Y-6.228
X3.184Y-6.328
X3.184Y-6.428
X3.191Y-6.765
X3.191Y-6.865
X3.191Y-6.965
X3.191Y-7.065
X3.191Y-7.165
X3.191Y-7.265
X3.191Y-7.365
X3.191Y-7.465
X3.191Y-7.565
X3.191Y-7.665
X3.302Y-8.345
X3.3069Y-8.0976
X3.4647Y-3.1827
X3.484Y-5.528
X3.484Y-5.628
X3.484Y-5.728
X3.484Y-5.828
X3.484Y-5.928
X3.484Y-6.028
X3.484Y-6.128
X3.484Y-6.228
X3.484Y-6.328
X3.484Y-6.428
X3.491Y-6.765
X3.491Y-6.865
X3.491Y-6.965
X3.491Y-7.065
X3.491Y-7.165
X3.491Y-7.265
X3.491Y-7.365
X3.491Y-7.465
X3.491Y-7.565
X3.491Y-7.665
X3.5632Y-3.1827
X3.6686Y-5.236
X3.739Y-5.542
X3.739Y-5.642
X3.739Y-5.742
X3.739Y-5.842
X3.739Y-5.942
X3.739Y-6.042
X3.739Y-6.142
X3.739Y-6.242
X3.739Y-6.342
X3.739Y-6.442
X3.739Y-6.542
X3.739Y-6.642
X3.739Y-6.742
X3.739Y-6.842
X3.767Y-5.236
X3.788Y-7.273
X3.788Y-7.473
X3.789Y-7.782
X3.789Y-7.982
X3.988Y-7.373
X3.989Y-7.882
X3.993Y-5.24
X4.0914Y-5.24
X4.2806Y-3.192
X4.327Y-5.24
X4.339Y-5.542
X4.339Y-5.642
X4.339Y-5.742
X4.339Y-5.842
X4.339Y-5.942
X4.339Y-6.042
X4.339Y-6.142
X4.339Y-6.242
X4.339Y-6.342
X4.339Y-6.442
X4.339Y-6.542
X4.339Y-6.642
X4.339Y-6.742
X4.339Y-6.842
X4.379Y-3.192
X4.4186Y-7.668
X4.4186Y-8.0361
X4.4236Y-8.401
X4.4254Y-5.24
X4.517Y-7.668
X4.517Y-8.0361
X4.522Y-8.401
X4.6448Y-8.9029
X4.652Y-9.186
X4.652Y-9.431
X4.652Y-9.683
X4.67Y-6.995
X4.674Y-5.562
X4.674Y-5.662
X4.674Y-5.762
X4.674Y-5.862
X4.674Y-5.962
X4.674Y-6.062
X4.674Y-6.162
X4.6986Y-7.663
X4.7136Y-8.416
X4.7186Y-8.034
X4.7201Y-5.291
X4.7684Y-6.995
X4.797Y-7.663
X4.812Y-8.416
X4.817Y-8.034
X4.8417Y-8.9029
X4.917Y-5.291
X4.952Y-9.186
X4.952Y-9.431
X4.952Y-9.683
X4.974Y-5.562
X4.974Y-5.662
X4.974Y-5.762
X4.974Y-5.862
X4.974Y-5.962
X4.974Y-6.062
X4.974Y-6.162
X5.001Y-7.15
X5.001Y-7.25
X5.001Y-7.35
X5.001Y-7.45
X5.001Y-7.55
X5.001Y-7.65
X5.001Y-7.75
X5.0511Y-6.865
X5.0766Y-3.166
X5.175Y-3.166
X5.248Y-6.865
X5.301Y-7.15
X5.301Y-7.25
X5.301Y-7.35
X5.301Y-7.45
X5.301Y-7.55
X5.301Y-7.65
X5.301Y-7.75
X5.599Y-6.477
X5.629Y-5.502
X5.629Y-5.602
X5.629Y-5.702
X5.629Y-5.802
X5.629Y-5.902
X5.629Y-6.002
X5.629Y-6.102
X5.629Y-6.202
X5.657Y-8.124
X5.657Y-8.224
X5.657Y-8.324
X5.657Y-8.424
X5.657Y-8.524
X5.657Y-8.624
X5.657Y-8.724
X5.657Y-8.824
X5.657Y-8.924
X5.657Y-9.024
X5.665Y-6.802
X5.665Y-6.902
X5.665Y-7.002
X5.665Y-7.102
X5.665Y-7.202
X5.665Y-7.302
X5.665Y-7.402
X5.665Y-7.502
X5.665Y-7.602
X5.665Y-7.702
X5.6831Y-5.217
X5.7117Y-9.5207
X5.8102Y-9.5207
X5.88Y-5.217
X5.899Y-6.477
X5.929Y-5.502
X5.929Y-5.602
X5.929Y-5.702
X5.929Y-5.802
X5.929Y-5.902
X5.929Y-6.002
X5.929Y-6.102
X5.929Y-6.202
X5.957Y-8.124
X5.957Y-8.224
X5.957Y-8.324
X5.957Y-8.424
X5.957Y-8.524
X5.957Y-8.624
X5.957Y-8.724
X5.957Y-8.824
X5.957Y-8.924
X5.957Y-9.024
X5.965Y-6.802
X5.965Y-6.902
X5.965Y-7.002
X5.965Y-7.102
X5.965Y-7.202
X5.965Y-7.302
X5.965Y-7.402
X5.965Y-7.502
X5.965Y-7.602
X5.965Y-7.702
X6.0331Y-6.477
X6.0816Y-9.546
X6.18Y-9.546
X6.203Y-8.1071
X6.203Y-8.304
X6.204Y-6.781
X6.204Y-6.9779
X6.23Y-6.477
X6.298Y-1.928
X6.298Y-2.028
X6.298Y-2.128
X6.298Y-2.228
X6.298Y-2.328
X6.298Y-2.428
X6.298Y-2.528
X6.3391Y-1.631
X6.34Y-2.957
X6.34Y-3.057
X6.34Y-3.157
X6.34Y-3.257
X6.34Y-3.357
X6.34Y-3.457
X6.34Y-3.557
X6.34Y-3.657
X6.357Y-6.477
X6.379Y-5.499
X6.379Y-5.599
X6.379Y-5.699
X6.379Y-5.799
X6.379Y-5.899
X6.379Y-5.999
X6.379Y-6.099
X6.417Y-6.822
X6.417Y-6.922
X6.417Y-7.022
X6.417Y-7.122
X6.417Y-7.222
X6.417Y-7.322
X6.417Y-7.422
X6.417Y-7.522
X6.417Y-7.622
X6.417Y-7.722
X6.4411Y-5.223
X6.4547Y-9.5477
X6.507Y-8.311
X6.507Y-8.411
X6.507Y-8.511
X6.507Y-8.611
X6.507Y-8.711
X6.507Y-8.811
X6.507Y-8.911
X6.507Y-9.011
X6.536Y-1.631
X6.5532Y-9.5477
X6.5651Y-8.032
X6.598Y-1.928
X6.598Y-2.028
X6.598Y-2.128
X6.598Y-2.228
X6.598Y-2.328
X6.598Y-2.428
X6.598Y-2.528
X6.638Y-5.223
X6.64Y-2.957
X6.64Y-3.057
X6.64Y-3.157
X6.64Y-3.257
X6.64Y-3.357
X6.64Y-3.457
X6.64Y-3.557
X6.64Y-3.657
X6.657Y-6.477
X6.679Y-5.499
X6.679Y-5.599
X6.679Y-5.699
X6.679Y-5.799
X6.679Y-5.899
X6.679Y-5.999
X6.679Y-6.099
X6.717Y-6.822
X6.717Y-6.922
X6.717Y-7.022
X6.717Y-7.122
X6.717Y-7.222
X6.717Y-7.322
X6.717Y-7.422
X6.717Y-7.522
X6.717Y-7.622
X6.717Y-7.722
X6.7441Y-2.753
X6.762Y-8.032
X6.807Y-8.311
X6.807Y-8.411
X6.807Y-8.511
X6.807Y-8.611
X6.807Y-8.711
X6.807Y-8.811
X6.807Y-8.911
X6.807Y-9.011
X6.897Y-6.8141
X6.897Y-7.011
X6.941Y-2.753
X7.16Y-1.591
X7.165Y-7.707
X7.165Y-7.807
X7.165Y-7.907
X7.165Y-8.007
X7.165Y-8.107
X7.165Y-8.207
X7.165Y-8.307
X7.165Y-8.407
X7.165Y-8.507
X7.165Y-8.607
X7.165Y-8.707
X7.165Y-8.807
X7.165Y-8.907
X7.165Y-9.007
X7.168Y-1.899
X7.168Y-1.999
X7.168Y-2.099
X7.168Y-2.199
X7.168Y-2.299
X7.168Y-2.399
X7.168Y-2.499
X7.168Y-2.869
X7.168Y-2.969
X7.168Y-3.069
X7.168Y-3.169
X7.168Y-3.269
X7.168Y-3.369
X7.168Y-3.469
X7.168Y-3.885
X7.168Y-3.985
X7.168Y-4.085
X7.168Y-4.185
X7.168Y-4.285
X7.168Y-4.385
X7.168Y-4.485
X7.168Y-4.585
X7.168Y-4.685
X7.168Y-5.088
X7.168Y-5.188
X7.168Y-5.288
X7.168Y-5.388
X7.168Y-5.488
X7.168Y-5.588
X7.168Y-5.688
X7.168Y-6.094
X7.168Y-6.194
X7.168Y-6.294
X7.168Y-6.394
X7.168Y-6.494
X7.168Y-6.594
X7.168Y-6.694
X7.168Y-6.794
X7.168Y-6.894
X7.168Y-6.994
X7.46Y-1.591
X7.468Y-1.899
X7.468Y-1.999
X7.468Y-2.099
X7.468Y-2.199
X7.468Y-2.299
X7.468Y-2.399
X7.468Y-2.499
X7.468Y-2.869
X7.468Y-2.969
X7.468Y-3.069
X7.468Y-3.169
X7.468Y-3.269
X7.468Y-3.369
X7.468Y-3.469
X7.468Y-3.885
X7.468Y-3.985
X7.468Y-4.085
X7.468Y-4.185
X7.468Y-4.285
X7.468Y-4.385
X7.468Y-4.485
X7.468Y-4.585
X7.468Y-4.685
X7.468Y-5.088
X7.468Y-5.188
X7.468Y-5.288
X7.468Y-5.388
X7.468Y-5.488
X7.468Y-5.588
X7.468Y-5.688
X7.468Y-6.094
X7.468Y-6.194
X7.468Y-6.294
X7.468Y-6.394
X7.468Y-6.494
X7.468Y-6.594
X7.468Y-6.694
X7.468Y-6.794
X7.468Y-6.894
X7.468Y-6.994
X7.5131Y-3.672
X7.5151Y-5.893
X7.5671Y-1.722
X7.71Y-3.672
X7.712Y-5.893
X7.764Y-1.722
X7.765Y-7.707
X7.765Y-7.807
X7.765Y-7.907
X7.765Y-8.007
X7.765Y-8.107
X7.765Y-8.207
X7.765Y-8.307
X7.765Y-8.407
X7.765Y-8.507
X7.765Y-8.607
X7.765Y-8.707
X7.765Y-8.807
X7.765Y-8.907
X7.765Y-9.007
X7.82Y-2.21
X7.82Y-2.31
X7.82Y-2.41
X7.82Y-2.51
X7.891Y-3.433
X7.891Y-3.533
X7.891Y-3.633
X7.891Y-3.733
X7.891Y-3.833
X7.891Y-3.933
X7.891Y-4.033
X7.891Y-4.443
X7.891Y-4.543
X7.891Y-4.643
X7.891Y-4.743
X7.891Y-4.843
X7.891Y-4.943
X7.891Y-5.043
X7.891Y-5.143
X7.891Y-5.243
X7.891Y-5.343
X7.891Y-5.885
X7.891Y-5.985
X7.891Y-6.085
X7.891Y-6.185
X7.891Y-6.285
X7.891Y-6.385
X7.891Y-6.485
X7.891Y-6.585
X7.891Y-6.685
X7.891Y-6.785
X7.891Y-6.885
X7.891Y-6.985
X7.9451Y-5.63
X7.9531Y-3.116
X8.059Y-7.506
X8.059Y-7.7029
X8.12Y-2.21
X8.12Y-2.31
X8.12Y-2.41
X8.12Y-2.51
X8.142Y-5.63
X8.15Y-3.116
X8.191Y-3.433
X8.191Y-3.533
X8.191Y-3.633
X8.191Y-3.733
X8.191Y-3.833
X8.191Y-3.933
X8.191Y-4.033
X8.191Y-4.443
X8.191Y-4.543
X8.191Y-4.643
X8.191Y-4.743
X8.191Y-4.843
X8.191Y-4.943
X8.191Y-5.043
X8.191Y-5.143
X8.191Y-5.243
X8.191Y-5.343
X8.191Y-5.885
X8.191Y-5.985
X8.191Y-6.085
X8.191Y-6.185
X8.191Y-6.285
X8.191Y-6.385
X8.191Y-6.485
X8.191Y-6.585
X8.191Y-6.685
X8.191Y-6.785
X8.191Y-6.885
X8.191Y-6.985
X8.1921Y-1.715
X8.38Y-2.53
X8.38Y-2.78
X8.389Y-1.715
X8.3941Y-7.273
X8.425Y-7.512
X8.425Y-7.612
X8.425Y-7.712
X8.425Y-7.812
X8.425Y-7.912
X8.425Y-8.012
X8.425Y-8.112
X8.425Y-8.212
X8.425Y-8.312
X8.425Y-8.412
X8.425Y-8.512
X8.425Y-8.612
X8.425Y-8.712
X8.425Y-8.812
X8.425Y-8.912
X8.425Y-9.012
X8.5768Y-4.7072
X8.5768Y-4.8072
X8.5768Y-4.9072
X8.5768Y-5.0072
X8.5768Y-5.1072
X8.5768Y-5.2072
X8.5768Y-5.3072
X8.5768Y-5.4072
X8.5768Y-5.8942
X8.5768Y-5.9942
X8.5768Y-6.0942
X8.5768Y-6.1942
X8.5768Y-6.2942
X8.5768Y-6.3942
X8.5768Y-6.4942
X8.5768Y-6.5942
X8.5768Y-6.6942
X8.5768Y-6.7942
X8.5768Y-6.8942
X8.5768Y-6.9942
X8.591Y-7.273
X8.629Y-1.4613
X8.629Y-1.7613
X8.656Y-4.398
X8.68Y-2.53
X8.68Y-2.78
X8.8529Y-4.398
X8.8768Y-4.7072
X8.8768Y-4.8072
X8.8768Y-4.9072
X8.8768Y-5.0072
X8.8768Y-5.1072
X8.8768Y-5.2072
X8.8768Y-5.3072
X8.8768Y-5.4072
X8.8768Y-5.8942
X8.8768Y-5.9942
X8.8768Y-6.0942
X8.8768Y-6.1942
X8.8768Y-6.2942
X8.8768Y-6.3942
X8.8768Y-6.4942
X8.8768Y-6.5942
X8.8768Y-6.6942
X8.8768Y-6.7942
X8.8768Y-6.8942
X8.8768Y-6.9942
X8.9308Y-1.4613
X8.9308Y-1.7613
X9.025Y-7.512
X9.025Y-7.612
X9.025Y-7.712
X9.025Y-7.812
X9.025Y-7.912
X9.025Y-8.012
X9.025Y-8.112
X9.025Y-8.212
X9.025Y-8.312
X9.025Y-8.412
X9.025Y-8.512
X9.025Y-8.612
X9.025Y-8.712
X9.025Y-8.812
X9.025Y-8.912
X9.025Y-9.012
X9.126Y-5.8921
X9.126Y-6.089
X9.151Y-2.195
X9.151Y-2.295
X9.151Y-2.395
X9.151Y-2.495
X9.151Y-2.595
X9.151Y-2.695
X9.151Y-2.795
X9.151Y-2.895
X9.151Y-2.995
X9.151Y-3.095
X9.151Y-3.195
X9.151Y-3.295
X9.151Y-3.395
X9.151Y-3.495
X9.151Y-3.595
X9.151Y-3.695
X9.151Y-3.795
X9.151Y-3.895
X9.151Y-3.995
X9.151Y-4.095
X9.1546Y-4.769
X9.1841Y-7.617
X9.2011Y-6.882
X9.2021Y-7.894
X9.2326Y-1.4613
X9.2326Y-1.7613
X9.253Y-4.769
X9.287Y-7.152
X9.287Y-7.3441
X9.299Y-8.086
X9.299Y-8.386
X9.302Y-8.521
X9.302Y-8.821
X9.3129Y-8.9787
X9.3129Y-9.2787
X9.381Y-7.617
X9.398Y-6.882
X9.399Y-7.894
X9.5344Y-1.4613
X9.5344Y-1.7613
X9.57Y-7.094
X9.57Y-7.194
X9.57Y-7.294
X9.57Y-7.394
X9.57Y-7.494
X9.57Y-7.594
X9.57Y-7.694
X9.57Y-7.794
X9.57Y-7.894
X9.57Y-7.994
X9.57Y-8.094
X9.57Y-8.194
X9.57Y-8.294
X9.57Y-8.394
X9.57Y-8.494
X9.57Y-8.594
X9.57Y-8.694
X9.57Y-8.794
X9.57Y-8.894
X9.57Y-8.994
X9.582Y-4.678
X9.582Y-4.778
X9.582Y-4.878
X9.582Y-4.978
X9.582Y-5.078
X9.582Y-5.178
X9.582Y-5.278
X9.582Y-5.378
X9.582Y-5.478
X9.582Y-5.578
X9.582Y-5.678
X9.582Y-5.778
X9.582Y-5.878
X9.582Y-5.978
X9.582Y-6.078
X9.582Y-6.178
X9.582Y-6.278
X9.582Y-6.378
X9.582Y-6.478
X9.582Y-6.578
X9.751Y-2.195
X9.751Y-2.295
X9.751Y-2.395
X9.751Y-2.495
X9.751Y-2.595
X9.751Y-2.695
X9.751Y-2.795
X9.751Y-2.895
X9.751Y-2.995
X9.751Y-3.095
X9.751Y-3.195
X9.751Y-3.295
X9.751Y-3.395
X9.751Y-3.495
X9.751Y-3.595
X9.751Y-3.695
X9.751Y-3.795
X9.751Y-3.895
X9.751Y-3.995
X9.751Y-4.095
X9.8362Y-1.4613
X9.8362Y-1.7613
X9.8423Y-9.3029
X10.138Y-1.4613
X10.138Y-1.7613
X10.1423Y-9.3029
X10.17Y-7.094
X10.17Y-7.194
X10.17Y-7.294
X10.17Y-7.394
X10.17Y-7.494
X10.17Y-7.594
X10.17Y-7.694
X10.17Y-7.794
X10.17Y-7.894
X10.17Y-7.994
X10.17Y-8.094
X10.17Y-8.194
X10.17Y-8.294
X10.17Y-8.394
X10.17Y-8.494
X10.17Y-8.594
X10.17Y-8.694
X10.17Y-8.794
X10.17Y-8.894
X10.17Y-8.994
X10.182Y-4.678
X10.182Y-4.778
X10.182Y-4.878
X10.182Y-4.978
X10.182Y-5.078
X10.182Y-5.178
X10.182Y-5.278
X10.182Y-5.378
X10.182Y-5.478
X10.182Y-5.578
X10.182Y-5.678
X10.182Y-5.778
X10.182Y-5.878
X10.182Y-5.978
X10.182Y-6.078
X10.182Y-6.178
X10.182Y-6.278
X10.182Y-6.378
X10.182Y-6.478
X10.182Y-6.578
X10.395Y-7.893
X10.395Y-8.0899
X10.442Y-4.6611
X10.442Y-4.858
T4
X7.65Y-1.0236
X7.65Y-1.12
X7.7327Y-1.0236
X7.8349Y-1.0236
X7.9176Y-1.0236
X7.9176Y-1.122
T5
X8.519Y-1.253
X8.619Y-1.253
X8.824Y-1.253
X8.924Y-1.253
X9.129Y-1.253
X9.229Y-1.253
X9.434Y-1.253
X9.534Y-1.253
X9.739Y-1.253
X9.839Y-1.253
X10.044Y-1.253
X10.144Y-1.253
T6
X1.889Y-4.358
X1.889Y-4.458
X1.889Y-4.558
X1.889Y-4.658
X1.889Y-4.758
X1.889Y-4.858
X1.989Y-4.358
X1.989Y-4.458
X1.989Y-4.558
X1.989Y-4.658
X1.989Y-4.758
X1.989Y-4.858
X2.247Y-5.536
X2.247Y-5.636
X2.249Y-5.878
X2.249Y-5.978
X2.6787Y-4.358
X2.6787Y-4.458
X2.6787Y-4.558
X2.6787Y-4.658
X2.6787Y-4.758
X2.6787Y-4.858
X2.7787Y-4.358
X2.7787Y-4.458
X2.7787Y-4.558
X2.7787Y-4.658
X2.7787Y-4.758
X2.7787Y-4.858
X3.492Y-4.358
X3.492Y-4.458
X3.492Y-4.558
X3.492Y-4.658
X3.492Y-4.758
X3.492Y-4.858
X3.592Y-4.358
X3.592Y-4.458
X3.592Y-4.558
X3.592Y-4.658
X3.592Y-4.758
X3.592Y-4.858
X4.299Y-4.358
X4.299Y-4.458
X4.299Y-4.558
X4.299Y-4.658
X4.299Y-4.758
X4.299Y-4.858
X4.399Y-4.358
X4.399Y-4.458
X4.399Y-4.558
X4.399Y-4.658
X4.399Y-4.758
X4.399Y-4.858
X4.676Y-6.457
X4.676Y-6.557
X5.0171Y-8.7258
X5.0171Y-8.903
X5.083Y-4.358
X5.083Y-4.458
X5.083Y-4.558
X5.083Y-4.658
X5.083Y-4.758
X5.083Y-4.858
X5.126Y-6.463
X5.126Y-6.563
X5.183Y-4.358
X5.183Y-4.458
X5.183Y-4.558
X5.183Y-4.658
X5.183Y-4.758
X5.183Y-4.858
X5.273Y-8.7258
X5.273Y-8.903
X5.283Y-9.467
X5.283Y-9.567
X5.889Y-4.358
X5.889Y-4.458
X5.889Y-4.558
X5.889Y-4.658
X5.889Y-4.758
X5.889Y-4.858
X5.989Y-4.358
X5.989Y-4.458
X5.989Y-4.558
X5.989Y-4.658
X5.989Y-4.758
X5.989Y-4.858
X6.952Y-9.583
X6.952Y-9.683
X7.052Y-9.583
X7.052Y-9.683
X7.152Y-9.583
X7.152Y-9.683
X7.252Y-9.583
X7.252Y-9.683
X7.352Y-9.583
X7.352Y-9.683
X7.452Y-9.583
X7.452Y-9.683
X7.552Y-9.583
X7.552Y-9.683
X7.652Y-9.583
X7.652Y-9.683
X7.752Y-9.583
X7.752Y-9.683
X7.852Y-9.583
X7.852Y-9.683
X7.952Y-9.583
X7.952Y-9.683
X8.052Y-9.583
X8.052Y-9.683
X8.152Y-9.583
X8.152Y-9.683
X8.215Y-1.203
X8.215Y-1.303
X8.252Y-9.583
X8.252Y-9.683
X8.352Y-9.583
X8.352Y-9.683
X8.452Y-9.583
X8.452Y-9.683
X8.51Y-2.157
X8.51Y-2.257
X8.5291Y-3.0887
X8.5291Y-3.1887
X8.552Y-9.583
X8.552Y-9.683
X8.652Y-9.583
X8.652Y-9.683
X8.752Y-9.583
X8.752Y-9.683
X8.767Y-0.899
X8.852Y-9.583
X8.852Y-9.683
X8.867Y-0.899
X8.967Y-0.899
X9.067Y-0.899
X9.167Y-0.899
X9.221Y-9.535
X9.221Y-9.635
X9.221Y-9.735
X9.267Y-0.899
X9.549Y-0.9
X9.649Y-0.9
X9.749Y-0.9
X9.849Y-0.9
X9.8561Y-9.5438
X9.8561Y-9.721
X9.949Y-0.9
X10.049Y-0.9
X10.112Y-9.5438
X10.112Y-9.721
X10.149Y-0.9
X10.4Y-9.5838
X10.4Y-9.6838
X10.413Y-9.1398
X10.413Y-9.2398
X10.548Y-3.184
X10.548Y-3.284
X10.548Y-3.384
X10.548Y-3.484
X10.548Y-3.584
X10.548Y-3.684
X10.548Y-3.784
X10.548Y-3.884
X10.548Y-3.984
X10.548Y-4.084
X10.648Y-3.184
X10.648Y-3.284
X10.648Y-3.384
X10.648Y-3.484
X10.648Y-3.584
X10.648Y-3.684
X10.648Y-3.784
X10.648Y-3.884
X10.648Y-3.984
X10.648Y-4.084
T7
X1.4387Y-1.7892
X1.4387Y-1.8892
X1.4387Y-1.9892
X1.4387Y-2.0892
X1.4387Y-2.1892
X1.4387Y-2.2892
X1.4387Y-2.3892
X1.4387Y-2.4892
X1.4387Y-2.5892
X1.4387Y-2.6892
X1.4387Y-2.7892
X1.4387Y-2.8892
X1.4387Y-2.9892
X1.4387Y-3.0892
X1.4387Y-3.1892
X1.4387Y-3.2892
X1.4387Y-3.3892
X1.4387Y-3.4892
X1.4387Y-3.5892
X1.4387Y-3.6892
X1.4387Y-3.7892
X1.4387Y-3.8892
X1.4387Y-3.9892
X1.4387Y-4.0892
X1.4387Y-4.1892
X1.4387Y-4.2892
X1.4387Y-4.3892
X1.4387Y-4.4892
X1.4387Y-4.5892
X1.4387Y-4.6892
X1.4387Y-4.7892
X1.6387Y-1.7892
X1.6387Y-1.8892
X1.6387Y-1.9892
X1.6387Y-2.0892
X1.6387Y-2.1892
X1.6387Y-2.2892
X1.6387Y-2.3892
X1.6387Y-2.4892
X1.6387Y-2.5892
X1.6387Y-2.6892
X1.6387Y-2.7892
X1.6387Y-2.8892
X1.6387Y-2.9892
X1.6387Y-3.0892
X1.6387Y-3.1892
X1.6387Y-3.2892
X1.6387Y-3.3892
X1.6387Y-3.4892
X1.6387Y-3.5892
X1.6387Y-3.6892
X1.6387Y-3.7892
X1.6387Y-3.8892
X1.6387Y-3.9892
X1.6387Y-4.0892
X1.6387Y-4.1892
X1.6387Y-4.2892
X1.6387Y-4.3892
X1.6387Y-4.4892
X1.6387Y-4.5892
X1.6387Y-4.6892
X1.6387Y-4.7892
X2.2387Y-1.7892
X2.2387Y-1.8892
X2.2387Y-1.9892
X2.2387Y-2.0892
X2.2387Y-2.1892
X2.2387Y-2.2892
X2.2387Y-2.3892
X2.2387Y-2.4892
X2.2387Y-2.5892
X2.2387Y-2.6892
X2.2387Y-2.7892
X2.2387Y-2.8892
X2.2387Y-2.9892
X2.2387Y-3.0892
X2.2387Y-3.1892
X2.2387Y-3.2892
X2.2387Y-3.3892
X2.2387Y-3.4892
X2.2387Y-3.5892
X2.2387Y-3.6892
X2.2387Y-3.7892
X2.2387Y-3.8892
X2.2387Y-3.9892
X2.2387Y-4.0892
X2.2387Y-4.1892
X2.2387Y-4.2892
X2.2387Y-4.3892
X2.2387Y-4.4892
X2.2387Y-4.5892
X2.2387Y-4.6892
X2.2387Y-4.7892
X2.4387Y-1.7892
X2.4387Y-1.8892
X2.4387Y-1.9892
X2.4387Y-2.0892
X2.4387Y-2.1892
X2.4387Y-2.2892
X2.4387Y-2.3892
X2.4387Y-2.4892
X2.4387Y-2.5892
X2.4387Y-2.6892
X2.4387Y-2.7892
X2.4387Y-2.8892
X2.4387Y-2.9892
X2.4387Y-3.0892
X2.4387Y-3.1892
X2.4387Y-3.2892
X2.4387Y-3.3892
X2.4387Y-3.4892
X2.4387Y-3.5892
X2.4387Y-3.6892
X2.4387Y-3.7892
X2.4387Y-3.8892
X2.4387Y-3.9892
X2.4387Y-4.0892
X2.4387Y-4.1892
X2.4387Y-4.2892
X2.4387Y-4.3892
X2.4387Y-4.4892
X2.4387Y-4.5892
X2.4387Y-4.6892
X2.4387Y-4.7892
X3.0387Y-1.7892
X3.0387Y-1.8892
X3.0387Y-1.9892
X3.0387Y-2.0892
X3.0387Y-2.1892
X3.0387Y-2.2892
X3.0387Y-2.3892
X3.0387Y-2.4892
X3.0387Y-2.5892
X3.0387Y-2.6892
X3.0387Y-2.7892
X3.0387Y-2.8892
X3.0387Y-2.9892
X3.0387Y-3.0892
X3.0387Y-3.1892
X3.0387Y-3.2892
X3.0387Y-3.3892
X3.0387Y-3.4892
X3.0387Y-3.5892
X3.0387Y-3.6892
X3.0387Y-3.7892
X3.0387Y-3.8892
X3.0387Y-3.9892
X3.0387Y-4.0892
X3.0387Y-4.1892
X3.0387Y-4.2892
X3.0387Y-4.3892
X3.0387Y-4.4892
X3.0387Y-4.5892
X3.0387Y-4.6892
X3.0387Y-4.7892
X3.2387Y-1.7892
X3.2387Y-1.8892
X3.2387Y-1.9892
X3.2387Y-2.0892
X3.2387Y-2.1892
X3.2387Y-2.2892
X3.2387Y-2.3892
X3.2387Y-2.4892
X3.2387Y-2.5892
X3.2387Y-2.6892
X3.2387Y-2.7892
X3.2387Y-2.8892
X3.2387Y-2.9892
X3.2387Y-3.0892
X3.2387Y-3.1892
X3.2387Y-3.2892
X3.2387Y-3.3892
X3.2387Y-3.4892
X3.2387Y-3.5892
X3.2387Y-3.6892
X3.2387Y-3.7892
X3.2387Y-3.8892
X3.2387Y-3.9892
X3.2387Y-4.0892
X3.2387Y-4.1892
X3.2387Y-4.2892
X3.2387Y-4.3892
X3.2387Y-4.4892
X3.2387Y-4.5892
X3.2387Y-4.6892
X3.2387Y-4.7892
X3.8387Y-1.7892
X3.8387Y-1.8892
X3.8387Y-1.9892
X3.8387Y-2.0892
X3.8387Y-2.1892
X3.8387Y-2.2892
X3.8387Y-2.3892
X3.8387Y-2.4892
X3.8387Y-2.5892
X3.8387Y-2.6892
X3.8387Y-2.7892
X3.8387Y-2.8892
X3.8387Y-2.9892
X3.8387Y-3.0892
X3.8387Y-3.1892
X3.8387Y-3.2892
X3.8387Y-3.3892
X3.8387Y-3.4892
X3.8387Y-3.5892
X3.8387Y-3.6892
X3.8387Y-3.7892
X3.8387Y-3.8892
X3.8387Y-3.9892
X3.8387Y-4.0892
X3.8387Y-4.1892
X3.8387Y-4.2892
X3.8387Y-4.3892
X3.8387Y-4.4892
X3.8387Y-4.5892
X3.8387Y-4.6892
X3.8387Y-4.7892
X4.0387Y-1.7892
X4.0387Y-1.8892
X4.0387Y-1.9892
X4.0387Y-2.0892
X4.0387Y-2.1892
X4.0387Y-2.2892
X4.0387Y-2.3892
X4.0387Y-2.4892
X4.0387Y-2.5892
X4.0387Y-2.6892
X4.0387Y-2.7892
X4.0387Y-2.8892
X4.0387Y-2.9892
X4.0387Y-3.0892
X4.0387Y-3.1892
X4.0387Y-3.2892
X4.0387Y-3.3892
X4.0387Y-3.4892
X4.0387Y-3.5892
X4.0387Y-3.6892
X4.0387Y-3.7892
X4.0387Y-3.8892
X4.0387Y-3.9892
X4.0387Y-4.0892
X4.0387Y-4.1892
X4.0387Y-4.2892
X4.0387Y-4.3892
X4.0387Y-4.4892
X4.0387Y-4.5892
X4.0387Y-4.6892
X4.0387Y-4.7892
X4.6387Y-1.7892
X4.6387Y-1.8892
X4.6387Y-1.9892
X4.6387Y-2.0892
X4.6387Y-2.1892
X4.6387Y-2.2892
X4.6387Y-2.3892
X4.6387Y-2.4892
X4.6387Y-2.5892
X4.6387Y-2.6892
X4.6387Y-2.7892
X4.6387Y-2.8892
X4.6387Y-2.9892
X4.6387Y-3.0892
X4.6387Y-3.1892
X4.6387Y-3.2892
X4.6387Y-3.3892
X4.6387Y-3.4892
X4.6387Y-3.5892
X4.6387Y-3.6892
X4.6387Y-3.7892
X4.6387Y-3.8892
X4.6387Y-3.9892
X4.6387Y-4.0892
X4.6387Y-4.1892
X4.6387Y-4.2892
X4.6387Y-4.3892
X4.6387Y-4.4892
X4.6387Y-4.5892
X4.6387Y-4.6892
X4.6387Y-4.7892
X4.8387Y-1.7892
X4.8387Y-1.8892
X4.8387Y-1.9892
X4.8387Y-2.0892
X4.8387Y-2.1892
X4.8387Y-2.2892
X4.8387Y-2.3892
X4.8387Y-2.4892
X4.8387Y-2.5892
X4.8387Y-2.6892
X4.8387Y-2.7892
X4.8387Y-2.8892
X4.8387Y-2.9892
X4.8387Y-3.0892
X4.8387Y-3.1892
X4.8387Y-3.2892
X4.8387Y-3.3892
X4.8387Y-3.4892
X4.8387Y-3.5892
X4.8387Y-3.6892
X4.8387Y-3.7892
X4.8387Y-3.8892
X4.8387Y-3.9892
X4.8387Y-4.0892
X4.8387Y-4.1892
X4.8387Y-4.2892
X4.8387Y-4.3892
X4.8387Y-4.4892
X4.8387Y-4.5892
X4.8387Y-4.6892
X4.8387Y-4.7892
X5.4387Y-1.7892
X5.4387Y-1.8892
X5.4387Y-1.9892
X5.4387Y-2.0892
X5.4387Y-2.1892
X5.4387Y-2.2892
X5.4387Y-2.3892
X5.4387Y-2.4892
X5.4387Y-2.5892
X5.4387Y-2.6892
X5.4387Y-2.7892
X5.4387Y-2.8892
X5.4387Y-2.9892
X5.4387Y-3.0892
X5.4387Y-3.1892
X5.4387Y-3.2892
X5.4387Y-3.3892
X5.4387Y-3.4892
X5.4387Y-3.5892
X5.4387Y-3.6892
X5.4387Y-3.7892
X5.4387Y-3.8892
X5.4387Y-3.9892
X5.4387Y-4.0892
X5.4387Y-4.1892
X5.4387Y-4.2892
X5.4387Y-4.3892
X5.4387Y-4.4892
X5.4387Y-4.5892
X5.4387Y-4.6892
X5.4387Y-4.7892
X5.6387Y-1.7892
X5.6387Y-1.8892
X5.6387Y-1.9892
X5.6387Y-2.0892
X5.6387Y-2.1892
X5.6387Y-2.2892
X5.6387Y-2.3892
X5.6387Y-2.4892
X5.6387Y-2.5892
X5.6387Y-2.6892
X5.6387Y-2.7892
X5.6387Y-2.8892
X5.6387Y-2.9892
X5.6387Y-3.0892
X5.6387Y-3.1892
X5.6387Y-3.2892
X5.6387Y-3.3892
X5.6387Y-3.4892
X5.6387Y-3.5892
X5.6387Y-3.6892
X5.6387Y-3.7892
X5.6387Y-3.8892
X5.6387Y-3.9892
X5.6387Y-4.0892
X5.6387Y-4.1892
X5.6387Y-4.2892
X5.6387Y-4.3892
X5.6387Y-4.4892
X5.6387Y-4.5892
X5.6387Y-4.6892
X5.6387Y-4.7892
T8
X4.027Y-9.444
X4.032Y-9.701
X4.427Y-9.444
X4.432Y-9.701
X10.653Y-2.421
X10.653Y-2.821
T10
X5.0962Y-9.9684
X5.0962Y-10.185
X5.2616Y-9.9684
X5.2616Y-10.185
X5.4269Y-9.9684
X5.4269Y-10.185
X5.5923Y-9.9684
X5.5923Y-10.185
X5.7576Y-9.9684
X5.7576Y-10.185
X5.923Y-9.9684
X5.923Y-10.185
X6.0883Y-9.9684
X6.0883Y-10.185
X6.2537Y-9.9684
X6.2537Y-10.185
X6.419Y-9.9684
X6.419Y-10.185
X6.5844Y-9.9684
X6.5844Y-10.185
T11
X7.5181Y-0.9055
X7.7838Y-0.8741
X8.0515Y-0.9055
T12
X1.8377Y-1.1871
X1.8377Y-7.2871
X1.8377Y-10.1371
X2.6377Y-1.1871
X2.6377Y-7.2871
X2.6377Y-10.1371
X4.4377Y-1.1871
X4.4377Y-7.2871
X4.4377Y-10.1371
X10.6377Y-2.0871
X10.6377Y-7.2871
X10.6377Y-10.1371
T6
G00X7.055Y-1.1962
M15
G01X7.055Y-1.1451
M16
G05
G00X10.532Y-1.1916
M15
G01X10.532Y-1.1404
M16
G05
T9
G00X7.0137Y-0.9935
M15
G01X7.0963Y-0.9935
M16
G05
G00X10.4907Y-0.9888
M15
G01X10.5733Y-0.9888
M16
G05
M30
