M48
; DRILL file {KiCad 8.0.6} date 2025-05-26T10:20:52-0500
; FORMAT={-:-/ absolute / inch / decimal}
; #@! TF.CreationDate,2025-05-26T10:20:52-05:00
; #@! TF.GenerationSoftware,Kicad,Pcbnew,8.0.6
; #@! TF.FileFunction,Plated,1,2,PTH
FMAT,2
INCH
; #@! TA.AperFunction,Plated,PTH,ViaDrill
T1C0.0157
; #@! TA.AperFunction,Plated,PTH,ComponentDrill
T2C0.0295
; #@! TA.AperFunction,Plated,PTH,ComponentDrill
T3C0.0315
; #@! TA.AperFunction,Plated,PTH,ComponentDrill
T4C0.0354
; #@! TA.AperFunction,Plated,PTH,ComponentDrill
T5C0.0394
; #@! TA.AperFunction,Plated,PTH,ComponentDrill
T6C0.0400
; #@! TA.AperFunction,Plated,PTH,ComponentDrill
T7C0.0433
; #@! TA.AperFunction,Plated,PTH,ComponentDrill
T8C0.0512
; #@! TA.AperFunction,Plated,PTH,ComponentDrill
T9C0.0669
; #@! TA.AperFunction,Plated,PTH,ComponentDrill
T10C0.1260
%
G90
G05
T1
X1.7514Y-4.0827
X1.805Y-1.6625
X1.9161Y-1.5554
X1.918Y-1.6625
X1.9671Y-1.5855
X2.0156Y-2.0186
X2.0178Y-5.0073
X2.0753Y-1.8883
X2.171Y-4.8214
X2.4587Y-1.6625
X2.5834Y-1.8075
X2.6237Y-1.7655
X2.8715Y-4.9144
X2.9014Y-4.8812
X3.0904Y-4.8759
X3.3709Y-4.3168
X3.3975Y-1.7582
X3.4192Y-4.4043
X3.5504Y-4.3996
X3.6989Y-4.8552
X3.7292Y-4.7545
X3.9367Y-4.7857
X3.9633Y-2.3811
X3.97Y-3.8892
X4.1184Y-1.9688
X4.2585Y-2.2443
X4.3376Y-1.7429
X4.4225Y-1.9072
X4.528Y-4.8279
X4.7469Y-9.6179
X4.7755Y-3.8892
X4.815Y-9.6181
X4.9642Y-4.7755
X4.9671Y-1.6879
X5.0538Y-7.8456
X5.0866Y-5.0445
X5.0956Y-2.1153
X5.1267Y-7.6566
X5.202Y-5.0678
X5.2099Y-2.5714
X5.2484Y-5.0103
X5.2517Y-5.1451
X5.2538Y-1.8892
X5.2585Y-2.0021
X5.2624Y-9.0614
X5.364Y-6.9436
X5.3892Y-6.7015
X5.4275Y-5.096
X5.6077Y-4.9146
X5.6821Y-5.056
X5.6881Y-6.1482
X5.6997Y-4.1645
X5.7324Y-7.3731
X5.8317Y-5.0649
X5.8355Y-3.763
X5.9298Y-3.7531
X6.0035Y-5.6584
X6.0324Y-4.1625
X6.063Y-6.1735
X6.1454Y-3.4338
X6.171Y-2.7464
X6.1869Y-8.4995
X6.2139Y-3.496
X6.2139Y-3.401
X6.24Y-9.5211
X6.3411Y-6.9248
X6.3563Y-5.1898
X6.3704Y-9.683
X6.3835Y-6.1753
X6.4316Y-4.4181
X6.4756Y-3.3972
X6.4826Y-6.3653
X6.4844Y-3.7835
X6.49Y-7.622
X6.5645Y-8.549
X6.5849Y-8.3198
X6.5979Y-5.3254
X6.6316Y-4.2399
X6.6358Y-5.4446
X6.657Y-6.6815
X6.7281Y-6.5349
X6.8265Y-3.6778
X6.8391Y-5.7174
X6.9204Y-4.4391
X6.9217Y-7.3
X6.9473Y-8.5889
X6.9549Y-4.9261
X6.958Y-8.112
X6.97Y-7.8871
X6.9757Y-8.1807
X7.0651Y-3.7674
X7.0902Y-7.5204
X7.1576Y-7.138
X7.2367Y-3.7473
X7.2442Y-4.4315
X7.2506Y-1.9722
X7.2572Y-7.1099
X7.2585Y-7.9201
X7.2817Y-8.457
X7.2832Y-7.8019
X7.3027Y-7.1992
X7.3207Y-3.5028
X7.3238Y-5.9525
X7.3424Y-5.8399
X7.3554Y-7.1684
X7.3775Y-3.0201
X7.4671Y-7.1987
X7.5059Y-1.8344
X7.5654Y-6.0362
X7.5803Y-2.6453
X7.6775Y-5.9848
X7.6916Y-4.659
X7.7113Y-3.6036
X7.7116Y-3.5106
X7.7579Y-4.0828
X7.8124Y-2.465
X7.8132Y-6.9083
X7.8216Y-4.6123
X7.8314Y-7.1052
X7.8754Y-4.2855
X7.8928Y-8.8535
X7.9381Y-6.0328
X7.9535Y-5.8155
X7.9594Y-7.1679
X7.9842Y-2.5953
X7.9976Y-7.2358
X8.048Y-2.0935
X8.102Y-8.2834
X8.2118Y-5.6692
X8.2259Y-5.4647
X8.255Y-4.8021
X8.283Y-4.2248
X8.2879Y-9.131
X8.3138Y-5.6561
X8.3438Y-7.1851
X8.3716Y-4.9924
X8.3779Y-5.3247
X8.4534Y-5.9587
X8.4575Y-3.0956
X8.4599Y-6.8128
X8.4698Y-6.8899
X8.4768Y-2.4206
X8.4995Y-5.7751
X8.527Y-8.2671
X8.5331Y-3.8871
X8.5961Y-8.4988
X8.613Y-3.297
X8.6569Y-7.4665
X8.669Y-9.0804
X8.6846Y-7.4135
X8.7026Y-7.3759
X8.7148Y-9.117
X8.7204Y-7.2877
X8.7205Y-4.9572
X8.7366Y-8.9803
X8.7381Y-7.2033
X8.7451Y-6.1499
X8.7569Y-8.1839
X8.7897Y-1.4418
X8.801Y-4.8808
X8.8339Y-8.8029
X8.8391Y-5.5511
X8.8652Y-8.512
X8.926Y-8.0973
X8.9364Y-7.1624
X8.9606Y-5.5125
X8.9797Y-5.2088
X9.0091Y-5.9984
X9.045Y-6.8886
X9.0868Y-5.6928
X9.1383Y-6.5608
X9.1383Y-7.5629
X9.1457Y-7.9656
X9.2446Y-5.3834
X9.2676Y-5.3027
X9.2945Y-5.9748
X9.3027Y-4.3595
X9.3128Y-3.8472
X9.3514Y-8.2303
X9.3664Y-5.1705
X9.3983Y-8.1255
X9.4416Y-6.6485
X9.4417Y-5.2497
X9.4728Y-3.4726
X9.4902Y-5.1855
X9.6878Y-6.9983
X9.7474Y-7.4122
X9.7497Y-8.194
X9.7564Y-7.5679
X9.7807Y-7.8452
X9.7876Y-8.04
X9.9444Y-5.1628
X9.9465Y-5.7553
X10.0209Y-7.0086
X10.0319Y-7.749
X10.0372Y-5.1251
X10.1121Y-6.5116
T2
X9.492Y-9.653
X9.542Y-9.603
X9.592Y-9.653
T3
X1.586Y-5.497
X1.586Y-5.597
X1.586Y-5.697
X1.586Y-5.797
X1.586Y-5.897
X1.586Y-5.997
X1.586Y-6.097
X1.6281Y-5.229
X1.825Y-5.229
X1.8797Y-3.1827
X1.886Y-5.497
X1.886Y-5.597
X1.886Y-5.697
X1.886Y-5.797
X1.886Y-5.897
X1.886Y-5.997
X1.886Y-6.097
X1.929Y-2.506
X1.929Y-2.806
X1.9782Y-3.1827
X2.6586Y-3.183
X2.757Y-3.183
X3.4647Y-3.1827
X3.5632Y-3.1827
X4.2806Y-3.192
X4.379Y-3.192
X4.6448Y-8.9029
X4.652Y-9.186
X4.652Y-9.431
X4.652Y-9.683
X4.674Y-5.562
X4.674Y-5.662
X4.674Y-5.762
X4.674Y-5.862
X4.674Y-5.962
X4.674Y-6.062
X4.674Y-6.162
X4.7201Y-5.291
X4.8417Y-8.9029
X4.917Y-5.291
X4.952Y-9.186
X4.952Y-9.431
X4.952Y-9.683
X4.974Y-5.562
X4.974Y-5.662
X4.974Y-5.762
X4.974Y-5.862
X4.974Y-5.962
X4.974Y-6.062
X4.974Y-6.162
X5.001Y-7.15
X5.001Y-7.25
X5.001Y-7.35
X5.001Y-7.45
X5.001Y-7.55
X5.001Y-7.65
X5.001Y-7.75
X5.0511Y-6.865
X5.0766Y-3.166
X5.175Y-3.166
X5.248Y-6.865
X5.301Y-7.15
X5.301Y-7.25
X5.301Y-7.35
X5.301Y-7.45
X5.301Y-7.55
X5.301Y-7.65
X5.301Y-7.75
X5.599Y-6.477
X5.629Y-5.502
X5.629Y-5.602
X5.629Y-5.702
X5.629Y-5.802
X5.629Y-5.902
X5.629Y-6.002
X5.629Y-6.102
X5.629Y-6.202
X5.657Y-8.124
X5.657Y-8.224
X5.657Y-8.324
X5.657Y-8.424
X5.657Y-8.524
X5.657Y-8.624
X5.657Y-8.724
X5.657Y-8.824
X5.657Y-8.924
X5.657Y-9.024
X5.665Y-6.802
X5.665Y-6.902
X5.665Y-7.002
X5.665Y-7.102
X5.665Y-7.202
X5.665Y-7.302
X5.665Y-7.402
X5.665Y-7.502
X5.665Y-7.602
X5.665Y-7.702
X5.6831Y-5.217
X5.7117Y-9.5207
X5.8102Y-9.5207
X5.88Y-5.217
X5.899Y-6.477
X5.929Y-5.502
X5.929Y-5.602
X5.929Y-5.702
X5.929Y-5.802
X5.929Y-5.902
X5.929Y-6.002
X5.929Y-6.102
X5.929Y-6.202
X5.957Y-8.124
X5.957Y-8.224
X5.957Y-8.324
X5.957Y-8.424
X5.957Y-8.524
X5.957Y-8.624
X5.957Y-8.724
X5.957Y-8.824
X5.957Y-8.924
X5.957Y-9.024
X5.965Y-6.802
X5.965Y-6.902
X5.965Y-7.002
X5.965Y-7.102
X5.965Y-7.202
X5.965Y-7.302
X5.965Y-7.402
X5.965Y-7.502
X5.965Y-7.602
X5.965Y-7.702
X6.0331Y-6.477
X6.0816Y-9.546
X6.18Y-9.546
X6.203Y-8.1071
X6.203Y-8.304
X6.204Y-6.781
X6.204Y-6.9779
X6.23Y-6.477
X6.298Y-1.928
X6.298Y-2.028
X6.298Y-2.128
X6.298Y-2.228
X6.298Y-2.328
X6.298Y-2.428
X6.298Y-2.528
X6.3391Y-1.631
X6.34Y-2.957
X6.34Y-3.057
X6.34Y-3.157
X6.34Y-3.257
X6.34Y-3.357
X6.34Y-3.457
X6.34Y-3.557
X6.34Y-3.657
X6.357Y-6.477
X6.379Y-5.499
X6.379Y-5.599
X6.379Y-5.699
X6.379Y-5.799
X6.379Y-5.899
X6.379Y-5.999
X6.379Y-6.099
X6.417Y-6.822
X6.417Y-6.922
X6.417Y-7.022
X6.417Y-7.122
X6.417Y-7.222
X6.417Y-7.322
X6.417Y-7.422
X6.417Y-7.522
X6.417Y-7.622
X6.417Y-7.722
X6.4411Y-5.223
X6.4547Y-9.5477
X6.507Y-8.311
X6.507Y-8.411
X6.507Y-8.511
X6.507Y-8.611
X6.507Y-8.711
X6.507Y-8.811
X6.507Y-8.911
X6.507Y-9.011
X6.536Y-1.631
X6.5532Y-9.5477
X6.5651Y-8.032
X6.598Y-1.928
X6.598Y-2.028
X6.598Y-2.128
X6.598Y-2.228
X6.598Y-2.328
X6.598Y-2.428
X6.598Y-2.528
X6.638Y-5.223
X6.64Y-2.957
X6.64Y-3.057
X6.64Y-3.157
X6.64Y-3.257
X6.64Y-3.357
X6.64Y-3.457
X6.64Y-3.557
X6.64Y-3.657
X6.657Y-6.477
X6.679Y-5.499
X6.679Y-5.599
X6.679Y-5.699
X6.679Y-5.799
X6.679Y-5.899
X6.679Y-5.999
X6.679Y-6.099
X6.717Y-6.822
X6.717Y-6.922
X6.717Y-7.022
X6.717Y-7.122
X6.717Y-7.222
X6.717Y-7.322
X6.717Y-7.422
X6.717Y-7.522
X6.717Y-7.622
X6.717Y-7.722
X6.7441Y-2.753
X6.762Y-8.032
X6.807Y-8.311
X6.807Y-8.411
X6.807Y-8.511
X6.807Y-8.611
X6.807Y-8.711
X6.807Y-8.811
X6.807Y-8.911
X6.807Y-9.011
X6.897Y-6.8141
X6.897Y-7.011
X6.941Y-2.753
X7.16Y-1.591
X7.165Y-7.707
X7.165Y-7.807
X7.165Y-7.907
X7.165Y-8.007
X7.165Y-8.107
X7.165Y-8.207
X7.165Y-8.307
X7.165Y-8.407
X7.165Y-8.507
X7.165Y-8.607
X7.165Y-8.707
X7.165Y-8.807
X7.165Y-8.907
X7.165Y-9.007
X7.168Y-1.899
X7.168Y-1.999
X7.168Y-2.099
X7.168Y-2.199
X7.168Y-2.299
X7.168Y-2.399
X7.168Y-2.499
X7.168Y-2.869
X7.168Y-2.969
X7.168Y-3.069
X7.168Y-3.169
X7.168Y-3.269
X7.168Y-3.369
X7.168Y-3.469
X7.168Y-3.885
X7.168Y-3.985
X7.168Y-4.085
X7.168Y-4.185
X7.168Y-4.285
X7.168Y-4.385
X7.168Y-4.485
X7.168Y-4.585
X7.168Y-4.685
X7.168Y-5.088
X7.168Y-5.188
X7.168Y-5.288
X7.168Y-5.388
X7.168Y-5.488
X7.168Y-5.588
X7.168Y-5.688
X7.168Y-6.094
X7.168Y-6.194
X7.168Y-6.294
X7.168Y-6.394
X7.168Y-6.494
X7.168Y-6.594
X7.168Y-6.694
X7.168Y-6.794
X7.168Y-6.894
X7.168Y-6.994
X7.46Y-1.591
X7.468Y-1.899
X7.468Y-1.999
X7.468Y-2.099
X7.468Y-2.199
X7.468Y-2.299
X7.468Y-2.399
X7.468Y-2.499
X7.468Y-2.869
X7.468Y-2.969
X7.468Y-3.069
X7.468Y-3.169
X7.468Y-3.269
X7.468Y-3.369
X7.468Y-3.469
X7.468Y-3.885
X7.468Y-3.985
X7.468Y-4.085
X7.468Y-4.185
X7.468Y-4.285
X7.468Y-4.385
X7.468Y-4.485
X7.468Y-4.585
X7.468Y-4.685
X7.468Y-5.088
X7.468Y-5.188
X7.468Y-5.288
X7.468Y-5.388
X7.468Y-5.488
X7.468Y-5.588
X7.468Y-5.688
X7.468Y-6.094
X7.468Y-6.194
X7.468Y-6.294
X7.468Y-6.394
X7.468Y-6.494
X7.468Y-6.594
X7.468Y-6.694
X7.468Y-6.794
X7.468Y-6.894
X7.468Y-6.994
X7.5131Y-3.672
X7.5151Y-5.893
X7.5671Y-1.722
X7.71Y-3.672
X7.712Y-5.893
X7.764Y-1.722
X7.765Y-7.707
X7.765Y-7.807
X7.765Y-7.907
X7.765Y-8.007
X7.765Y-8.107
X7.765Y-8.207
X7.765Y-8.307
X7.765Y-8.407
X7.765Y-8.507
X7.765Y-8.607
X7.765Y-8.707
X7.765Y-8.807
X7.765Y-8.907
X7.765Y-9.007
X7.891Y-1.911
X7.891Y-2.011
X7.891Y-2.111
X7.891Y-2.211
X7.891Y-2.311
X7.891Y-2.411
X7.891Y-2.511
X7.891Y-2.611
X7.891Y-2.711
X7.891Y-2.811
X7.891Y-3.433
X7.891Y-3.533
X7.891Y-3.633
X7.891Y-3.733
X7.891Y-3.833
X7.891Y-3.933
X7.891Y-4.033
X7.891Y-4.443
X7.891Y-4.543
X7.891Y-4.643
X7.891Y-4.743
X7.891Y-4.843
X7.891Y-4.943
X7.891Y-5.043
X7.891Y-5.143
X7.891Y-5.243
X7.891Y-5.343
X7.891Y-5.885
X7.891Y-5.985
X7.891Y-6.085
X7.891Y-6.185
X7.891Y-6.285
X7.891Y-6.385
X7.891Y-6.485
X7.891Y-6.585
X7.891Y-6.685
X7.891Y-6.785
X7.891Y-6.885
X7.891Y-6.985
X7.9451Y-5.63
X7.9531Y-3.116
X8.059Y-7.506
X8.059Y-7.7029
X8.142Y-5.63
X8.15Y-3.116
X8.191Y-1.911
X8.191Y-2.011
X8.191Y-2.111
X8.191Y-2.211
X8.191Y-2.311
X8.191Y-2.411
X8.191Y-2.511
X8.191Y-2.611
X8.191Y-2.711
X8.191Y-2.811
X8.191Y-3.433
X8.191Y-3.533
X8.191Y-3.633
X8.191Y-3.733
X8.191Y-3.833
X8.191Y-3.933
X8.191Y-4.033
X8.191Y-4.443
X8.191Y-4.543
X8.191Y-4.643
X8.191Y-4.743
X8.191Y-4.843
X8.191Y-4.943
X8.191Y-5.043
X8.191Y-5.143
X8.191Y-5.243
X8.191Y-5.343
X8.191Y-5.885
X8.191Y-5.985
X8.191Y-6.085
X8.191Y-6.185
X8.191Y-6.285
X8.191Y-6.385
X8.191Y-6.485
X8.191Y-6.585
X8.191Y-6.685
X8.191Y-6.785
X8.191Y-6.885
X8.191Y-6.985
X8.1921Y-1.715
X8.389Y-1.715
X8.3941Y-7.273
X8.425Y-7.512
X8.425Y-7.612
X8.425Y-7.712
X8.425Y-7.812
X8.425Y-7.912
X8.425Y-8.012
X8.425Y-8.112
X8.425Y-8.212
X8.425Y-8.312
X8.425Y-8.412
X8.425Y-8.512
X8.425Y-8.612
X8.425Y-8.712
X8.425Y-8.812
X8.425Y-8.912
X8.425Y-9.012
X8.5768Y-4.7072
X8.5768Y-4.8072
X8.5768Y-4.9072
X8.5768Y-5.0072
X8.5768Y-5.1072
X8.5768Y-5.2072
X8.5768Y-5.3072
X8.5768Y-5.4072
X8.5768Y-5.8942
X8.5768Y-5.9942
X8.5768Y-6.0942
X8.5768Y-6.1942
X8.5768Y-6.2942
X8.5768Y-6.3942
X8.5768Y-6.4942
X8.5768Y-6.5942
X8.5768Y-6.6942
X8.5768Y-6.7942
X8.5768Y-6.8942
X8.5768Y-6.9942
X8.591Y-7.273
X8.629Y-1.4613
X8.629Y-1.7613
X8.656Y-4.398
X8.8529Y-4.398
X8.8768Y-4.7072
X8.8768Y-4.8072
X8.8768Y-4.9072
X8.8768Y-5.0072
X8.8768Y-5.1072
X8.8768Y-5.2072
X8.8768Y-5.3072
X8.8768Y-5.4072
X8.8768Y-5.8942
X8.8768Y-5.9942
X8.8768Y-6.0942
X8.8768Y-6.1942
X8.8768Y-6.2942
X8.8768Y-6.3942
X8.8768Y-6.4942
X8.8768Y-6.5942
X8.8768Y-6.6942
X8.8768Y-6.7942
X8.8768Y-6.8942
X8.8768Y-6.9942
X8.9308Y-1.4613
X8.9308Y-1.7613
X9.025Y-7.512
X9.025Y-7.612
X9.025Y-7.712
X9.025Y-7.812
X9.025Y-7.912
X9.025Y-8.012
X9.025Y-8.112
X9.025Y-8.212
X9.025Y-8.312
X9.025Y-8.412
X9.025Y-8.512
X9.025Y-8.612
X9.025Y-8.712
X9.025Y-8.812
X9.025Y-8.912
X9.025Y-9.012
X9.126Y-5.8921
X9.126Y-6.089
X9.151Y-2.195
X9.151Y-2.295
X9.151Y-2.395
X9.151Y-2.495
X9.151Y-2.595
X9.151Y-2.695
X9.151Y-2.795
X9.151Y-2.895
X9.151Y-2.995
X9.151Y-3.095
X9.151Y-3.195
X9.151Y-3.295
X9.151Y-3.395
X9.151Y-3.495
X9.151Y-3.595
X9.151Y-3.695
X9.151Y-3.795
X9.151Y-3.895
X9.151Y-3.995
X9.151Y-4.095
X9.1546Y-4.769
X9.1841Y-7.617
X9.2011Y-6.882
X9.2021Y-7.894
X9.2326Y-1.4613
X9.2326Y-1.7613
X9.253Y-4.769
X9.287Y-7.152
X9.287Y-7.3441
X9.299Y-8.086
X9.299Y-8.386
X9.302Y-8.521
X9.302Y-8.821
X9.3129Y-8.9787
X9.3129Y-9.2787
X9.381Y-7.617
X9.398Y-6.882
X9.399Y-7.894
X9.5344Y-1.4613
X9.5344Y-1.7613
X9.57Y-7.094
X9.57Y-7.194
X9.57Y-7.294
X9.57Y-7.394
X9.57Y-7.494
X9.57Y-7.594
X9.57Y-7.694
X9.57Y-7.794
X9.57Y-7.894
X9.57Y-7.994
X9.57Y-8.094
X9.57Y-8.194
X9.57Y-8.294
X9.57Y-8.394
X9.57Y-8.494
X9.57Y-8.594
X9.57Y-8.694
X9.57Y-8.794
X9.57Y-8.894
X9.57Y-8.994
X9.582Y-4.678
X9.582Y-4.778
X9.582Y-4.878
X9.582Y-4.978
X9.582Y-5.078
X9.582Y-5.178
X9.582Y-5.278
X9.582Y-5.378
X9.582Y-5.478
X9.582Y-5.578
X9.582Y-5.678
X9.582Y-5.778
X9.582Y-5.878
X9.582Y-5.978
X9.582Y-6.078
X9.582Y-6.178
X9.582Y-6.278
X9.582Y-6.378
X9.582Y-6.478
X9.582Y-6.578
X9.751Y-2.195
X9.751Y-2.295
X9.751Y-2.395
X9.751Y-2.495
X9.751Y-2.595
X9.751Y-2.695
X9.751Y-2.795
X9.751Y-2.895
X9.751Y-2.995
X9.751Y-3.095
X9.751Y-3.195
X9.751Y-3.295
X9.751Y-3.395
X9.751Y-3.495
X9.751Y-3.595
X9.751Y-3.695
X9.751Y-3.795
X9.751Y-3.895
X9.751Y-3.995
X9.751Y-4.095
X9.8362Y-1.4613
X9.8362Y-1.7613
X9.8423Y-9.3029
X10.138Y-1.4613
X10.138Y-1.7613
X10.1423Y-9.3029
X10.17Y-7.094
X10.17Y-7.194
X10.17Y-7.294
X10.17Y-7.394
X10.17Y-7.494
X10.17Y-7.594
X10.17Y-7.694
X10.17Y-7.794
X10.17Y-7.894
X10.17Y-7.994
X10.17Y-8.094
X10.17Y-8.194
X10.17Y-8.294
X10.17Y-8.394
X10.17Y-8.494
X10.17Y-8.594
X10.17Y-8.694
X10.17Y-8.794
X10.17Y-8.894
X10.17Y-8.994
X10.182Y-4.678
X10.182Y-4.778
X10.182Y-4.878
X10.182Y-4.978
X10.182Y-5.078
X10.182Y-5.178
X10.182Y-5.278
X10.182Y-5.378
X10.182Y-5.478
X10.182Y-5.578
X10.182Y-5.678
X10.182Y-5.778
X10.182Y-5.878
X10.182Y-5.978
X10.182Y-6.078
X10.182Y-6.178
X10.182Y-6.278
X10.182Y-6.378
X10.182Y-6.478
X10.182Y-6.578
X10.395Y-7.893
X10.395Y-8.0899
X10.442Y-4.6611
X10.442Y-4.858
T4
X8.519Y-1.253
X8.619Y-1.253
X8.824Y-1.253
X8.924Y-1.253
X9.129Y-1.253
X9.229Y-1.253
X9.434Y-1.253
X9.534Y-1.253
X9.739Y-1.253
X9.839Y-1.253
X10.044Y-1.253
X10.144Y-1.253
T5
X1.889Y-4.358
X1.889Y-4.458
X1.889Y-4.558
X1.889Y-4.658
X1.889Y-4.758
X1.889Y-4.858
X1.989Y-4.358
X1.989Y-4.458
X1.989Y-4.558
X1.989Y-4.658
X1.989Y-4.758
X1.989Y-4.858
X2.6787Y-4.358
X2.6787Y-4.458
X2.6787Y-4.558
X2.6787Y-4.658
X2.6787Y-4.758
X2.6787Y-4.858
X2.7787Y-4.358
X2.7787Y-4.458
X2.7787Y-4.558
X2.7787Y-4.658
X2.7787Y-4.758
X2.7787Y-4.858
X3.492Y-4.358
X3.492Y-4.458
X3.492Y-4.558
X3.492Y-4.658
X3.492Y-4.758
X3.492Y-4.858
X3.592Y-4.358
X3.592Y-4.458
X3.592Y-4.558
X3.592Y-4.658
X3.592Y-4.758
X3.592Y-4.858
X4.299Y-4.358
X4.299Y-4.458
X4.299Y-4.558
X4.299Y-4.658
X4.299Y-4.758
X4.299Y-4.858
X4.399Y-4.358
X4.399Y-4.458
X4.399Y-4.558
X4.399Y-4.658
X4.399Y-4.758
X4.399Y-4.858
X5.0171Y-8.7258
X5.0171Y-8.903
X5.083Y-4.358
X5.083Y-4.458
X5.083Y-4.558
X5.083Y-4.658
X5.083Y-4.758
X5.083Y-4.858
X5.183Y-4.358
X5.183Y-4.458
X5.183Y-4.558
X5.183Y-4.658
X5.183Y-4.758
X5.183Y-4.858
X5.273Y-8.7258
X5.273Y-8.903
X5.283Y-9.467
X5.283Y-9.567
X5.889Y-4.358
X5.889Y-4.458
X5.889Y-4.558
X5.889Y-4.658
X5.889Y-4.758
X5.889Y-4.858
X5.989Y-4.358
X5.989Y-4.458
X5.989Y-4.558
X5.989Y-4.658
X5.989Y-4.758
X5.989Y-4.858
X6.952Y-9.583
X6.952Y-9.683
X7.052Y-9.583
X7.052Y-9.683
X7.152Y-9.583
X7.152Y-9.683
X7.252Y-9.583
X7.252Y-9.683
X7.352Y-9.583
X7.352Y-9.683
X7.452Y-9.583
X7.452Y-9.683
X7.474Y-0.9
X7.552Y-9.583
X7.552Y-9.683
X7.574Y-0.9
X7.652Y-9.583
X7.652Y-9.683
X7.674Y-0.9
X7.752Y-9.583
X7.752Y-9.683
X7.774Y-0.9
X7.852Y-9.583
X7.852Y-9.683
X7.874Y-0.9
X7.952Y-9.583
X7.952Y-9.683
X7.974Y-0.9
X8.052Y-9.583
X8.052Y-9.683
X8.074Y-0.9
X8.152Y-9.583
X8.152Y-9.683
X8.174Y-0.9
X8.215Y-1.203
X8.215Y-1.303
X8.252Y-9.583
X8.252Y-9.683
X8.274Y-0.9
X8.352Y-9.583
X8.352Y-9.683
X8.374Y-0.9
X8.452Y-9.583
X8.452Y-9.683
X8.474Y-0.9
X8.51Y-2.157
X8.51Y-2.257
X8.552Y-9.583
X8.552Y-9.683
X8.652Y-9.583
X8.652Y-9.683
X8.752Y-9.583
X8.752Y-9.683
X8.767Y-0.899
X8.852Y-9.583
X8.852Y-9.683
X8.867Y-0.899
X8.967Y-0.899
X9.067Y-0.899
X9.167Y-0.899
X9.221Y-9.535
X9.221Y-9.635
X9.221Y-9.735
X9.267Y-0.899
X9.549Y-0.9
X9.649Y-0.9
X9.749Y-0.9
X9.849Y-0.9
X9.8561Y-9.5438
X9.8561Y-9.721
X9.949Y-0.9
X10.049Y-0.9
X10.112Y-9.5438
X10.112Y-9.721
X10.149Y-0.9
X10.4Y-9.5838
X10.4Y-9.6838
X10.413Y-9.1398
X10.413Y-9.2398
X10.548Y-3.184
X10.548Y-3.284
X10.548Y-3.384
X10.548Y-3.484
X10.548Y-3.584
X10.548Y-3.684
X10.548Y-3.784
X10.548Y-3.884
X10.548Y-3.984
X10.548Y-4.084
X10.648Y-3.184
X10.648Y-3.284
X10.648Y-3.384
X10.648Y-3.484
X10.648Y-3.584
X10.648Y-3.684
X10.648Y-3.784
X10.648Y-3.884
X10.648Y-3.984
X10.648Y-4.084
T6
X1.4387Y-1.7892
X1.4387Y-1.8892
X1.4387Y-1.9892
X1.4387Y-2.0892
X1.4387Y-2.1892
X1.4387Y-2.2892
X1.4387Y-2.3892
X1.4387Y-2.4892
X1.4387Y-2.5892
X1.4387Y-2.6892
X1.4387Y-2.7892
X1.4387Y-2.8892
X1.4387Y-2.9892
X1.4387Y-3.0892
X1.4387Y-3.1892
X1.4387Y-3.2892
X1.4387Y-3.3892
X1.4387Y-3.4892
X1.4387Y-3.5892
X1.4387Y-3.6892
X1.4387Y-3.7892
X1.4387Y-3.8892
X1.4387Y-3.9892
X1.4387Y-4.0892
X1.4387Y-4.1892
X1.4387Y-4.2892
X1.4387Y-4.3892
X1.4387Y-4.4892
X1.4387Y-4.5892
X1.4387Y-4.6892
X1.4387Y-4.7892
X1.6387Y-1.7892
X1.6387Y-1.8892
X1.6387Y-1.9892
X1.6387Y-2.0892
X1.6387Y-2.1892
X1.6387Y-2.2892
X1.6387Y-2.3892
X1.6387Y-2.4892
X1.6387Y-2.5892
X1.6387Y-2.6892
X1.6387Y-2.7892
X1.6387Y-2.8892
X1.6387Y-2.9892
X1.6387Y-3.0892
X1.6387Y-3.1892
X1.6387Y-3.2892
X1.6387Y-3.3892
X1.6387Y-3.4892
X1.6387Y-3.5892
X1.6387Y-3.6892
X1.6387Y-3.7892
X1.6387Y-3.8892
X1.6387Y-3.9892
X1.6387Y-4.0892
X1.6387Y-4.1892
X1.6387Y-4.2892
X1.6387Y-4.3892
X1.6387Y-4.4892
X1.6387Y-4.5892
X1.6387Y-4.6892
X1.6387Y-4.7892
X2.2387Y-1.7892
X2.2387Y-1.8892
X2.2387Y-1.9892
X2.2387Y-2.0892
X2.2387Y-2.1892
X2.2387Y-2.2892
X2.2387Y-2.3892
X2.2387Y-2.4892
X2.2387Y-2.5892
X2.2387Y-2.6892
X2.2387Y-2.7892
X2.2387Y-2.8892
X2.2387Y-2.9892
X2.2387Y-3.0892
X2.2387Y-3.1892
X2.2387Y-3.2892
X2.2387Y-3.3892
X2.2387Y-3.4892
X2.2387Y-3.5892
X2.2387Y-3.6892
X2.2387Y-3.7892
X2.2387Y-3.8892
X2.2387Y-3.9892
X2.2387Y-4.0892
X2.2387Y-4.1892
X2.2387Y-4.2892
X2.2387Y-4.3892
X2.2387Y-4.4892
X2.2387Y-4.5892
X2.2387Y-4.6892
X2.2387Y-4.7892
X2.4387Y-1.7892
X2.4387Y-1.8892
X2.4387Y-1.9892
X2.4387Y-2.0892
X2.4387Y-2.1892
X2.4387Y-2.2892
X2.4387Y-2.3892
X2.4387Y-2.4892
X2.4387Y-2.5892
X2.4387Y-2.6892
X2.4387Y-2.7892
X2.4387Y-2.8892
X2.4387Y-2.9892
X2.4387Y-3.0892
X2.4387Y-3.1892
X2.4387Y-3.2892
X2.4387Y-3.3892
X2.4387Y-3.4892
X2.4387Y-3.5892
X2.4387Y-3.6892
X2.4387Y-3.7892
X2.4387Y-3.8892
X2.4387Y-3.9892
X2.4387Y-4.0892
X2.4387Y-4.1892
X2.4387Y-4.2892
X2.4387Y-4.3892
X2.4387Y-4.4892
X2.4387Y-4.5892
X2.4387Y-4.6892
X2.4387Y-4.7892
X3.0387Y-1.7892
X3.0387Y-1.8892
X3.0387Y-1.9892
X3.0387Y-2.0892
X3.0387Y-2.1892
X3.0387Y-2.2892
X3.0387Y-2.3892
X3.0387Y-2.4892
X3.0387Y-2.5892
X3.0387Y-2.6892
X3.0387Y-2.7892
X3.0387Y-2.8892
X3.0387Y-2.9892
X3.0387Y-3.0892
X3.0387Y-3.1892
X3.0387Y-3.2892
X3.0387Y-3.3892
X3.0387Y-3.4892
X3.0387Y-3.5892
X3.0387Y-3.6892
X3.0387Y-3.7892
X3.0387Y-3.8892
X3.0387Y-3.9892
X3.0387Y-4.0892
X3.0387Y-4.1892
X3.0387Y-4.2892
X3.0387Y-4.3892
X3.0387Y-4.4892
X3.0387Y-4.5892
X3.0387Y-4.6892
X3.0387Y-4.7892
X3.2387Y-1.7892
X3.2387Y-1.8892
X3.2387Y-1.9892
X3.2387Y-2.0892
X3.2387Y-2.1892
X3.2387Y-2.2892
X3.2387Y-2.3892
X3.2387Y-2.4892
X3.2387Y-2.5892
X3.2387Y-2.6892
X3.2387Y-2.7892
X3.2387Y-2.8892
X3.2387Y-2.9892
X3.2387Y-3.0892
X3.2387Y-3.1892
X3.2387Y-3.2892
X3.2387Y-3.3892
X3.2387Y-3.4892
X3.2387Y-3.5892
X3.2387Y-3.6892
X3.2387Y-3.7892
X3.2387Y-3.8892
X3.2387Y-3.9892
X3.2387Y-4.0892
X3.2387Y-4.1892
X3.2387Y-4.2892
X3.2387Y-4.3892
X3.2387Y-4.4892
X3.2387Y-4.5892
X3.2387Y-4.6892
X3.2387Y-4.7892
X3.8387Y-1.7892
X3.8387Y-1.8892
X3.8387Y-1.9892
X3.8387Y-2.0892
X3.8387Y-2.1892
X3.8387Y-2.2892
X3.8387Y-2.3892
X3.8387Y-2.4892
X3.8387Y-2.5892
X3.8387Y-2.6892
X3.8387Y-2.7892
X3.8387Y-2.8892
X3.8387Y-2.9892
X3.8387Y-3.0892
X3.8387Y-3.1892
X3.8387Y-3.2892
X3.8387Y-3.3892
X3.8387Y-3.4892
X3.8387Y-3.5892
X3.8387Y-3.6892
X3.8387Y-3.7892
X3.8387Y-3.8892
X3.8387Y-3.9892
X3.8387Y-4.0892
X3.8387Y-4.1892
X3.8387Y-4.2892
X3.8387Y-4.3892
X3.8387Y-4.4892
X3.8387Y-4.5892
X3.8387Y-4.6892
X3.8387Y-4.7892
X4.0387Y-1.7892
X4.0387Y-1.8892
X4.0387Y-1.9892
X4.0387Y-2.0892
X4.0387Y-2.1892
X4.0387Y-2.2892
X4.0387Y-2.3892
X4.0387Y-2.4892
X4.0387Y-2.5892
X4.0387Y-2.6892
X4.0387Y-2.7892
X4.0387Y-2.8892
X4.0387Y-2.9892
X4.0387Y-3.0892
X4.0387Y-3.1892
X4.0387Y-3.2892
X4.0387Y-3.3892
X4.0387Y-3.4892
X4.0387Y-3.5892
X4.0387Y-3.6892
X4.0387Y-3.7892
X4.0387Y-3.8892
X4.0387Y-3.9892
X4.0387Y-4.0892
X4.0387Y-4.1892
X4.0387Y-4.2892
X4.0387Y-4.3892
X4.0387Y-4.4892
X4.0387Y-4.5892
X4.0387Y-4.6892
X4.0387Y-4.7892
X4.6387Y-1.7892
X4.6387Y-1.8892
X4.6387Y-1.9892
X4.6387Y-2.0892
X4.6387Y-2.1892
X4.6387Y-2.2892
X4.6387Y-2.3892
X4.6387Y-2.4892
X4.6387Y-2.5892
X4.6387Y-2.6892
X4.6387Y-2.7892
X4.6387Y-2.8892
X4.6387Y-2.9892
X4.6387Y-3.0892
X4.6387Y-3.1892
X4.6387Y-3.2892
X4.6387Y-3.3892
X4.6387Y-3.4892
X4.6387Y-3.5892
X4.6387Y-3.6892
X4.6387Y-3.7892
X4.6387Y-3.8892
X4.6387Y-3.9892
X4.6387Y-4.0892
X4.6387Y-4.1892
X4.6387Y-4.2892
X4.6387Y-4.3892
X4.6387Y-4.4892
X4.6387Y-4.5892
X4.6387Y-4.6892
X4.6387Y-4.7892
X4.8387Y-1.7892
X4.8387Y-1.8892
X4.8387Y-1.9892
X4.8387Y-2.0892
X4.8387Y-2.1892
X4.8387Y-2.2892
X4.8387Y-2.3892
X4.8387Y-2.4892
X4.8387Y-2.5892
X4.8387Y-2.6892
X4.8387Y-2.7892
X4.8387Y-2.8892
X4.8387Y-2.9892
X4.8387Y-3.0892
X4.8387Y-3.1892
X4.8387Y-3.2892
X4.8387Y-3.3892
X4.8387Y-3.4892
X4.8387Y-3.5892
X4.8387Y-3.6892
X4.8387Y-3.7892
X4.8387Y-3.8892
X4.8387Y-3.9892
X4.8387Y-4.0892
X4.8387Y-4.1892
X4.8387Y-4.2892
X4.8387Y-4.3892
X4.8387Y-4.4892
X4.8387Y-4.5892
X4.8387Y-4.6892
X4.8387Y-4.7892
X5.4387Y-1.7892
X5.4387Y-1.8892
X5.4387Y-1.9892
X5.4387Y-2.0892
X5.4387Y-2.1892
X5.4387Y-2.2892
X5.4387Y-2.3892
X5.4387Y-2.4892
X5.4387Y-2.5892
X5.4387Y-2.6892
X5.4387Y-2.7892
X5.4387Y-2.8892
X5.4387Y-2.9892
X5.4387Y-3.0892
X5.4387Y-3.1892
X5.4387Y-3.2892
X5.4387Y-3.3892
X5.4387Y-3.4892
X5.4387Y-3.5892
X5.4387Y-3.6892
X5.4387Y-3.7892
X5.4387Y-3.8892
X5.4387Y-3.9892
X5.4387Y-4.0892
X5.4387Y-4.1892
X5.4387Y-4.2892
X5.4387Y-4.3892
X5.4387Y-4.4892
X5.4387Y-4.5892
X5.4387Y-4.6892
X5.4387Y-4.7892
X5.6387Y-1.7892
X5.6387Y-1.8892
X5.6387Y-1.9892
X5.6387Y-2.0892
X5.6387Y-2.1892
X5.6387Y-2.2892
X5.6387Y-2.3892
X5.6387Y-2.4892
X5.6387Y-2.5892
X5.6387Y-2.6892
X5.6387Y-2.7892
X5.6387Y-2.8892
X5.6387Y-2.9892
X5.6387Y-3.0892
X5.6387Y-3.1892
X5.6387Y-3.2892
X5.6387Y-3.3892
X5.6387Y-3.4892
X5.6387Y-3.5892
X5.6387Y-3.6892
X5.6387Y-3.7892
X5.6387Y-3.8892
X5.6387Y-3.9892
X5.6387Y-4.0892
X5.6387Y-4.1892
X5.6387Y-4.2892
X5.6387Y-4.3892
X5.6387Y-4.4892
X5.6387Y-4.5892
X5.6387Y-4.6892
X5.6387Y-4.7892
T7
X4.027Y-9.444
X4.032Y-9.701
X4.427Y-9.444
X4.432Y-9.701
X10.653Y-2.421
X10.653Y-2.821
T9
X5.0962Y-9.9684
X5.0962Y-10.185
X5.2616Y-9.9684
X5.2616Y-10.185
X5.4269Y-9.9684
X5.4269Y-10.185
X5.5923Y-9.9684
X5.5923Y-10.185
X5.7576Y-9.9684
X5.7576Y-10.185
X5.923Y-9.9684
X5.923Y-10.185
X6.0883Y-9.9684
X6.0883Y-10.185
X6.2537Y-9.9684
X6.2537Y-10.185
X6.419Y-9.9684
X6.419Y-10.185
X6.5844Y-9.9684
X6.5844Y-10.185
T10
X1.8377Y-1.1871
X1.8377Y-7.2871
X1.8377Y-10.1371
X2.6377Y-1.1871
X2.6377Y-7.2871
X2.6377Y-10.1371
X4.4377Y-1.1871
X4.4377Y-7.2871
X4.4377Y-10.1371
X10.6377Y-2.0871
X10.6377Y-7.2871
X10.6377Y-10.1371
T5
G00X10.532Y-1.1916
M15
G01X10.532Y-1.1404
M16
G05
T8
G00X10.4907Y-0.9888
M15
G01X10.5733Y-0.9888
M16
G05
M30
