M48
; DRILL file {KiCad 8.0.6} date 2025-06-11T07:28:03-0500
; FORMAT={-:-/ absolute / inch / decimal}
; #@! TF.CreationDate,2025-06-11T07:28:03-05:00
; #@! TF.GenerationSoftware,Kicad,Pcbnew,8.0.6
; #@! TF.FileFunction,Plated,1,2,PTH
FMAT,2
INCH
; #@! TA.AperFunction,Plated,PTH,ViaDrill
T1C0.0157
; #@! TA.AperFunction,Plated,PTH,ComponentDrill
T2C0.0295
; #@! TA.AperFunction,Plated,PTH,ComponentDrill
T3C0.0315
; #@! TA.AperFunction,Plated,PTH,ComponentDrill
T4C0.0354
; #@! TA.AperFunction,Plated,PTH,ComponentDrill
T5C0.0394
; #@! TA.AperFunction,Plated,PTH,ComponentDrill
T6C0.0400
; #@! TA.AperFunction,Plated,PTH,ComponentDrill
T7C0.0433
; #@! TA.AperFunction,Plated,PTH,ComponentDrill
T8C0.0512
; #@! TA.AperFunction,Plated,PTH,ComponentDrill
T9C0.0669
; #@! TA.AperFunction,Plated,PTH,ComponentDrill
T10C0.1260
%
G90
G05
T1
X1.5412Y-4.1036
X1.5442Y-2.3892
X1.6385Y-1.6231
X1.7362Y-3.9089
X1.7616Y-2.3892
X1.7909Y-1.5602
X2.1754Y-4.9358
X2.2903Y-1.5123
X2.4246Y-1.7314
X2.4488Y-1.6775
X2.4488Y-5.4342
X2.5721Y-1.8762
X2.596Y-4.3969
X2.6585Y-1.6734
X2.712Y-2.5686
X2.7951Y-6.0074
X2.841Y-4.7918
X2.8505Y-5.4481
X2.8591Y-2.3633
X2.8918Y-7.4751
X2.9995Y-6.6226
X3.1637Y-3.8892
X3.2422Y-6.5324
X3.2704Y-6.1003
X3.2825Y-7.5538
X3.2871Y-7.4132
X3.4207Y-7.6949
X3.5751Y-6.229
X3.5751Y-6.5663
X3.6032Y-6.7084
X3.6086Y-6.9897
X3.6303Y-7.0599
X3.656Y-4.0953
X3.6867Y-1.706
X3.8065Y-8.0401
X3.8902Y-5.4051
X3.8978Y-1.5879
X3.9522Y-3.7978
X3.9559Y-8.1069
X3.9635Y-4.0978
X3.9653Y-4.2619
X3.9781Y-3.9892
X3.9796Y-1.6351
X3.9831Y-7.0673
X3.9884Y-3.861
X4.0296Y-7.4669
X4.0829Y-1.6824
X4.0964Y-6.7048
X4.1124Y-6.6652
X4.1638Y-2.3892
X4.172Y-8.1624
X4.2414Y-8.1354
X4.249Y-8.6233
X4.2597Y-2.5902
X4.2709Y-7.4424
X4.3575Y-7.4743
X4.3651Y-8.1239
X4.4203Y-1.8164
X4.4658Y-7.0501
X4.5906Y-6.7065
X4.6427Y-4.9308
X4.6563Y-5.0988
X4.6572Y-6.8586
X4.6695Y-4.9619
X4.7123Y-1.7267
X4.7386Y-5.2331
X4.7596Y-10.1871
X4.7596Y-5.0647
X4.7883Y-8.0932
X4.965Y-5.4625
X4.9727Y-4.8685
X5.0419Y-4.4154
X5.0529Y-4.1511
X5.0578Y-3.8392
X5.0807Y-6.1301
X5.091Y-7.7236
X5.1032Y-3.9392
X5.1204Y-7.1716
X5.1353Y-4.0552
X5.1799Y-7.3137
X5.2094Y-2.5535
X5.2151Y-5.0609
X5.2765Y-4.236
X5.2801Y-4.5414
X5.2945Y-4.2807
X5.2989Y-5.6668
X5.3595Y-5.6445
X5.3636Y-3.6965
X5.3836Y-8.6454
X5.4823Y-6.9255
X5.4874Y-3.6609
X5.4948Y-4.6934
X5.5036Y-8.1761
X5.5084Y-5.643
X5.519Y-7.589
X5.5383Y-1.8397
X5.5419Y-8.6077
X5.5546Y-6.6828
X5.561Y-7.0752
X5.6383Y-6.3461
X5.6619Y-6.2804
X5.6703Y-2.5347
X5.6919Y-9.717
X5.7Y-6.4226
X5.7173Y-6.6694
X5.7528Y-6.3572
X5.848Y-3.2752
X5.8533Y-6.3762
X5.8645Y-4.1518
X5.8891Y-6.5642
X5.9767Y-6.6
X5.9843Y-7.8059
X6.0114Y-5.222
X6.025Y-7.0589
X6.0633Y-6.6235
X6.0868Y-7.3577
X6.1245Y-6.8498
X6.1297Y-7.8411
X6.1317Y-8.1678
X6.1477Y-4.9616
X6.1483Y-5.6588
X6.153Y-7.139
X6.1605Y-3.6223
X6.186Y-8.2079
X6.2284Y-8.2094
X6.2594Y-7.0062
X6.2634Y-7.048
X6.2763Y-8.2219
X6.2777Y-7.3724
X6.3071Y-8.2545
X6.3316Y-5.2598
X6.3763Y-6.1838
X6.3849Y-3.892
X6.4204Y-3.8089
X6.4421Y-4.393
X6.4553Y-6.3863
X6.4871Y-4.6308
X6.4878Y-4.766
X6.5236Y-5.8093
X6.5636Y-3.9496
X6.5709Y-6.2786
X6.5869Y-3.9173
X6.614Y-5.1189
X6.6266Y-1.1481
X6.6371Y-9.2299
X6.6738Y-3.9211
X6.6886Y-5.1624
X6.6888Y-9.1049
X6.7036Y-3.3089
X6.7401Y-5.7378
X6.7771Y-9.1634
X6.8109Y-9.2666
X6.832Y-9.1572
X6.8495Y-5.8168
X6.9328Y-6.6442
X6.956Y-7.955
X6.956Y-8.907
X6.9986Y-9.6237
X6.9997Y-7.109
X7.0055Y-7.716
X7.0117Y-5.9503
X7.0129Y-5.1214
X7.0866Y-9.1214
X7.1109Y-8.761
X7.1187Y-3.7841
X7.2062Y-5.783
X7.2307Y-3.9419
X7.253Y-3.7827
X7.2536Y-7.876
X7.2601Y-2.2605
X7.2702Y-9.3636
X7.2754Y-2.544
X7.2819Y-3.3436
X7.2834Y-4.2813
X7.3815Y-1.615
X7.3822Y-2.9876
X7.39Y-6.0083
X7.4494Y-1.4012
X7.5039Y-9.1142
X7.508Y-4.9324
X7.5515Y-4.97
X7.5704Y-3.7322
X7.6003Y-5.2133
X7.6123Y-2.5072
X7.6274Y-4.4239
X7.6617Y-3.7037
X7.6645Y-4.6493
X7.6651Y-5.1893
X7.6752Y-4.3625
X7.7049Y-4.4469
X7.7338Y-4.4757
X7.7344Y-3.937
X7.7391Y-5.3619
X7.7564Y-4.0091
X7.8028Y-6.8391
X7.8383Y-5.4291
X7.8952Y-8.1934
X7.9273Y-7.6379
X7.9494Y-6.335
X7.9653Y-5.043
X8.0029Y-6.952
X8.0118Y-7.0395
X8.0313Y-7.7796
X8.0618Y-3.8402
X8.0983Y-4.4404
X8.1294Y-4.3846
X8.1825Y-9.1142
X8.1862Y-7.0591
X8.2058Y-7.9227
X8.26Y-7.1371
X8.2838Y-5.8499
X8.3085Y-6.2388
X8.3303Y-2.3737
X8.3428Y-6.0393
X8.3529Y-7.3184
X8.3727Y-6.4709
X8.3932Y-5.8259
X8.4549Y-3.5744
X8.4645Y-7.0126
X8.4782Y-6.1483
X8.4966Y-1.6615
X8.5477Y-8.5478
X8.6002Y-9.1381
X8.6373Y-7.355
X8.6888Y-7.4067
X8.6904Y-9.0865
X8.6919Y-7.1038
X8.719Y-8.9677
X8.7656Y-8.2654
X8.766Y-6.3952
X8.79Y-6.3523
X8.8452Y-9.497
X8.857Y-7.391
X8.857Y-8.8908
X8.9325Y-8.4456
X8.9479Y-5.5998
X8.9865Y-1.0495
X9.002Y-3.581
X9.0175Y-3.6594
X9.0508Y-5.0267
X9.0919Y-8.1812
X9.1023Y-0.9609
X9.1138Y-8.1223
X9.2035Y-4.9474
X9.3083Y-4.6752
X9.335Y-5.114
X9.4065Y-2.445
X9.4126Y-9.0517
X9.4382Y-4.5198
X9.4505Y-5.6479
X9.4568Y-8.312
X9.4693Y-6.2107
X9.6333Y-6.5316
X9.7191Y-5.0747
X9.7312Y-4.497
X9.7602Y-5.5903
X9.7729Y-4.4977
X9.7751Y-5.7933
X9.7849Y-6.002
X9.785Y-5.278
X9.8495Y-4.5441
X9.8821Y-5.7641
X9.9132Y-6.3464
X9.9261Y-5.1044
X9.9415Y-8.5028
X9.9444Y-7.4932
X10.0244Y-8.444
X10.0323Y-4.3283
X10.0682Y-4.4719
X10.1105Y-4.3225
X10.2666Y-7.7448
X10.3083Y-5.225
X10.3202Y-5.1376
X10.4314Y-5.4227
T2
X9.492Y-9.653
X9.542Y-9.603
X9.592Y-9.653
T3
X1.5714Y-6.4928
X1.5714Y-6.5928
X1.5714Y-6.6928
X1.5714Y-6.7928
X1.586Y-5.497
X1.586Y-5.597
X1.586Y-5.697
X1.586Y-5.797
X1.586Y-5.897
X1.586Y-5.997
X1.586Y-6.097
X1.603Y-7.838
X1.603Y-8.087
X1.603Y-8.336
X1.613Y-7.5737
X1.6281Y-5.229
X1.825Y-5.229
X1.8714Y-6.4928
X1.8714Y-6.5928
X1.8714Y-6.6928
X1.8714Y-6.7928
X1.8797Y-3.1827
X1.886Y-5.497
X1.886Y-5.597
X1.886Y-5.697
X1.886Y-5.797
X1.886Y-5.897
X1.886Y-5.997
X1.886Y-6.097
X1.903Y-7.838
X1.903Y-8.087
X1.903Y-8.336
X1.913Y-7.5737
X1.929Y-2.506
X1.929Y-2.806
X1.9782Y-3.1827
X2.1551Y-8.345
X2.1641Y-7.0478
X2.1641Y-7.3072
X2.1641Y-7.5667
X2.1641Y-7.8261
X2.1641Y-8.0856
X2.197Y-6.494
X2.197Y-6.594
X2.197Y-6.694
X2.197Y-6.794
X2.352Y-8.345
X2.361Y-7.0478
X2.361Y-7.3072
X2.361Y-7.5667
X2.361Y-7.8261
X2.361Y-8.0856
X2.497Y-6.494
X2.497Y-6.594
X2.497Y-6.694
X2.497Y-6.794
X2.543Y-8.096
X2.548Y-8.35
X2.553Y-7.817
X2.558Y-7.562
X2.64Y-5.527
X2.64Y-5.627
X2.64Y-5.727
X2.64Y-5.827
X2.64Y-5.927
X2.64Y-6.027
X2.64Y-6.127
X2.6586Y-3.183
X2.757Y-3.183
X2.843Y-8.096
X2.848Y-8.35
X2.853Y-7.817
X2.858Y-7.562
X2.94Y-5.527
X2.94Y-5.627
X2.94Y-5.727
X2.94Y-5.827
X2.94Y-5.927
X2.94Y-6.027
X2.94Y-6.127
X3.1051Y-8.345
X3.11Y-8.0976
X3.184Y-5.528
X3.184Y-5.628
X3.184Y-5.728
X3.184Y-5.828
X3.184Y-5.928
X3.184Y-6.028
X3.184Y-6.128
X3.184Y-6.228
X3.184Y-6.328
X3.184Y-6.428
X3.191Y-6.765
X3.191Y-6.865
X3.191Y-6.965
X3.191Y-7.065
X3.191Y-7.165
X3.191Y-7.265
X3.191Y-7.365
X3.191Y-7.465
X3.191Y-7.565
X3.191Y-7.665
X3.302Y-8.345
X3.3069Y-8.0976
X3.4647Y-3.1827
X3.484Y-5.528
X3.484Y-5.628
X3.484Y-5.728
X3.484Y-5.828
X3.484Y-5.928
X3.484Y-6.028
X3.484Y-6.128
X3.484Y-6.228
X3.484Y-6.328
X3.484Y-6.428
X3.491Y-6.765
X3.491Y-6.865
X3.491Y-6.965
X3.491Y-7.065
X3.491Y-7.165
X3.491Y-7.265
X3.491Y-7.365
X3.491Y-7.465
X3.491Y-7.565
X3.491Y-7.665
X3.5632Y-3.1827
X3.6686Y-5.236
X3.739Y-5.542
X3.739Y-5.642
X3.739Y-5.742
X3.739Y-5.842
X3.739Y-5.942
X3.739Y-6.042
X3.739Y-6.142
X3.739Y-6.242
X3.739Y-6.342
X3.739Y-6.442
X3.739Y-6.542
X3.739Y-6.642
X3.739Y-6.742
X3.739Y-6.842
X3.767Y-5.236
X3.788Y-7.273
X3.788Y-7.473
X3.789Y-7.782
X3.789Y-7.982
X3.988Y-7.373
X3.989Y-7.882
X3.993Y-5.24
X4.0914Y-5.24
X4.2806Y-3.192
X4.327Y-5.24
X4.339Y-5.542
X4.339Y-5.642
X4.339Y-5.742
X4.339Y-5.842
X4.339Y-5.942
X4.339Y-6.042
X4.339Y-6.142
X4.339Y-6.242
X4.339Y-6.342
X4.339Y-6.442
X4.339Y-6.542
X4.339Y-6.642
X4.339Y-6.742
X4.339Y-6.842
X4.379Y-3.192
X4.4186Y-7.668
X4.4186Y-8.0361
X4.4236Y-8.401
X4.4254Y-5.24
X4.517Y-7.668
X4.517Y-8.0361
X4.522Y-8.401
X4.6448Y-8.9029
X4.652Y-9.186
X4.652Y-9.431
X4.652Y-9.683
X4.67Y-6.995
X4.674Y-5.562
X4.674Y-5.662
X4.674Y-5.762
X4.674Y-5.862
X4.674Y-5.962
X4.674Y-6.062
X4.674Y-6.162
X4.6986Y-7.663
X4.7136Y-8.416
X4.7186Y-8.034
X4.7201Y-5.291
X4.7684Y-6.995
X4.797Y-7.663
X4.812Y-8.416
X4.817Y-8.034
X4.8417Y-8.9029
X4.917Y-5.291
X4.952Y-9.186
X4.952Y-9.431
X4.952Y-9.683
X4.974Y-5.562
X4.974Y-5.662
X4.974Y-5.762
X4.974Y-5.862
X4.974Y-5.962
X4.974Y-6.062
X4.974Y-6.162
X5.001Y-7.15
X5.001Y-7.25
X5.001Y-7.35
X5.001Y-7.45
X5.001Y-7.55
X5.001Y-7.65
X5.001Y-7.75
X5.0511Y-6.865
X5.0766Y-3.166
X5.175Y-3.166
X5.248Y-6.865
X5.301Y-7.15
X5.301Y-7.25
X5.301Y-7.35
X5.301Y-7.45
X5.301Y-7.55
X5.301Y-7.65
X5.301Y-7.75
X5.599Y-6.477
X5.629Y-5.502
X5.629Y-5.602
X5.629Y-5.702
X5.629Y-5.802
X5.629Y-5.902
X5.629Y-6.002
X5.629Y-6.102
X5.629Y-6.202
X5.657Y-8.124
X5.657Y-8.224
X5.657Y-8.324
X5.657Y-8.424
X5.657Y-8.524
X5.657Y-8.624
X5.657Y-8.724
X5.657Y-8.824
X5.657Y-8.924
X5.657Y-9.024
X5.665Y-6.802
X5.665Y-6.902
X5.665Y-7.002
X5.665Y-7.102
X5.665Y-7.202
X5.665Y-7.302
X5.665Y-7.402
X5.665Y-7.502
X5.665Y-7.602
X5.665Y-7.702
X5.6831Y-5.217
X5.7117Y-9.5207
X5.8102Y-9.5207
X5.88Y-5.217
X5.899Y-6.477
X5.929Y-5.502
X5.929Y-5.602
X5.929Y-5.702
X5.929Y-5.802
X5.929Y-5.902
X5.929Y-6.002
X5.929Y-6.102
X5.929Y-6.202
X5.957Y-8.124
X5.957Y-8.224
X5.957Y-8.324
X5.957Y-8.424
X5.957Y-8.524
X5.957Y-8.624
X5.957Y-8.724
X5.957Y-8.824
X5.957Y-8.924
X5.957Y-9.024
X5.965Y-6.802
X5.965Y-6.902
X5.965Y-7.002
X5.965Y-7.102
X5.965Y-7.202
X5.965Y-7.302
X5.965Y-7.402
X5.965Y-7.502
X5.965Y-7.602
X5.965Y-7.702
X6.0331Y-6.477
X6.0816Y-9.546
X6.18Y-9.546
X6.203Y-8.1071
X6.203Y-8.304
X6.204Y-6.781
X6.204Y-6.9779
X6.23Y-6.477
X6.298Y-1.928
X6.298Y-2.028
X6.298Y-2.128
X6.298Y-2.228
X6.298Y-2.328
X6.298Y-2.428
X6.298Y-2.528
X6.3391Y-1.631
X6.34Y-2.957
X6.34Y-3.057
X6.34Y-3.157
X6.34Y-3.257
X6.34Y-3.357
X6.34Y-3.457
X6.34Y-3.557
X6.34Y-3.657
X6.357Y-6.477
X6.379Y-5.499
X6.379Y-5.599
X6.379Y-5.699
X6.379Y-5.799
X6.379Y-5.899
X6.379Y-5.999
X6.379Y-6.099
X6.417Y-6.822
X6.417Y-6.922
X6.417Y-7.022
X6.417Y-7.122
X6.417Y-7.222
X6.417Y-7.322
X6.417Y-7.422
X6.417Y-7.522
X6.417Y-7.622
X6.417Y-7.722
X6.4411Y-5.223
X6.4547Y-9.5477
X6.507Y-8.311
X6.507Y-8.411
X6.507Y-8.511
X6.507Y-8.611
X6.507Y-8.711
X6.507Y-8.811
X6.507Y-8.911
X6.507Y-9.011
X6.536Y-1.631
X6.5532Y-9.5477
X6.5651Y-8.032
X6.598Y-1.928
X6.598Y-2.028
X6.598Y-2.128
X6.598Y-2.228
X6.598Y-2.328
X6.598Y-2.428
X6.598Y-2.528
X6.638Y-5.223
X6.64Y-2.957
X6.64Y-3.057
X6.64Y-3.157
X6.64Y-3.257
X6.64Y-3.357
X6.64Y-3.457
X6.64Y-3.557
X6.64Y-3.657
X6.657Y-6.477
X6.679Y-5.499
X6.679Y-5.599
X6.679Y-5.699
X6.679Y-5.799
X6.679Y-5.899
X6.679Y-5.999
X6.679Y-6.099
X6.717Y-6.822
X6.717Y-6.922
X6.717Y-7.022
X6.717Y-7.122
X6.717Y-7.222
X6.717Y-7.322
X6.717Y-7.422
X6.717Y-7.522
X6.717Y-7.622
X6.717Y-7.722
X6.7441Y-2.753
X6.762Y-8.032
X6.807Y-8.311
X6.807Y-8.411
X6.807Y-8.511
X6.807Y-8.611
X6.807Y-8.711
X6.807Y-8.811
X6.807Y-8.911
X6.807Y-9.011
X6.897Y-6.8141
X6.897Y-7.011
X6.941Y-2.753
X7.16Y-1.591
X7.165Y-7.707
X7.165Y-7.807
X7.165Y-7.907
X7.165Y-8.007
X7.165Y-8.107
X7.165Y-8.207
X7.165Y-8.307
X7.165Y-8.407
X7.165Y-8.507
X7.165Y-8.607
X7.165Y-8.707
X7.165Y-8.807
X7.165Y-8.907
X7.165Y-9.007
X7.168Y-1.899
X7.168Y-1.999
X7.168Y-2.099
X7.168Y-2.199
X7.168Y-2.299
X7.168Y-2.399
X7.168Y-2.499
X7.168Y-2.869
X7.168Y-2.969
X7.168Y-3.069
X7.168Y-3.169
X7.168Y-3.269
X7.168Y-3.369
X7.168Y-3.469
X7.168Y-3.885
X7.168Y-3.985
X7.168Y-4.085
X7.168Y-4.185
X7.168Y-4.285
X7.168Y-4.385
X7.168Y-4.485
X7.168Y-4.585
X7.168Y-4.685
X7.168Y-5.088
X7.168Y-5.188
X7.168Y-5.288
X7.168Y-5.388
X7.168Y-5.488
X7.168Y-5.588
X7.168Y-5.688
X7.168Y-6.094
X7.168Y-6.194
X7.168Y-6.294
X7.168Y-6.394
X7.168Y-6.494
X7.168Y-6.594
X7.168Y-6.694
X7.168Y-6.794
X7.168Y-6.894
X7.168Y-6.994
X7.46Y-1.591
X7.468Y-1.899
X7.468Y-1.999
X7.468Y-2.099
X7.468Y-2.199
X7.468Y-2.299
X7.468Y-2.399
X7.468Y-2.499
X7.468Y-2.869
X7.468Y-2.969
X7.468Y-3.069
X7.468Y-3.169
X7.468Y-3.269
X7.468Y-3.369
X7.468Y-3.469
X7.468Y-3.885
X7.468Y-3.985
X7.468Y-4.085
X7.468Y-4.185
X7.468Y-4.285
X7.468Y-4.385
X7.468Y-4.485
X7.468Y-4.585
X7.468Y-4.685
X7.468Y-5.088
X7.468Y-5.188
X7.468Y-5.288
X7.468Y-5.388
X7.468Y-5.488
X7.468Y-5.588
X7.468Y-5.688
X7.468Y-6.094
X7.468Y-6.194
X7.468Y-6.294
X7.468Y-6.394
X7.468Y-6.494
X7.468Y-6.594
X7.468Y-6.694
X7.468Y-6.794
X7.468Y-6.894
X7.468Y-6.994
X7.5131Y-3.672
X7.5151Y-5.893
X7.5671Y-1.722
X7.71Y-3.672
X7.712Y-5.893
X7.764Y-1.722
X7.765Y-7.707
X7.765Y-7.807
X7.765Y-7.907
X7.765Y-8.007
X7.765Y-8.107
X7.765Y-8.207
X7.765Y-8.307
X7.765Y-8.407
X7.765Y-8.507
X7.765Y-8.607
X7.765Y-8.707
X7.765Y-8.807
X7.765Y-8.907
X7.765Y-9.007
X7.891Y-1.911
X7.891Y-2.011
X7.891Y-2.111
X7.891Y-2.211
X7.891Y-2.311
X7.891Y-2.411
X7.891Y-2.511
X7.891Y-2.611
X7.891Y-2.711
X7.891Y-2.811
X7.891Y-3.433
X7.891Y-3.533
X7.891Y-3.633
X7.891Y-3.733
X7.891Y-3.833
X7.891Y-3.933
X7.891Y-4.033
X7.891Y-4.443
X7.891Y-4.543
X7.891Y-4.643
X7.891Y-4.743
X7.891Y-4.843
X7.891Y-4.943
X7.891Y-5.043
X7.891Y-5.143
X7.891Y-5.243
X7.891Y-5.343
X7.891Y-5.885
X7.891Y-5.985
X7.891Y-6.085
X7.891Y-6.185
X7.891Y-6.285
X7.891Y-6.385
X7.891Y-6.485
X7.891Y-6.585
X7.891Y-6.685
X7.891Y-6.785
X7.891Y-6.885
X7.891Y-6.985
X7.9451Y-5.63
X7.9531Y-3.116
X8.059Y-7.506
X8.059Y-7.7029
X8.142Y-5.63
X8.15Y-3.116
X8.191Y-1.911
X8.191Y-2.011
X8.191Y-2.111
X8.191Y-2.211
X8.191Y-2.311
X8.191Y-2.411
X8.191Y-2.511
X8.191Y-2.611
X8.191Y-2.711
X8.191Y-2.811
X8.191Y-3.433
X8.191Y-3.533
X8.191Y-3.633
X8.191Y-3.733
X8.191Y-3.833
X8.191Y-3.933
X8.191Y-4.033
X8.191Y-4.443
X8.191Y-4.543
X8.191Y-4.643
X8.191Y-4.743
X8.191Y-4.843
X8.191Y-4.943
X8.191Y-5.043
X8.191Y-5.143
X8.191Y-5.243
X8.191Y-5.343
X8.191Y-5.885
X8.191Y-5.985
X8.191Y-6.085
X8.191Y-6.185
X8.191Y-6.285
X8.191Y-6.385
X8.191Y-6.485
X8.191Y-6.585
X8.191Y-6.685
X8.191Y-6.785
X8.191Y-6.885
X8.191Y-6.985
X8.1921Y-1.715
X8.389Y-1.715
X8.3941Y-7.273
X8.425Y-7.512
X8.425Y-7.612
X8.425Y-7.712
X8.425Y-7.812
X8.425Y-7.912
X8.425Y-8.012
X8.425Y-8.112
X8.425Y-8.212
X8.425Y-8.312
X8.425Y-8.412
X8.425Y-8.512
X8.425Y-8.612
X8.425Y-8.712
X8.425Y-8.812
X8.425Y-8.912
X8.425Y-9.012
X8.5768Y-4.7072
X8.5768Y-4.8072
X8.5768Y-4.9072
X8.5768Y-5.0072
X8.5768Y-5.1072
X8.5768Y-5.2072
X8.5768Y-5.3072
X8.5768Y-5.4072
X8.5768Y-5.8942
X8.5768Y-5.9942
X8.5768Y-6.0942
X8.5768Y-6.1942
X8.5768Y-6.2942
X8.5768Y-6.3942
X8.5768Y-6.4942
X8.5768Y-6.5942
X8.5768Y-6.6942
X8.5768Y-6.7942
X8.5768Y-6.8942
X8.5768Y-6.9942
X8.591Y-7.273
X8.629Y-1.4613
X8.629Y-1.7613
X8.656Y-4.398
X8.8529Y-4.398
X8.8768Y-4.7072
X8.8768Y-4.8072
X8.8768Y-4.9072
X8.8768Y-5.0072
X8.8768Y-5.1072
X8.8768Y-5.2072
X8.8768Y-5.3072
X8.8768Y-5.4072
X8.8768Y-5.8942
X8.8768Y-5.9942
X8.8768Y-6.0942
X8.8768Y-6.1942
X8.8768Y-6.2942
X8.8768Y-6.3942
X8.8768Y-6.4942
X8.8768Y-6.5942
X8.8768Y-6.6942
X8.8768Y-6.7942
X8.8768Y-6.8942
X8.8768Y-6.9942
X8.9308Y-1.4613
X8.9308Y-1.7613
X9.025Y-7.512
X9.025Y-7.612
X9.025Y-7.712
X9.025Y-7.812
X9.025Y-7.912
X9.025Y-8.012
X9.025Y-8.112
X9.025Y-8.212
X9.025Y-8.312
X9.025Y-8.412
X9.025Y-8.512
X9.025Y-8.612
X9.025Y-8.712
X9.025Y-8.812
X9.025Y-8.912
X9.025Y-9.012
X9.126Y-5.8921
X9.126Y-6.089
X9.151Y-2.195
X9.151Y-2.295
X9.151Y-2.395
X9.151Y-2.495
X9.151Y-2.595
X9.151Y-2.695
X9.151Y-2.795
X9.151Y-2.895
X9.151Y-2.995
X9.151Y-3.095
X9.151Y-3.195
X9.151Y-3.295
X9.151Y-3.395
X9.151Y-3.495
X9.151Y-3.595
X9.151Y-3.695
X9.151Y-3.795
X9.151Y-3.895
X9.151Y-3.995
X9.151Y-4.095
X9.1546Y-4.769
X9.1841Y-7.617
X9.2011Y-6.882
X9.2021Y-7.894
X9.2326Y-1.4613
X9.2326Y-1.7613
X9.253Y-4.769
X9.287Y-7.152
X9.287Y-7.3441
X9.299Y-8.086
X9.299Y-8.386
X9.302Y-8.521
X9.302Y-8.821
X9.3129Y-8.9787
X9.3129Y-9.2787
X9.381Y-7.617
X9.398Y-6.882
X9.399Y-7.894
X9.5344Y-1.4613
X9.5344Y-1.7613
X9.57Y-7.094
X9.57Y-7.194
X9.57Y-7.294
X9.57Y-7.394
X9.57Y-7.494
X9.57Y-7.594
X9.57Y-7.694
X9.57Y-7.794
X9.57Y-7.894
X9.57Y-7.994
X9.57Y-8.094
X9.57Y-8.194
X9.57Y-8.294
X9.57Y-8.394
X9.57Y-8.494
X9.57Y-8.594
X9.57Y-8.694
X9.57Y-8.794
X9.57Y-8.894
X9.57Y-8.994
X9.582Y-4.678
X9.582Y-4.778
X9.582Y-4.878
X9.582Y-4.978
X9.582Y-5.078
X9.582Y-5.178
X9.582Y-5.278
X9.582Y-5.378
X9.582Y-5.478
X9.582Y-5.578
X9.582Y-5.678
X9.582Y-5.778
X9.582Y-5.878
X9.582Y-5.978
X9.582Y-6.078
X9.582Y-6.178
X9.582Y-6.278
X9.582Y-6.378
X9.582Y-6.478
X9.582Y-6.578
X9.751Y-2.195
X9.751Y-2.295
X9.751Y-2.395
X9.751Y-2.495
X9.751Y-2.595
X9.751Y-2.695
X9.751Y-2.795
X9.751Y-2.895
X9.751Y-2.995
X9.751Y-3.095
X9.751Y-3.195
X9.751Y-3.295
X9.751Y-3.395
X9.751Y-3.495
X9.751Y-3.595
X9.751Y-3.695
X9.751Y-3.795
X9.751Y-3.895
X9.751Y-3.995
X9.751Y-4.095
X9.8362Y-1.4613
X9.8362Y-1.7613
X9.8423Y-9.3029
X10.138Y-1.4613
X10.138Y-1.7613
X10.1423Y-9.3029
X10.17Y-7.094
X10.17Y-7.194
X10.17Y-7.294
X10.17Y-7.394
X10.17Y-7.494
X10.17Y-7.594
X10.17Y-7.694
X10.17Y-7.794
X10.17Y-7.894
X10.17Y-7.994
X10.17Y-8.094
X10.17Y-8.194
X10.17Y-8.294
X10.17Y-8.394
X10.17Y-8.494
X10.17Y-8.594
X10.17Y-8.694
X10.17Y-8.794
X10.17Y-8.894
X10.17Y-8.994
X10.182Y-4.678
X10.182Y-4.778
X10.182Y-4.878
X10.182Y-4.978
X10.182Y-5.078
X10.182Y-5.178
X10.182Y-5.278
X10.182Y-5.378
X10.182Y-5.478
X10.182Y-5.578
X10.182Y-5.678
X10.182Y-5.778
X10.182Y-5.878
X10.182Y-5.978
X10.182Y-6.078
X10.182Y-6.178
X10.182Y-6.278
X10.182Y-6.378
X10.182Y-6.478
X10.182Y-6.578
X10.395Y-7.893
X10.395Y-8.0899
X10.442Y-4.6611
X10.442Y-4.858
T4
X8.519Y-1.253
X8.619Y-1.253
X8.824Y-1.253
X8.924Y-1.253
X9.129Y-1.253
X9.229Y-1.253
X9.434Y-1.253
X9.534Y-1.253
X9.739Y-1.253
X9.839Y-1.253
X10.044Y-1.253
X10.144Y-1.253
T5
X1.889Y-4.358
X1.889Y-4.458
X1.889Y-4.558
X1.889Y-4.658
X1.889Y-4.758
X1.889Y-4.858
X1.989Y-4.358
X1.989Y-4.458
X1.989Y-4.558
X1.989Y-4.658
X1.989Y-4.758
X1.989Y-4.858
X2.247Y-5.536
X2.247Y-5.636
X2.249Y-5.878
X2.249Y-5.978
X2.6787Y-4.358
X2.6787Y-4.458
X2.6787Y-4.558
X2.6787Y-4.658
X2.6787Y-4.758
X2.6787Y-4.858
X2.7787Y-4.358
X2.7787Y-4.458
X2.7787Y-4.558
X2.7787Y-4.658
X2.7787Y-4.758
X2.7787Y-4.858
X3.492Y-4.358
X3.492Y-4.458
X3.492Y-4.558
X3.492Y-4.658
X3.492Y-4.758
X3.492Y-4.858
X3.592Y-4.358
X3.592Y-4.458
X3.592Y-4.558
X3.592Y-4.658
X3.592Y-4.758
X3.592Y-4.858
X4.299Y-4.358
X4.299Y-4.458
X4.299Y-4.558
X4.299Y-4.658
X4.299Y-4.758
X4.299Y-4.858
X4.399Y-4.358
X4.399Y-4.458
X4.399Y-4.558
X4.399Y-4.658
X4.399Y-4.758
X4.399Y-4.858
X4.676Y-6.457
X4.676Y-6.557
X5.0171Y-8.7258
X5.0171Y-8.903
X5.083Y-4.358
X5.083Y-4.458
X5.083Y-4.558
X5.083Y-4.658
X5.083Y-4.758
X5.083Y-4.858
X5.126Y-6.463
X5.126Y-6.563
X5.183Y-4.358
X5.183Y-4.458
X5.183Y-4.558
X5.183Y-4.658
X5.183Y-4.758
X5.183Y-4.858
X5.273Y-8.7258
X5.273Y-8.903
X5.283Y-9.467
X5.283Y-9.567
X5.889Y-4.358
X5.889Y-4.458
X5.889Y-4.558
X5.889Y-4.658
X5.889Y-4.758
X5.889Y-4.858
X5.989Y-4.358
X5.989Y-4.458
X5.989Y-4.558
X5.989Y-4.658
X5.989Y-4.758
X5.989Y-4.858
X6.952Y-9.583
X6.952Y-9.683
X7.052Y-9.583
X7.052Y-9.683
X7.152Y-9.583
X7.152Y-9.683
X7.252Y-9.583
X7.252Y-9.683
X7.352Y-9.583
X7.352Y-9.683
X7.452Y-9.583
X7.452Y-9.683
X7.474Y-0.9
X7.552Y-9.583
X7.552Y-9.683
X7.574Y-0.9
X7.652Y-9.583
X7.652Y-9.683
X7.674Y-0.9
X7.752Y-9.583
X7.752Y-9.683
X7.774Y-0.9
X7.852Y-9.583
X7.852Y-9.683
X7.874Y-0.9
X7.952Y-9.583
X7.952Y-9.683
X7.974Y-0.9
X8.052Y-9.583
X8.052Y-9.683
X8.074Y-0.9
X8.152Y-9.583
X8.152Y-9.683
X8.174Y-0.9
X8.215Y-1.203
X8.215Y-1.303
X8.252Y-9.583
X8.252Y-9.683
X8.274Y-0.9
X8.352Y-9.583
X8.352Y-9.683
X8.374Y-0.9
X8.452Y-9.583
X8.452Y-9.683
X8.474Y-0.9
X8.51Y-2.157
X8.51Y-2.257
X8.552Y-9.583
X8.552Y-9.683
X8.652Y-9.583
X8.652Y-9.683
X8.752Y-9.583
X8.752Y-9.683
X8.767Y-0.899
X8.852Y-9.583
X8.852Y-9.683
X8.867Y-0.899
X8.967Y-0.899
X9.067Y-0.899
X9.167Y-0.899
X9.221Y-9.535
X9.221Y-9.635
X9.221Y-9.735
X9.267Y-0.899
X9.549Y-0.9
X9.649Y-0.9
X9.749Y-0.9
X9.849Y-0.9
X9.8561Y-9.5438
X9.8561Y-9.721
X9.949Y-0.9
X10.049Y-0.9
X10.112Y-9.5438
X10.112Y-9.721
X10.149Y-0.9
X10.4Y-9.5838
X10.4Y-9.6838
X10.413Y-9.1398
X10.413Y-9.2398
X10.548Y-3.184
X10.548Y-3.284
X10.548Y-3.384
X10.548Y-3.484
X10.548Y-3.584
X10.548Y-3.684
X10.548Y-3.784
X10.548Y-3.884
X10.548Y-3.984
X10.548Y-4.084
X10.648Y-3.184
X10.648Y-3.284
X10.648Y-3.384
X10.648Y-3.484
X10.648Y-3.584
X10.648Y-3.684
X10.648Y-3.784
X10.648Y-3.884
X10.648Y-3.984
X10.648Y-4.084
T6
X1.4387Y-1.7892
X1.4387Y-1.8892
X1.4387Y-1.9892
X1.4387Y-2.0892
X1.4387Y-2.1892
X1.4387Y-2.2892
X1.4387Y-2.3892
X1.4387Y-2.4892
X1.4387Y-2.5892
X1.4387Y-2.6892
X1.4387Y-2.7892
X1.4387Y-2.8892
X1.4387Y-2.9892
X1.4387Y-3.0892
X1.4387Y-3.1892
X1.4387Y-3.2892
X1.4387Y-3.3892
X1.4387Y-3.4892
X1.4387Y-3.5892
X1.4387Y-3.6892
X1.4387Y-3.7892
X1.4387Y-3.8892
X1.4387Y-3.9892
X1.4387Y-4.0892
X1.4387Y-4.1892
X1.4387Y-4.2892
X1.4387Y-4.3892
X1.4387Y-4.4892
X1.4387Y-4.5892
X1.4387Y-4.6892
X1.4387Y-4.7892
X1.6387Y-1.7892
X1.6387Y-1.8892
X1.6387Y-1.9892
X1.6387Y-2.0892
X1.6387Y-2.1892
X1.6387Y-2.2892
X1.6387Y-2.3892
X1.6387Y-2.4892
X1.6387Y-2.5892
X1.6387Y-2.6892
X1.6387Y-2.7892
X1.6387Y-2.8892
X1.6387Y-2.9892
X1.6387Y-3.0892
X1.6387Y-3.1892
X1.6387Y-3.2892
X1.6387Y-3.3892
X1.6387Y-3.4892
X1.6387Y-3.5892
X1.6387Y-3.6892
X1.6387Y-3.7892
X1.6387Y-3.8892
X1.6387Y-3.9892
X1.6387Y-4.0892
X1.6387Y-4.1892
X1.6387Y-4.2892
X1.6387Y-4.3892
X1.6387Y-4.4892
X1.6387Y-4.5892
X1.6387Y-4.6892
X1.6387Y-4.7892
X2.2387Y-1.7892
X2.2387Y-1.8892
X2.2387Y-1.9892
X2.2387Y-2.0892
X2.2387Y-2.1892
X2.2387Y-2.2892
X2.2387Y-2.3892
X2.2387Y-2.4892
X2.2387Y-2.5892
X2.2387Y-2.6892
X2.2387Y-2.7892
X2.2387Y-2.8892
X2.2387Y-2.9892
X2.2387Y-3.0892
X2.2387Y-3.1892
X2.2387Y-3.2892
X2.2387Y-3.3892
X2.2387Y-3.4892
X2.2387Y-3.5892
X2.2387Y-3.6892
X2.2387Y-3.7892
X2.2387Y-3.8892
X2.2387Y-3.9892
X2.2387Y-4.0892
X2.2387Y-4.1892
X2.2387Y-4.2892
X2.2387Y-4.3892
X2.2387Y-4.4892
X2.2387Y-4.5892
X2.2387Y-4.6892
X2.2387Y-4.7892
X2.4387Y-1.7892
X2.4387Y-1.8892
X2.4387Y-1.9892
X2.4387Y-2.0892
X2.4387Y-2.1892
X2.4387Y-2.2892
X2.4387Y-2.3892
X2.4387Y-2.4892
X2.4387Y-2.5892
X2.4387Y-2.6892
X2.4387Y-2.7892
X2.4387Y-2.8892
X2.4387Y-2.9892
X2.4387Y-3.0892
X2.4387Y-3.1892
X2.4387Y-3.2892
X2.4387Y-3.3892
X2.4387Y-3.4892
X2.4387Y-3.5892
X2.4387Y-3.6892
X2.4387Y-3.7892
X2.4387Y-3.8892
X2.4387Y-3.9892
X2.4387Y-4.0892
X2.4387Y-4.1892
X2.4387Y-4.2892
X2.4387Y-4.3892
X2.4387Y-4.4892
X2.4387Y-4.5892
X2.4387Y-4.6892
X2.4387Y-4.7892
X3.0387Y-1.7892
X3.0387Y-1.8892
X3.0387Y-1.9892
X3.0387Y-2.0892
X3.0387Y-2.1892
X3.0387Y-2.2892
X3.0387Y-2.3892
X3.0387Y-2.4892
X3.0387Y-2.5892
X3.0387Y-2.6892
X3.0387Y-2.7892
X3.0387Y-2.8892
X3.0387Y-2.9892
X3.0387Y-3.0892
X3.0387Y-3.1892
X3.0387Y-3.2892
X3.0387Y-3.3892
X3.0387Y-3.4892
X3.0387Y-3.5892
X3.0387Y-3.6892
X3.0387Y-3.7892
X3.0387Y-3.8892
X3.0387Y-3.9892
X3.0387Y-4.0892
X3.0387Y-4.1892
X3.0387Y-4.2892
X3.0387Y-4.3892
X3.0387Y-4.4892
X3.0387Y-4.5892
X3.0387Y-4.6892
X3.0387Y-4.7892
X3.2387Y-1.7892
X3.2387Y-1.8892
X3.2387Y-1.9892
X3.2387Y-2.0892
X3.2387Y-2.1892
X3.2387Y-2.2892
X3.2387Y-2.3892
X3.2387Y-2.4892
X3.2387Y-2.5892
X3.2387Y-2.6892
X3.2387Y-2.7892
X3.2387Y-2.8892
X3.2387Y-2.9892
X3.2387Y-3.0892
X3.2387Y-3.1892
X3.2387Y-3.2892
X3.2387Y-3.3892
X3.2387Y-3.4892
X3.2387Y-3.5892
X3.2387Y-3.6892
X3.2387Y-3.7892
X3.2387Y-3.8892
X3.2387Y-3.9892
X3.2387Y-4.0892
X3.2387Y-4.1892
X3.2387Y-4.2892
X3.2387Y-4.3892
X3.2387Y-4.4892
X3.2387Y-4.5892
X3.2387Y-4.6892
X3.2387Y-4.7892
X3.8387Y-1.7892
X3.8387Y-1.8892
X3.8387Y-1.9892
X3.8387Y-2.0892
X3.8387Y-2.1892
X3.8387Y-2.2892
X3.8387Y-2.3892
X3.8387Y-2.4892
X3.8387Y-2.5892
X3.8387Y-2.6892
X3.8387Y-2.7892
X3.8387Y-2.8892
X3.8387Y-2.9892
X3.8387Y-3.0892
X3.8387Y-3.1892
X3.8387Y-3.2892
X3.8387Y-3.3892
X3.8387Y-3.4892
X3.8387Y-3.5892
X3.8387Y-3.6892
X3.8387Y-3.7892
X3.8387Y-3.8892
X3.8387Y-3.9892
X3.8387Y-4.0892
X3.8387Y-4.1892
X3.8387Y-4.2892
X3.8387Y-4.3892
X3.8387Y-4.4892
X3.8387Y-4.5892
X3.8387Y-4.6892
X3.8387Y-4.7892
X4.0387Y-1.7892
X4.0387Y-1.8892
X4.0387Y-1.9892
X4.0387Y-2.0892
X4.0387Y-2.1892
X4.0387Y-2.2892
X4.0387Y-2.3892
X4.0387Y-2.4892
X4.0387Y-2.5892
X4.0387Y-2.6892
X4.0387Y-2.7892
X4.0387Y-2.8892
X4.0387Y-2.9892
X4.0387Y-3.0892
X4.0387Y-3.1892
X4.0387Y-3.2892
X4.0387Y-3.3892
X4.0387Y-3.4892
X4.0387Y-3.5892
X4.0387Y-3.6892
X4.0387Y-3.7892
X4.0387Y-3.8892
X4.0387Y-3.9892
X4.0387Y-4.0892
X4.0387Y-4.1892
X4.0387Y-4.2892
X4.0387Y-4.3892
X4.0387Y-4.4892
X4.0387Y-4.5892
X4.0387Y-4.6892
X4.0387Y-4.7892
X4.6387Y-1.7892
X4.6387Y-1.8892
X4.6387Y-1.9892
X4.6387Y-2.0892
X4.6387Y-2.1892
X4.6387Y-2.2892
X4.6387Y-2.3892
X4.6387Y-2.4892
X4.6387Y-2.5892
X4.6387Y-2.6892
X4.6387Y-2.7892
X4.6387Y-2.8892
X4.6387Y-2.9892
X4.6387Y-3.0892
X4.6387Y-3.1892
X4.6387Y-3.2892
X4.6387Y-3.3892
X4.6387Y-3.4892
X4.6387Y-3.5892
X4.6387Y-3.6892
X4.6387Y-3.7892
X4.6387Y-3.8892
X4.6387Y-3.9892
X4.6387Y-4.0892
X4.6387Y-4.1892
X4.6387Y-4.2892
X4.6387Y-4.3892
X4.6387Y-4.4892
X4.6387Y-4.5892
X4.6387Y-4.6892
X4.6387Y-4.7892
X4.8387Y-1.7892
X4.8387Y-1.8892
X4.8387Y-1.9892
X4.8387Y-2.0892
X4.8387Y-2.1892
X4.8387Y-2.2892
X4.8387Y-2.3892
X4.8387Y-2.4892
X4.8387Y-2.5892
X4.8387Y-2.6892
X4.8387Y-2.7892
X4.8387Y-2.8892
X4.8387Y-2.9892
X4.8387Y-3.0892
X4.8387Y-3.1892
X4.8387Y-3.2892
X4.8387Y-3.3892
X4.8387Y-3.4892
X4.8387Y-3.5892
X4.8387Y-3.6892
X4.8387Y-3.7892
X4.8387Y-3.8892
X4.8387Y-3.9892
X4.8387Y-4.0892
X4.8387Y-4.1892
X4.8387Y-4.2892
X4.8387Y-4.3892
X4.8387Y-4.4892
X4.8387Y-4.5892
X4.8387Y-4.6892
X4.8387Y-4.7892
X5.4387Y-1.7892
X5.4387Y-1.8892
X5.4387Y-1.9892
X5.4387Y-2.0892
X5.4387Y-2.1892
X5.4387Y-2.2892
X5.4387Y-2.3892
X5.4387Y-2.4892
X5.4387Y-2.5892
X5.4387Y-2.6892
X5.4387Y-2.7892
X5.4387Y-2.8892
X5.4387Y-2.9892
X5.4387Y-3.0892
X5.4387Y-3.1892
X5.4387Y-3.2892
X5.4387Y-3.3892
X5.4387Y-3.4892
X5.4387Y-3.5892
X5.4387Y-3.6892
X5.4387Y-3.7892
X5.4387Y-3.8892
X5.4387Y-3.9892
X5.4387Y-4.0892
X5.4387Y-4.1892
X5.4387Y-4.2892
X5.4387Y-4.3892
X5.4387Y-4.4892
X5.4387Y-4.5892
X5.4387Y-4.6892
X5.4387Y-4.7892
X5.6387Y-1.7892
X5.6387Y-1.8892
X5.6387Y-1.9892
X5.6387Y-2.0892
X5.6387Y-2.1892
X5.6387Y-2.2892
X5.6387Y-2.3892
X5.6387Y-2.4892
X5.6387Y-2.5892
X5.6387Y-2.6892
X5.6387Y-2.7892
X5.6387Y-2.8892
X5.6387Y-2.9892
X5.6387Y-3.0892
X5.6387Y-3.1892
X5.6387Y-3.2892
X5.6387Y-3.3892
X5.6387Y-3.4892
X5.6387Y-3.5892
X5.6387Y-3.6892
X5.6387Y-3.7892
X5.6387Y-3.8892
X5.6387Y-3.9892
X5.6387Y-4.0892
X5.6387Y-4.1892
X5.6387Y-4.2892
X5.6387Y-4.3892
X5.6387Y-4.4892
X5.6387Y-4.5892
X5.6387Y-4.6892
X5.6387Y-4.7892
T7
X4.027Y-9.444
X4.032Y-9.701
X4.427Y-9.444
X4.432Y-9.701
X10.653Y-2.421
X10.653Y-2.821
T9
X5.0962Y-9.9684
X5.0962Y-10.185
X5.2616Y-9.9684
X5.2616Y-10.185
X5.4269Y-9.9684
X5.4269Y-10.185
X5.5923Y-9.9684
X5.5923Y-10.185
X5.7576Y-9.9684
X5.7576Y-10.185
X5.923Y-9.9684
X5.923Y-10.185
X6.0883Y-9.9684
X6.0883Y-10.185
X6.2537Y-9.9684
X6.2537Y-10.185
X6.419Y-9.9684
X6.419Y-10.185
X6.5844Y-9.9684
X6.5844Y-10.185
T10
X1.8377Y-1.1871
X1.8377Y-7.2871
X1.8377Y-10.1371
X2.6377Y-1.1871
X2.6377Y-7.2871
X2.6377Y-10.1371
X4.4377Y-1.1871
X4.4377Y-7.2871
X4.4377Y-10.1371
X10.6377Y-2.0871
X10.6377Y-7.2871
X10.6377Y-10.1371
T5
G00X7.055Y-1.1962
M15
G01X7.055Y-1.1451
M16
G05
G00X10.532Y-1.1916
M15
G01X10.532Y-1.1404
M16
G05
T8
G00X7.0137Y-0.9935
M15
G01X7.0963Y-0.9935
M16
G05
G00X10.4907Y-0.9888
M15
G01X10.5733Y-0.9888
M16
G05
M30
